<svg width="335" height="186" viewBox="0 0 335 186" fill="none" xmlns="http://www.w3.org/2000/svg">
<path d="M194.701 88.7417C194.744 88.9882 194.86 89.2492 194.831 89.4812C194.266 93.3092 193.903 97.1517 194.005 101.023C194.005 101.4 193.787 101.777 193.686 102.154C190.09 103.967 186.508 105.837 182.869 107.577C181.825 108.07 181.346 108.723 181.303 109.825C181.259 110.84 181.245 111.855 181.1 112.855C181.056 113.203 180.636 113.493 180.389 113.798C180.114 113.537 179.664 113.334 179.577 113.029C179.331 112.116 179.2 111.159 179.055 110.216C179.012 109.912 178.997 109.607 178.968 109.303C178.867 109.245 178.765 109.172 178.678 109.114C178.446 109.433 178.258 109.781 177.982 110.042C177.228 110.753 176.46 111.478 175.619 112.087C175.285 112.319 174.72 112.246 174.27 112.319C174.256 111.811 174.024 111.159 174.256 110.811C174.792 109.97 175.532 109.245 176.213 108.505C176.489 108.215 176.822 107.983 177.257 107.635C176.416 107.229 175.662 106.896 174.937 106.504C174.473 106.258 174.009 106.011 173.632 105.649C173.4 105.431 173.342 105.011 173.197 104.692C173.531 104.561 173.864 104.286 174.169 104.315C175.387 104.387 176.605 104.503 177.808 104.706C179.867 105.054 181.607 104.532 183.159 103.111C186.015 100.487 188.393 97.4417 190.684 94.3387C192.047 92.4972 193.352 90.6122 194.686 88.7417H194.701Z" fill="#C28C70"/>
<path d="M213.769 157.572C213.711 158.732 213.653 159.878 213.595 161.038C213.537 162.362 212.87 163.097 211.594 163.242C211.246 163.285 210.898 163.343 210.55 163.343C204.634 163.343 198.718 163.343 192.817 163.314C190.729 163.3 190.729 163.227 191.526 161.299C193.078 159.109 195.369 158.094 197.834 157.471C199.501 157.05 201.227 156.847 202.938 156.557C204.75 156.441 206.563 156.34 208.375 156.238C208.375 156.021 208.462 155.789 208.375 155.615C208.172 155.165 207.911 154.759 207.665 154.324C207.375 153.86 207.085 153.396 206.795 152.932C205.301 150.525 203.779 148.118 202.329 145.682C200.139 141.999 197.979 138.287 195.818 134.59C193.107 129.921 191.889 124.947 193.005 119.568C193.237 118.408 193.73 117.306 194.093 116.189C194.281 116.494 194.557 116.784 194.673 117.117C197.109 124.048 201.227 129.747 207.244 134.01C208.825 135.126 210.536 136.069 212.189 137.084C212.667 137.388 213.131 137.693 213.61 137.983C213.668 140.1 213.784 142.202 213.784 144.319C213.784 148.742 213.755 153.179 213.74 157.616L213.769 157.572Z" fill="#C28C70"/>
<path d="M201.342 50.5916C201.994 50.3451 202.56 49.8666 202.908 49.2286C204.024 47.2276 206.533 42.9501 206.75 42.3701C208.925 36.8021 208.345 31.6691 205.706 26.9276C204.532 24.8106 203.908 24.8106 202.139 26.7391C195.933 33.5251 193.555 41.0941 195.759 49.6201C195.803 49.7651 197.166 50.4176 198.079 50.9251C198.703 51.2586 199.442 51.3021 200.153 51.0411L201.327 50.6061L201.342 50.5916Z" fill="#8E6451"/>
<path d="M233.24 141.579C231.718 139.39 230.181 137.215 228.644 135.04C226.759 132.357 224.932 129.646 222.989 127.021C220.901 124.194 220.64 121.221 221.829 117.988C223.076 114.624 224.236 111.216 225.425 107.823C225.555 107.446 225.613 107.04 225.7 106.649C225.381 106.808 225.236 107.026 225.149 107.243C223.685 110.81 222.206 114.363 220.77 117.944C219.494 121.12 219.697 124.194 221.713 127.05C223.467 129.53 225.28 131.98 227.078 134.431C227.426 134.909 227.832 135.359 228.209 135.823C228.325 135.997 228.441 136.171 228.557 136.345C228.629 136.388 228.716 136.417 228.774 136.49C229.833 137.867 230.877 139.259 231.95 140.622C232.443 141.26 233.023 141.84 233.559 142.449C233.559 142.072 233.443 141.826 233.284 141.594L233.24 141.579ZM201.413 51.1864C200.63 51.1864 199.832 51.6214 199.673 52.1434C200.901 51.834 201.94 51.9114 202.79 52.3754C202.471 51.5344 202.036 51.1719 201.413 51.1719V51.1864ZM200.572 53.8979C200.282 53.9269 199.905 54.6084 199.832 55.0434C199.745 55.5509 199.905 56.2759 200.601 56.2179C200.934 56.1889 201.224 55.5799 201.529 55.2319C201.297 54.5359 201.268 53.8254 200.572 53.8979ZM188.609 67.2379C190.248 67.1364 191.712 65.9184 191.654 64.8599C190.683 65.6139 189.668 66.4114 188.609 67.2379Z" fill="#8F8F8F"/>
<path d="M188.609 67.2372C189.668 66.4107 190.683 65.6132 191.654 64.8592C191.712 65.9177 190.248 67.1357 188.609 67.2372ZM200.601 56.2172C199.905 56.2752 199.745 55.5502 199.832 55.0427C199.905 54.6077 200.282 53.9262 200.572 53.8972C201.282 53.8247 201.297 54.5352 201.529 55.2312C201.224 55.5792 200.934 56.1882 200.601 56.2172ZM199.673 52.1572C199.832 51.6352 200.63 51.2002 201.413 51.2002C202.051 51.2002 202.486 51.5482 202.79 52.4037C201.93 51.93 200.891 51.8527 199.673 52.1717V52.1572ZM231.906 140.607C230.833 139.244 229.789 137.852 228.731 136.475C228.687 136.417 228.586 136.373 228.513 136.33C228.397 136.156 228.281 135.982 228.165 135.808C227.788 135.344 227.397 134.894 227.034 134.416C225.236 131.965 223.424 129.515 221.669 127.035C219.654 124.193 219.465 121.119 220.727 117.929C222.162 114.348 223.641 110.795 225.106 107.228C225.193 106.996 225.338 106.793 225.657 106.634C225.57 107.025 225.512 107.431 225.381 107.808C224.192 111.201 223.032 114.594 221.785 117.973C220.596 121.206 220.857 124.179 222.945 127.006C224.888 129.645 226.73 132.357 228.6 135.025C230.137 137.2 231.66 139.389 233.197 141.564C233.356 141.796 233.487 142.043 233.472 142.42C232.936 141.811 232.37 141.231 231.863 140.593L231.906 140.607Z" fill="#C28C70"/>
<path d="M231.659 143.829C224.771 144.438 220.45 143.133 214.766 141.393C214.549 141.32 214.302 141.364 214.07 141.364C214.041 141.364 213.998 141.364 213.969 141.335C213.563 141.074 213.157 140.827 212.765 140.566C212.678 140.508 212.649 140.378 212.722 140.305C212.881 140.131 213.055 139.957 213.041 139.783C213.041 138.797 213.012 137.811 212.838 136.84C212.2 133.287 211.518 129.735 210.837 126.182C210.547 125.124 210.257 124.08 209.967 123.036C209.039 119.744 208.111 116.453 207.183 113.147C207.183 113.118 207.183 113.089 207.183 113.06L205.385 106.114C205.327 105.868 205.269 105.621 205.24 105.375C204.892 102.417 204.312 99.459 204.254 96.501C204.167 91.7305 204.471 86.9454 204.529 82.1604C204.558 79.9709 204.123 77.8394 203.384 75.7659C202.92 74.4755 202.528 73.1414 202.108 71.8364V71.7929L201.586 70.9519C201.122 69.8934 200.658 68.8639 200.194 67.8199C200.194 67.7909 200.179 67.7619 200.194 67.7184C200.208 67.5734 200.237 67.4284 200.266 67.2399C200.281 67.1094 200.15 67.0079 200.02 67.0514C199.73 67.1674 199.498 67.2544 199.266 67.3559C196.859 68.4289 194.466 69.5309 192.045 70.5749C191.334 70.8794 190.566 71.1114 189.812 71.2999C188.405 71.6479 187.651 71.3869 186.781 70.2414C186.723 70.1689 186.636 70.1544 186.564 70.1834C182.808 72.0539 179.125 71.5029 175.515 69.6759C175.399 69.6179 175.384 69.4584 175.486 69.3859C176.747 68.3419 178.038 67.3269 179.241 66.2249C179.85 65.6739 180.459 64.8909 179.966 64.0064C179.502 63.1654 178.574 63.3249 177.777 63.4264C177.197 63.4989 176.617 63.6004 176.051 63.7164C175.877 63.7454 175.776 63.5424 175.892 63.4119C177.4 61.9474 178.835 60.4104 180.474 59.1054C183.055 57.0174 185.81 55.1324 188.478 53.1749H188.507C190.769 51.9279 193.045 50.7099 195.307 49.4919H195.336L196.554 49.1004C196.859 48.9989 197.192 48.8974 197.497 48.7959C197.685 48.7379 198.019 48.6509 198.062 48.6364C198.294 48.5639 198.541 48.4624 198.773 48.4189C198.845 48.4189 198.903 48.4189 198.976 48.4189C200.368 48.4479 201.745 48.4624 203.123 48.4769C203.775 48.8104 204.428 49.1439 205.08 49.4774C205.399 49.6514 205.733 49.8109 206.066 49.9704C206.356 50.1154 206.661 50.2169 206.849 50.5069C207.052 50.8114 207.226 51.1304 207.4 51.4494C207.603 51.8119 207.777 52.1744 207.893 52.5659C208.734 55.5819 209.561 58.5979 210.257 61.6574C211.112 65.4129 211.924 69.1829 214.186 72.3729C215.897 74.7799 217.869 76.9984 219.725 79.3039C220.233 79.9419 220.755 80.5654 221.277 81.1889C221.726 81.7254 222.176 82.2619 222.64 82.7984C227.396 88.3229 231.528 94.2825 234.443 100.996C235.907 104.374 236.951 107.927 238.271 111.349C238.677 112.422 239.315 113.422 239.982 114.365C244.622 120.991 251.002 124.399 259.064 124.631C260.833 124.674 262.602 124.587 264.356 124.428C268.663 124.036 271.795 121.832 274.071 118.178C275.55 115.786 277.102 113.422 278.842 111.233C281.06 108.42 284.12 106.549 287.092 104.621C289.006 103.374 290.906 102.04 292.95 101.068C294.821 100.184 296.88 99.7199 298.852 99.0674C299.011 99.0094 299.214 99.0094 299.374 99.0529C299.664 99.1399 299.954 99.2559 300.229 99.3574C300.316 99.3864 300.36 99.4879 300.331 99.5894C300.215 99.8794 300.142 100.198 299.939 100.387C297.938 102.417 295.879 104.374 293.907 106.419C292.559 107.825 291.283 109.29 290.065 110.798C288.049 113.277 286.744 116.061 286.222 119.251C285.642 122.789 284.613 126.211 282.829 129.358C280.335 133.751 276.652 136.811 271.969 138.594C265.241 141.161 258.339 141.857 251.277 140.175C248.348 139.479 245.622 138.261 243.056 136.68C242.78 136.506 242.519 136.347 242.229 136.187C242.186 136.173 242.142 136.158 242.07 136.144C241.954 136.144 241.867 136.216 241.867 136.332C241.867 136.332 241.867 136.332 241.867 136.347C241.939 137.666 241.417 138.957 240.446 139.856C238.793 141.378 235.82 143.466 231.557 143.843L231.659 143.829Z" fill="#C28C70"/>
<path d="M179.488 66.2059C178.212 67.3659 176.849 68.4389 175.53 69.5409C173.79 68.7724 173.311 67.6414 173.92 65.8724C174.065 65.6404 174.21 65.4229 174.37 65.1909C174.819 64.7269 175.269 64.2484 175.718 63.7844C176.487 63.6539 177.255 63.4944 178.024 63.3929C178.821 63.2914 179.749 63.1319 180.213 63.9729C180.706 64.8574 180.112 65.6259 179.488 66.1914V66.2059Z" fill="#202020"/>
<path d="M205.418 104.21C205.418 104.21 205.418 104.181 205.418 104.167C205.07 101.209 204.49 98.2652 204.446 95.3072C204.359 90.5367 205.055 90.0292 205.113 85.2442C205.142 83.0547 205.113 77.9797 203.982 73.8037C203.098 70.5847 201.43 68.0472 200.705 67.0467C200.546 66.8147 200.183 66.8582 200.082 67.1192C197.602 73.5427 195.949 76.6892 193.383 86.9552C190.816 97.2212 191.208 110.59 194.108 118.377C197.008 126.163 201.793 131.949 207.81 136.197C209.304 137.256 210.913 138.155 212.479 139.112C212.624 139.199 212.827 139.17 212.943 139.039C213.074 138.894 213.204 138.749 213.204 138.59C213.204 137.604 213.175 136.618 213.001 135.646C212.363 132.094 211.682 128.541 211 124.989C211 124.989 211 124.974 211 124.96C210.71 123.916 210.42 122.872 210.13 121.828C209.202 118.522 208.274 115.201 207.332 111.895L205.403 104.181L205.418 104.21Z" fill="#F9F0E4"/>
<path d="M247.512 148.002C247.512 148.002 247.455 148.002 247.426 147.988C247.455 147.988 247.483 147.988 247.512 148.002Z" fill="#868686"/>
<path d="M247.512 148.019C247.512 148.019 247.455 148.019 247.426 148.005C247.455 148.005 247.483 148.005 247.512 148.019Z" fill="#8F8F8F"/>
<path d="M217.583 96.2332L209.622 90.3027L208.854 96.3492L207.882 101.439L207.012 104.324L205.896 107.311L204.779 108.573L203.01 109.631L199.153 111.067L198.385 111.705V111.995L198.892 112.444L200.212 112.691H202.938L203.054 112.923L202.532 114.286L202.024 116.664L202.082 117.693L202.503 118.215L203.228 117.983L203.808 117.403L204.736 115.257L205.229 113.256L205.939 114.242L207.679 116.403L208.448 116.707L209.013 116.258L208.897 115.199L207.476 111.951L207.52 110.922L208.448 109.733L210.55 106.934L215.756 99.5972L217.583 96.2332Z" fill="#C28C70"/>
<path d="M217.815 96.2186C217.815 96.2186 217.815 96.3056 217.801 96.3491C215.974 99.8726 213.697 103.092 211.334 106.253C210.565 107.268 209.753 108.239 208.97 109.24C208.782 109.515 208.622 109.849 208.376 110.081C207.52 110.82 207.419 111.676 207.897 112.647C208.303 113.474 208.709 114.315 209.043 115.17C209.188 115.533 209.275 115.953 209.217 116.33C209.101 117.012 208.506 117.287 207.999 116.852C207.274 116.214 206.694 115.417 206.07 114.663C205.896 114.445 205.751 114.199 205.563 113.851C205.49 113.72 205.287 113.749 205.244 113.894C205.012 114.735 204.823 115.46 204.62 116.185C204.62 116.185 204.62 116.214 204.606 116.229C204.359 116.678 204.171 117.186 203.823 117.563C203.504 117.911 203.04 118.346 202.634 118.346C201.981 118.346 201.749 117.679 201.836 117.113C202.01 116.011 202.271 114.909 202.518 113.822C202.561 113.619 202.663 113.416 202.779 113.155C202.837 113.039 202.75 112.908 202.619 112.908C202.025 112.908 201.517 112.923 201.01 112.908C200.343 112.879 199.661 112.865 199.023 112.705C198.704 112.618 198.443 112.314 198.168 112.067C198.11 112.009 198.095 111.908 198.139 111.835C198.356 111.545 198.53 111.183 198.82 111.052C199.908 110.559 201.039 110.182 202.141 109.762C202.373 109.675 202.605 109.544 202.837 109.443C202.837 109.443 202.837 109.443 202.851 109.443C205.041 108.761 206.012 107.007 206.65 105.02C208.1 100.467 208.825 95.7691 209.318 91.0276C209.347 90.7666 209.376 90.5201 209.449 90.2591C209.507 90.0561 209.811 90.1141 209.797 90.3171C209.362 94.7396 208.709 99.1331 207.52 103.425C207.143 104.788 206.549 106.093 205.983 107.384C205.49 108.544 204.504 109.211 203.359 109.66C201.981 110.197 200.589 110.704 199.226 111.255C198.994 111.357 198.806 111.56 198.617 111.734C198.545 111.806 198.545 111.922 198.617 111.995C198.849 112.198 199.067 112.43 199.313 112.459C200.343 112.546 201.387 112.517 202.431 112.517C202.663 112.517 202.895 112.488 203.199 112.459C203.33 112.459 203.431 112.589 203.373 112.705C203.04 113.43 202.706 114.039 202.532 114.692C202.315 115.518 202.242 116.403 202.199 117.258C202.199 117.505 202.431 117.94 202.634 117.983C202.851 118.041 203.286 117.824 203.417 117.606C203.808 116.925 204.142 116.214 204.388 115.489C204.664 114.721 204.867 113.938 205.113 113.039C205.157 112.894 205.345 112.865 205.432 112.995C205.998 113.88 206.505 114.677 207.042 115.446C207.288 115.794 207.593 116.113 207.941 116.359C208.129 116.49 208.492 116.504 208.724 116.417C208.825 116.374 208.869 115.939 208.796 115.721C208.55 115.04 208.245 114.387 207.955 113.72C207.781 113.3 207.593 112.865 207.433 112.43C207.085 111.502 207.114 110.675 207.97 110.008C208.274 109.762 208.521 109.414 208.782 109.124C209.985 107.5 211.203 105.876 212.378 104.223C214.205 101.642 216.119 99.1186 217.438 96.2331C217.511 96.0591 217.772 96.0881 217.801 96.2766L217.815 96.2186Z" fill="#737373"/>
<path d="M201.531 55.2297C201.226 55.5777 200.936 56.1867 200.603 56.2157C199.907 56.2737 199.747 55.5487 199.834 55.0412C199.907 54.6062 200.284 53.9247 200.574 53.8957C201.284 53.8232 201.299 54.5337 201.531 55.2297Z" fill="#202020"/>
<path d="M201.416 51.1864C200.633 51.1864 199.835 51.6214 199.676 52.1434C200.903 51.834 201.943 51.9114 202.793 52.3754C202.474 51.5344 202.039 51.1719 201.416 51.1719V51.1864Z" fill="black"/>
<path d="M200.574 53.8953C200.284 53.9243 199.907 54.6058 199.834 55.0408C199.747 55.5483 199.907 56.2733 200.603 56.2153C200.936 56.1863 201.415 55.8528 201.531 55.2293C201.647 54.6058 201.27 53.8228 200.574 53.8953Z" fill="black"/>
<path d="M186.525 70.1964C188.164 70.0949 189.628 68.8769 189.57 67.8184C188.599 68.5724 187.584 69.3699 186.525 70.1964Z" fill="black"/>
<path d="M202.805 52.3892C201.945 51.9155 200.905 51.8382 199.688 52.1572C199.847 51.6352 200.644 51.2002 201.427 51.2002C202.065 51.2002 202.5 51.5482 202.805 52.4037V52.3892Z" fill="#707070"/>
<path d="M195.614 159.775C194.527 160.732 193.599 161.53 192.656 162.356C192.729 161.298 194.121 160.022 195.614 159.775Z" fill="#1B1B1B"/>
<path d="M196.744 160.834C196.004 161.283 195.265 161.747 194.424 162.255C194.612 161.283 195.569 160.689 196.744 160.834Z" fill="#1E1E1E"/>
<path d="M239.489 155.48C239.591 156.626 239.692 157.786 239.808 158.931C239.944 160.246 239.383 161.068 238.126 161.396C237.793 161.483 237.459 161.585 237.111 161.643C231.253 162.469 225.41 163.325 219.537 164.108C217.464 164.383 217.449 164.311 217.971 162.295C219.189 159.903 221.321 158.583 223.684 157.612C225.279 156.959 226.961 156.524 228.6 155.988C230.383 155.625 232.167 155.263 233.936 154.9C233.921 154.697 233.965 154.436 233.863 154.277C233.602 153.856 233.283 153.494 232.979 153.102C232.631 152.682 232.283 152.261 231.92 151.841C230.108 149.666 228.252 147.505 226.483 145.301C223.786 141.966 221.132 138.602 218.479 135.238C215.129 130.99 213.23 126.248 213.578 120.767C213.65 119.593 213.969 118.433 214.187 117.258C214.419 117.534 214.723 117.78 214.883 118.099C218.276 124.624 223.148 129.685 229.716 133.049C231.442 133.933 233.269 134.615 235.038 135.398C235.545 135.63 236.053 135.862 236.575 136.094C236.937 138.182 237.343 140.255 237.648 142.343C238.286 146.722 238.866 151.116 239.475 155.509L239.489 155.48Z" fill="#C28C70"/>
<path d="M221.816 160.208C220.873 161.31 220.076 162.239 219.249 163.181C219.177 162.123 220.38 160.658 221.816 160.208Z" fill="#1B1B1B"/>
<path d="M223.108 161.109C222.441 161.66 221.774 162.225 221.02 162.849C221.078 161.863 221.933 161.138 223.108 161.109Z" fill="#1E1E1E"/>
<path d="M207.666 52.2582C208.362 52.3597 209.087 52.2147 209.696 51.8377C211.653 50.6342 215.931 48.1257 216.409 47.7342C221.035 43.9352 223.036 39.1792 223.065 33.7562C223.065 31.3347 222.528 31.0302 220.049 31.8422C211.32 34.7132 205.534 40.1507 203.287 48.6622C203.243 48.8072 204.113 50.0397 204.679 50.9387C205.056 51.5332 205.679 51.9392 206.433 52.0552L207.666 52.2437V52.2582Z" fill="#C28C70"/>
<path d="M208.478 49.9506C208.826 49.9216 209.13 49.7621 209.435 49.5301C210.435 48.7906 212.61 47.2536 212.857 47.0216C215.206 44.8756 216.235 42.5556 216.235 40.1631C216.235 39.0901 215.96 39.0176 214.698 39.6266C210.247 41.8016 205.723 44.4986 206.158 48.7906C206.201 49.2546 206.433 49.4431 206.709 49.7766C206.897 49.9941 207.448 50.0086 207.825 49.9941L208.463 49.9506H208.478Z" fill="#FFFFFD"/>
<path d="M232.23 139.841C231.969 139.232 231.273 138.232 230.823 137.579C228.518 134.317 226.241 131.025 223.936 127.748C222.167 125.24 220.18 122.673 219.977 119.585C219.818 117.598 220.369 115.626 220.992 113.756C221.819 111.363 222.689 109 223.501 106.607C223.776 105.81 224.153 104.563 224.066 104.273C223.791 104.055 222.645 106.955 222.37 107.608C221.471 109.812 220.528 112.001 219.702 114.234C218.817 116.598 218.31 119.208 219.064 121.673C220.05 124.877 222.486 127.589 224.4 130.344C226.778 133.49 229.141 136.651 231.693 139.624C232.143 140.088 232.331 140.175 232.215 139.87L232.23 139.841Z" fill="#737373"/>
<path d="M120.207 123.222C120.303 123.301 120.39 123.422 120.503 123.457C122.347 124.136 124.157 124.91 125.862 125.902C126.027 125.998 126.253 125.989 126.445 126.032C128.133 124.867 129.838 123.727 131.499 122.526C131.978 122.178 132.387 122.126 132.883 122.378C133.344 122.605 133.805 122.848 134.283 123.031C134.449 123.092 134.675 122.979 134.875 122.944C134.832 122.752 134.849 122.509 134.727 122.396C134.379 122.056 133.979 121.778 133.596 121.474C133.474 121.378 133.335 121.3 133.205 121.213C133.205 121.152 133.196 121.091 133.187 121.03C133.387 121.004 133.587 121.004 133.779 120.943C134.283 120.778 134.788 120.612 135.267 120.386C135.458 120.299 135.554 120.029 135.693 119.838C135.467 119.707 135.24 119.446 135.023 119.464C134.518 119.499 134.014 119.655 133.518 119.777C133.318 119.829 133.135 119.925 132.874 120.029C132.9 119.551 132.926 119.133 132.935 118.724C132.935 118.463 132.935 118.185 132.874 117.933C132.831 117.776 132.665 117.646 132.552 117.506C132.413 117.619 132.213 117.706 132.143 117.846C131.882 118.411 131.639 118.977 131.43 119.568C131.082 120.577 130.429 121.221 129.411 121.569C127.541 122.204 125.601 122.526 123.661 122.796C122.504 122.953 121.347 123.083 120.189 123.222H120.207Z" fill="#D3A272"/>
<path d="M116.918 158.097C116.953 158.689 116.988 159.272 117.014 159.863C117.043 160.536 117.385 160.907 118.041 160.977C118.215 160.994 118.397 161.02 118.571 161.02C121.582 161.012 124.592 161.003 127.602 160.968C128.663 160.96 128.663 160.916 128.255 159.942C127.463 158.828 126.297 158.323 125.036 158.002C124.183 157.793 123.304 157.688 122.434 157.54C121.512 157.488 120.59 157.436 119.668 157.384C119.668 157.279 119.624 157.149 119.668 157.062C119.772 156.836 119.903 156.627 120.024 156.409C120.172 156.175 120.32 155.931 120.459 155.696C121.216 154.469 121.982 153.243 122.721 151.999C123.835 150.119 124.922 148.231 126.01 146.344C127.385 143.96 127.985 141.428 127.411 138.696C127.289 138.113 127.037 137.548 126.845 136.974C126.749 137.13 126.61 137.278 126.549 137.452C125.323 140.984 123.235 143.89 120.181 146.074C119.381 146.648 118.511 147.127 117.675 147.649C117.432 147.805 117.197 147.953 116.953 148.11C116.927 149.188 116.875 150.259 116.875 151.337C116.875 153.591 116.901 155.844 116.927 158.097H116.918Z" fill="#D3A272"/>
<path d="M123.055 103.627C122.724 103.505 122.437 103.261 122.254 102.939C121.68 101.922 120.401 99.7465 120.288 99.4594C119.174 96.6319 119.461 94.0132 120.793 91.5946C121.384 90.5158 121.706 90.5158 122.602 91.4902C125.769 94.9267 126.996 98.7808 125.891 103.122C125.873 103.2 125.177 103.531 124.708 103.783C124.394 103.957 124.012 103.975 123.655 103.844L123.055 103.627Z" fill="#AD745E"/>
<path d="M106.84 150.425C107.11 150.112 107.397 149.816 107.649 149.494C108.188 148.798 108.719 148.085 109.258 147.389C109.285 147.354 109.328 147.337 109.372 147.319C109.432 147.232 109.485 147.145 109.546 147.049C109.737 146.815 109.937 146.588 110.12 146.345C111.025 145.092 111.947 143.848 112.834 142.578C113.852 141.125 113.948 139.559 113.295 137.949C112.564 136.131 111.799 134.321 111.051 132.512C110.998 132.399 110.929 132.286 110.764 132.207C110.807 132.407 110.842 132.616 110.903 132.808C111.512 134.53 112.112 136.261 112.756 137.975C113.374 139.62 113.234 141.133 112.182 142.569C111.199 143.909 110.268 145.301 109.319 146.667C108.545 147.78 107.771 148.894 106.996 150.007C106.918 150.121 106.849 150.251 106.857 150.442L106.84 150.425ZM122.308 104.55C122.743 104.312 123.271 104.272 123.892 104.428C123.814 104.158 123.405 103.941 123.004 103.941C122.683 103.941 122.465 104.124 122.3 104.55H122.308ZM122.961 105.985C123.118 106.159 123.265 106.473 123.439 106.481C123.796 106.516 123.874 106.142 123.831 105.881C123.796 105.664 123.605 105.316 123.457 105.298C123.1 105.263 123.091 105.62 122.97 105.977L122.961 105.985ZM127.998 110.866C127.972 111.406 128.72 112.023 129.556 112.067C129.016 111.649 128.494 111.249 127.998 110.866Z" fill="#8F8F8F"/>
<path d="M127.998 110.866C128.494 111.249 129.016 111.649 129.555 112.067C128.72 112.023 127.972 111.397 127.998 110.866ZM122.961 105.985C123.083 105.629 123.091 105.272 123.448 105.307C123.596 105.324 123.787 105.672 123.822 105.89C123.866 106.151 123.787 106.516 123.431 106.49C123.257 106.473 123.117 106.168 122.952 105.994L122.961 105.985ZM122.308 104.55C122.465 104.115 122.691 103.941 123.013 103.941C123.413 103.941 123.813 104.158 123.9 104.428C123.274 104.272 122.746 104.312 122.317 104.55H122.308ZM106.84 150.425C106.84 150.234 106.901 150.103 106.979 149.99C107.753 148.876 108.527 147.763 109.302 146.649C110.259 145.283 111.181 143.9 112.164 142.552C113.217 141.107 113.347 139.594 112.738 137.958C112.103 136.244 111.503 134.521 110.885 132.79C110.816 132.599 110.789 132.39 110.746 132.19C110.911 132.268 110.981 132.381 111.033 132.494C111.79 134.304 112.547 136.114 113.278 137.932C113.93 139.55 113.834 141.116 112.817 142.56C111.929 143.83 111.016 145.075 110.102 146.327C109.928 146.571 109.719 146.797 109.528 147.032C109.467 147.119 109.415 147.206 109.354 147.302C109.319 147.328 109.267 147.345 109.241 147.371C108.701 148.076 108.179 148.781 107.631 149.477C107.379 149.799 107.092 150.094 106.822 150.408L106.84 150.425Z" fill="#D3A272"/>
<path d="M107.782 151.129C111.288 151.425 113.481 150.755 116.378 149.859C116.482 149.824 116.613 149.842 116.735 149.842C116.752 149.842 116.769 149.842 116.787 149.824C116.987 149.694 117.196 149.563 117.396 149.433C117.439 149.407 117.448 149.337 117.413 149.302C117.335 149.215 117.248 149.128 117.248 149.041C117.248 148.545 117.257 148.032 117.344 147.545C117.657 145.735 118.005 143.926 118.335 142.116C118.483 141.577 118.623 141.046 118.77 140.507C119.24 138.827 119.701 137.148 120.171 135.469C120.171 135.452 120.171 135.434 120.171 135.417L121.076 131.876C121.102 131.754 121.128 131.624 121.146 131.493C121.32 129.988 121.607 128.483 121.633 126.978C121.668 124.551 121.502 122.115 121.467 119.687C121.45 118.574 121.668 117.486 122.042 116.434C122.277 115.772 122.468 115.094 122.685 114.433V114.407L122.946 113.972C123.181 113.432 123.416 112.91 123.651 112.379C123.651 112.362 123.66 112.345 123.651 112.327C123.642 112.258 123.625 112.179 123.616 112.084C123.608 112.014 123.677 111.962 123.738 111.988C123.886 112.049 123.999 112.092 124.121 112.145C125.348 112.684 126.566 113.241 127.801 113.771C128.166 113.928 128.549 114.041 128.941 114.137C129.663 114.311 130.046 114.172 130.481 113.589C130.507 113.554 130.55 113.545 130.594 113.563C132.508 114.502 134.387 114.215 136.214 113.284C136.275 113.258 136.284 113.18 136.231 113.136C135.588 112.606 134.926 112.092 134.317 111.536C134.004 111.257 133.7 110.866 133.952 110.413C134.187 109.987 134.657 110.065 135.066 110.117C135.361 110.152 135.657 110.204 135.944 110.257C136.031 110.274 136.083 110.17 136.023 110.109C135.257 109.369 134.517 108.586 133.682 107.925C132.36 106.872 130.959 105.915 129.593 104.915H129.576C128.419 104.288 127.262 103.671 126.105 103.053H126.087L125.461 102.853C125.304 102.801 125.139 102.749 124.982 102.696C124.887 102.67 124.713 102.618 124.695 102.618C124.582 102.583 124.452 102.531 124.33 102.514C124.295 102.514 124.26 102.514 124.225 102.514C123.521 102.531 122.816 102.54 122.111 102.557C121.781 102.731 121.45 102.905 121.119 103.07C120.954 103.157 120.789 103.244 120.624 103.323C120.476 103.401 120.319 103.453 120.223 103.592C120.119 103.749 120.032 103.914 119.945 104.071C119.841 104.254 119.754 104.436 119.693 104.636C119.266 106.168 118.857 107.708 118.501 109.265C118.066 111.179 117.666 113.102 116.517 114.728C115.647 115.955 114.647 117.095 113.707 118.269C113.446 118.591 113.185 118.913 112.924 119.226C112.698 119.505 112.463 119.774 112.237 120.053C109.827 122.872 107.73 125.917 106.26 129.336C105.52 131.058 104.998 132.868 104.328 134.617C104.12 135.156 103.798 135.669 103.467 136.157C101.118 139.532 97.8731 141.281 93.7754 141.411C92.8793 141.437 91.9745 141.394 91.0784 141.316C88.886 141.124 87.2852 140.011 86.1281 138.149C85.3712 136.94 84.5795 135.739 83.6921 134.617C82.5524 133.19 80.9951 132.242 79.4813 131.267C78.4982 130.641 77.5412 129.962 76.4885 129.466C75.5402 129.014 74.4875 128.788 73.4783 128.457C73.4 128.431 73.2956 128.431 73.2173 128.457C73.0694 128.501 72.9302 128.561 72.7823 128.614C72.7388 128.631 72.7127 128.683 72.7301 128.727C72.7823 128.875 72.8258 129.031 72.9302 129.136C73.9481 130.162 75.0008 131.154 76.01 132.198C76.6973 132.911 77.3498 133.66 77.9762 134.417C79.0115 135.669 79.6727 137.087 79.9424 138.714C80.2469 140.515 80.7776 142.255 81.6911 143.847C82.97 146.083 84.8405 147.632 87.233 148.528C90.6608 149.824 94.1756 150.164 97.7687 149.294C99.2564 148.928 100.64 148.31 101.945 147.501C102.084 147.414 102.223 147.327 102.362 147.249C102.38 147.24 102.406 147.232 102.441 147.232C102.493 147.232 102.545 147.266 102.545 147.327C102.545 147.327 102.545 147.327 102.545 147.336C102.51 148.006 102.78 148.667 103.276 149.12C104.12 149.894 105.633 150.947 107.8 151.129H107.782Z" fill="#D3A272"/>
<path d="M134.199 111.533C134.851 112.124 135.547 112.664 136.217 113.22C137.096 112.829 137.348 112.255 137.026 111.35C136.948 111.237 136.878 111.124 136.8 111.011C136.574 110.776 136.339 110.532 136.113 110.297C135.721 110.228 135.33 110.149 134.938 110.106C134.529 110.054 134.06 109.975 133.825 110.402C133.572 110.854 133.886 111.245 134.19 111.524L134.199 111.533Z" fill="#202020"/>
<path d="M121.062 130.931C121.062 130.931 121.062 130.913 121.062 130.905C121.236 129.399 121.523 127.903 121.54 126.398C121.575 123.971 121.218 123.71 121.183 121.282C121.166 120.169 121.166 117.585 121.74 115.453C122.184 113.818 123.028 112.521 123.393 112.008C123.48 111.895 123.663 111.912 123.715 112.043C124.985 115.305 125.838 116.906 127.16 122.126C128.483 127.346 128.309 134.15 126.847 138.117C125.386 142.084 122.958 145.033 119.905 147.208C119.148 147.748 118.33 148.209 117.529 148.696C117.451 148.74 117.355 148.731 117.295 148.661C117.225 148.583 117.164 148.513 117.164 148.435C117.164 147.939 117.173 147.426 117.26 146.939C117.573 145.129 117.921 143.319 118.252 141.51C118.252 141.51 118.252 141.501 118.252 141.492C118.399 140.962 118.539 140.431 118.687 139.9C119.156 138.212 119.617 136.525 120.087 134.837L121.053 130.905L121.062 130.931Z" fill="#F9EAD9"/>
<path d="M99.7246 153.289C99.7246 153.289 99.7505 153.289 99.7678 153.281C99.7505 153.281 99.7419 153.281 99.7246 153.281V153.289Z" fill="#868686"/>
<path d="M99.7246 153.289C99.7246 153.289 99.7505 153.289 99.7678 153.281C99.7505 153.281 99.7419 153.281 99.7246 153.281V153.289Z" fill="#8F8F8F"/>
<path d="M117.562 130.845L116.701 125.868L119.624 126.912L122.156 127.643L123.67 127.922L125.279 128.096L126.106 127.887L126.993 127.33L128.542 125.903L129.003 125.703L129.133 125.773L129.229 126.103L129.029 126.765L128.403 128L128.481 128.104L129.22 128.183L130.412 128.496L130.865 128.766L131.004 129.079L130.734 129.348L130.334 129.479L129.151 129.409L128.133 129.174L128.42 129.714L128.994 131.001L128.951 131.419L128.62 131.576L128.168 131.28L127.019 129.888L126.541 129.67L125.793 129.818L124.035 130.123L119.511 130.793L117.562 130.845Z" fill="#D3A272"/>
<path d="M117.5 130.947C117.5 130.947 117.543 130.973 117.561 130.973C119.579 130.955 121.563 130.668 123.546 130.32C124.181 130.207 124.816 130.068 125.443 129.938C125.617 129.911 125.799 129.92 125.956 129.859C126.495 129.642 126.896 129.79 127.235 130.233C127.522 130.607 127.8 130.982 128.114 131.338C128.244 131.486 128.418 131.625 128.601 131.686C128.931 131.791 129.201 131.582 129.114 131.251C128.992 130.773 128.766 130.329 128.566 129.877C128.505 129.746 128.427 129.624 128.322 129.459C128.279 129.389 128.34 129.311 128.418 129.32C128.853 129.407 129.227 129.485 129.601 129.563H129.619C129.88 129.555 130.149 129.581 130.402 129.52C130.637 129.459 130.941 129.346 131.037 129.163C131.185 128.867 130.941 128.606 130.663 128.519C130.123 128.337 129.567 128.206 129.01 128.067C128.905 128.041 128.792 128.041 128.644 128.032C128.583 128.032 128.54 127.963 128.566 127.902C128.705 127.632 128.827 127.406 128.931 127.171C129.071 126.866 129.227 126.553 129.297 126.223C129.332 126.057 129.253 125.875 129.201 125.692C129.192 125.648 129.149 125.622 129.105 125.631C128.923 125.657 128.714 125.657 128.592 125.762C128.122 126.136 127.687 126.562 127.244 126.971C127.148 127.058 127.044 127.136 126.939 127.214C126.121 128.05 125.103 128.084 124.059 127.919C121.658 127.528 119.361 126.771 117.099 125.901C116.978 125.857 116.847 125.814 116.717 125.779C116.612 125.753 116.569 125.909 116.664 125.953C118.77 126.771 120.91 127.493 123.129 127.937C123.833 128.076 124.564 128.111 125.277 128.154C125.921 128.198 126.452 127.902 126.913 127.484C127.47 126.98 128.027 126.466 128.592 125.979C128.688 125.892 128.827 125.857 128.958 125.814C129.01 125.796 129.062 125.822 129.071 125.875C129.105 126.023 129.166 126.179 129.123 126.292C128.923 126.779 128.67 127.249 128.436 127.719C128.383 127.823 128.314 127.928 128.235 128.058C128.201 128.119 128.235 128.189 128.305 128.198C128.705 128.215 129.062 128.198 129.401 128.276C129.828 128.372 130.245 128.537 130.645 128.711C130.758 128.763 130.898 128.972 130.88 129.076C130.854 129.189 130.663 129.337 130.532 129.346C130.141 129.363 129.732 129.346 129.34 129.302C128.931 129.25 128.523 129.155 128.061 129.068C127.983 129.05 127.931 129.137 127.966 129.198C128.235 129.659 128.479 130.077 128.705 130.494C128.81 130.686 128.879 130.903 128.914 131.112C128.931 131.234 128.853 131.399 128.757 131.477C128.714 131.512 128.505 131.434 128.427 131.347C128.175 131.077 127.948 130.79 127.713 130.503C127.557 130.32 127.409 130.138 127.252 129.964C126.913 129.598 126.53 129.416 126.026 129.65C125.843 129.737 125.634 129.764 125.434 129.816C124.416 129.981 123.398 130.164 122.38 130.32C120.788 130.555 119.205 130.842 117.587 130.773C117.491 130.773 117.447 130.886 117.526 130.947H117.5Z" fill="#737373"/>
<path d="M122.965 105.984C123.121 106.158 123.269 106.471 123.443 106.48C123.8 106.515 123.878 106.141 123.835 105.88C123.8 105.662 123.609 105.314 123.461 105.297C123.104 105.262 123.095 105.619 122.974 105.975L122.965 105.984Z" fill="#202020"/>
<path d="M122.306 104.55C122.741 104.312 123.268 104.272 123.889 104.428C123.811 104.158 123.402 103.941 123.002 103.941C122.68 103.941 122.462 104.124 122.297 104.55H122.306Z" fill="black"/>
<path d="M122.965 106.161C123.043 106.553 123.348 106.77 123.557 106.788C124 106.823 124.105 106.362 124.044 106.04C124 105.77 123.757 105.335 123.565 105.309C123.113 105.265 122.878 105.761 122.956 106.161H122.965Z" fill="black"/>
<path d="M129.071 112.369C129.045 112.909 129.793 113.526 130.628 113.57C130.089 113.152 129.567 112.752 129.071 112.369Z" fill="black"/>
<path d="M122.306 104.55C122.741 104.312 123.268 104.272 123.889 104.428C123.811 104.158 123.402 103.941 123.002 103.941C122.68 103.941 122.462 104.124 122.297 104.55H122.306Z" fill="#707070"/>
<path d="M126.172 159.183C126.729 159.67 127.198 160.07 127.686 160.496C127.642 159.957 126.937 159.313 126.172 159.183Z" fill="#1B1B1B"/>
<path d="M125.582 159.727C125.956 159.953 126.339 160.188 126.765 160.449C126.661 159.962 126.182 159.649 125.582 159.727Z" fill="#1E1E1E"/>
<path d="M103.822 157.073C103.769 157.656 103.726 158.248 103.665 158.831C103.601 159.503 103.888 159.921 104.526 160.083C104.7 160.127 104.866 160.179 105.04 160.205C108.024 160.614 110.999 161.04 113.983 161.432C115.036 161.571 115.045 161.536 114.775 160.51C114.148 159.3 113.061 158.631 111.86 158.143C111.051 157.813 110.19 157.595 109.355 157.326C108.45 157.143 107.545 156.96 106.632 156.777C106.64 156.673 106.623 156.543 106.666 156.456C106.797 156.247 106.962 156.055 107.119 155.855C107.302 155.638 107.476 155.429 107.65 155.211C108.572 154.098 109.503 153.002 110.407 151.871C111.773 150.165 113.122 148.452 114.462 146.729C116.158 144.563 117.115 142.144 116.924 139.351C116.88 138.751 116.715 138.159 116.611 137.568C116.489 137.707 116.341 137.838 116.254 137.994C114.54 141.318 112.069 143.901 108.737 145.624C107.858 146.076 106.936 146.433 106.031 146.825C105.77 146.946 105.509 147.06 105.257 147.181C105.074 148.243 104.874 149.295 104.726 150.366C104.413 152.601 104.117 154.837 103.822 157.065V157.073Z" fill="#D3A272"/>
<path d="M112.824 159.449C113.311 160.006 113.712 160.475 114.138 160.963C114.173 160.423 113.564 159.684 112.824 159.449Z" fill="#1B1B1B"/>
<path d="M112.174 159.896C112.513 160.174 112.861 160.461 113.244 160.775C113.218 160.27 112.783 159.905 112.174 159.896Z" fill="#1E1E1E"/>
<path d="M119.83 104.483C119.482 104.544 119.108 104.466 118.795 104.275C117.794 103.666 115.619 102.395 115.375 102.204C113.018 100.281 111.982 97.8626 111.965 95.1047C111.956 93.878 112.235 93.7127 113.496 94.1216C117.942 95.5658 120.9 98.3237 122.057 102.656C122.074 102.735 121.639 103.361 121.352 103.813C121.161 104.118 120.839 104.327 120.465 104.388L119.839 104.492L119.83 104.483Z" fill="#D3A272"/>
<path d="M119.416 103.324C119.234 103.315 119.086 103.228 118.929 103.107C118.416 102.732 117.311 101.949 117.181 101.836C115.98 100.749 115.458 99.5744 115.449 98.3477C115.449 97.8083 115.588 97.7648 116.232 98.0693C118.503 99.1655 120.808 100.531 120.591 102.715C120.565 102.95 120.452 103.046 120.313 103.22C120.217 103.333 119.938 103.341 119.747 103.333L119.425 103.315L119.416 103.324Z" fill="#FFFFFD"/>
<path d="M107.486 149.114C107.425 149.271 107.529 149.227 107.756 148.992C109.052 147.479 110.244 145.86 111.444 144.26C112.41 142.859 113.654 141.476 114.141 139.84C114.524 138.587 114.254 137.256 113.802 136.056C113.376 134.916 112.897 133.811 112.436 132.689C112.288 132.358 111.714 130.888 111.566 130.992C111.523 131.14 111.723 131.775 111.862 132.175C112.28 133.393 112.732 134.594 113.15 135.812C113.471 136.769 113.75 137.761 113.68 138.779C113.585 140.353 112.575 141.667 111.679 142.946C110.513 144.616 109.356 146.295 108.191 147.957C107.964 148.288 107.616 148.792 107.486 149.106V149.114Z" fill="#737373"/>
</svg>
