<svg width="38" height="16" viewBox="0 0 38 16" fill="none" xmlns="http://www.w3.org/2000/svg">
<g clip-path="url(#clip0_264_8548)">
<path fill-rule="evenodd" clip-rule="evenodd" d="M30.0887 16.0059H7.92694C3.55369 16.0059 0.0078125 12.4238 0.0078125 8.00586C0.0078125 3.58795 3.55369 0.00585938 7.92694 0.00585938H30.1084C34.4816 0.00585938 38.0275 3.58795 38.0275 8.00586C38.0275 12.4238 34.4619 16.0059 30.0887 16.0059Z" fill="#FFEB00"/>
<path fill-rule="evenodd" clip-rule="evenodd" d="M8.88642 3.8457C6.5028 3.8457 4.57227 5.37804 4.57227 7.28849C4.57227 8.50242 5.37994 9.57705 6.5816 10.194L6.16791 11.7462C6.14821 11.786 6.16791 11.8457 6.20731 11.8855C6.22701 11.9054 6.26641 11.9253 6.28611 11.9253C6.30581 11.9253 6.3452 11.9054 6.3649 11.9054L8.11814 10.7114C8.37424 10.7512 8.63033 10.7711 8.90612 10.7711C11.2897 10.7711 13.2203 9.21884 13.2203 7.32829C13.2203 5.37804 11.2897 3.8457 8.88642 3.8457Z" fill="black"/>
<path d="M16.865 10.1516V12.3804H15.2891V4.16153H16.3922L16.5892 4.67894C16.9241 4.34063 17.4363 3.98242 18.244 3.98242C19.7805 3.98242 20.5094 5.13665 20.5094 7.0272C20.5094 8.99735 19.3865 10.2511 17.7712 10.2511C17.456 10.271 17.2196 10.2511 16.865 10.1516ZM16.865 5.49486V9.03715C16.9438 9.05705 17.1605 9.07695 17.3772 9.07695C18.5001 9.07695 18.9334 8.28093 18.9334 7.0272C18.9334 5.93267 18.6379 5.27595 17.7515 5.27595C17.4363 5.27595 17.1211 5.35556 16.865 5.49486Z" fill="black"/>
<path d="M23.9173 6.48915H24.8038V6.29014C24.8038 5.63342 24.4295 5.33492 23.7991 5.33492C23.3066 5.33492 22.696 5.47422 22.1838 5.73293L21.7504 4.6782C22.302 4.28019 23.1688 4.02148 23.937 4.02148C25.4342 4.02148 26.2615 4.8175 26.2615 6.34984V10.111H25.1584L25.0008 9.61352C24.3704 10.0712 23.7794 10.2702 23.2672 10.2702C22.1247 10.2702 21.4746 9.57372 21.4746 8.39959C21.4746 7.14586 22.3217 6.48915 23.9173 6.48915ZM24.8235 8.5787V7.48417H24.0946C23.2869 7.48417 22.8733 7.78268 22.8733 8.35979C22.8733 8.7976 23.09 9.01651 23.5627 9.01651C23.9961 9.03641 24.5477 8.8175 24.8235 8.5787Z" fill="black"/>
<path d="M31.0295 9.4956C30.478 10.9682 29.8279 12.0429 28.8626 12.6399L27.8973 11.7444C28.4489 11.2468 28.8626 10.7692 29.1975 10.1324L27.1094 4.38117L28.6656 3.96326L30.0052 8.61998L31.325 3.94336L32.8616 4.38117L31.0295 9.4956Z" fill="black"/>
</g>
<defs>
<clipPath id="clip0_264_8548">
<rect width="38" height="16" fill="white"/>
</clipPath>
</defs>
</svg>
