<svg width="24" height="24" viewBox="0 0 24 24" fill="none" xmlns="http://www.w3.org/2000/svg">
<path d="M8.34724 4.24777C8.6953 4.56067 8.72343 5.09155 8.41053 5.43961L5.8792 8.2522C5.7245 8.42447 5.50653 8.52643 5.27449 8.52994C5.04245 8.53346 4.82096 8.44557 4.65572 8.28384L3.24591 6.87755C2.91894 6.54707 2.91894 6.01267 3.24591 5.6822C3.57287 5.35172 4.11078 5.35172 4.43774 5.6822L5.21472 6.45917L7.15189 4.30754C7.46479 3.95948 7.99567 3.93136 8.34373 4.24426L8.34724 4.24777ZM8.34724 9.87296C8.6953 10.1859 8.72343 10.7167 8.41053 11.0648L5.8792 13.8774C5.7245 14.0497 5.50653 14.1516 5.27449 14.1551C5.04245 14.1586 4.82096 14.0707 4.65572 13.909L3.24591 12.5027C2.91543 12.1722 2.91543 11.6379 3.24591 11.3109C3.57639 10.9839 4.11078 10.9804 4.43774 11.3109L5.21472 12.0879L7.15189 9.93624C7.46479 9.58818 7.99567 9.56006 8.34373 9.87296H8.34724ZM10.8751 6.27987C10.8751 5.65758 11.3778 5.15483 12.0001 5.15483H19.8754C20.4976 5.15483 21.0004 5.65758 21.0004 6.27987C21.0004 6.90216 20.4976 7.40491 19.8754 7.40491H12.0001C11.3778 7.40491 10.8751 6.90216 10.8751 6.27987ZM10.8751 11.9051C10.8751 11.2828 11.3778 10.78 12.0001 10.78H19.8754C20.4976 10.78 21.0004 11.2828 21.0004 11.9051C21.0004 12.5273 20.4976 13.0301 19.8754 13.0301H12.0001C11.3778 13.0301 10.8751 12.5273 10.8751 11.9051ZM8.62499 17.5302C8.62499 16.908 9.12774 16.4052 9.75002 16.4052H19.8754C20.4976 16.4052 21.0004 16.908 21.0004 17.5302C21.0004 18.1525 20.4976 18.6553 19.8754 18.6553H9.75002C9.12774 18.6553 8.62499 18.1525 8.62499 17.5302ZM4.68736 15.8427C5.13493 15.8427 5.56416 16.0205 5.88064 16.337C6.19712 16.6534 6.37491 17.0827 6.37491 17.5302C6.37491 17.9778 6.19712 18.407 5.88064 18.7235C5.56416 19.04 5.13493 19.2178 4.68736 19.2178C4.23979 19.2178 3.81056 19.04 3.49408 18.7235C3.1776 18.407 2.9998 17.9778 2.9998 17.5302C2.9998 17.0827 3.1776 16.6534 3.49408 16.337C3.81056 16.0205 4.23979 15.8427 4.68736 15.8427Z" fill="white"/>
</svg>
