<svg width="20" height="20" viewBox="0 0 20 20" fill="none" xmlns="http://www.w3.org/2000/svg">
<path d="M10 17.5C14.1421 17.5 17.5 14.1421 17.5 10C17.5 5.85786 14.1421 2.5 10 2.5C5.85786 2.5 2.5 5.85786 2.5 10C2.5 14.1421 5.85786 17.5 10 17.5Z" fill="#739AFF" stroke="#739AFF" stroke-width="1.66667" stroke-linejoin="round"/>
<g clip-path="url(#clip0_783_16012)">
<path d="M11.8308 10.3994C12.143 10.3185 12.4282 10.1564 12.6575 9.92973C12.8869 9.70303 13.0522 9.41972 13.1368 9.10852C13.2213 8.79732 13.2221 8.4693 13.1391 8.1577C13.056 7.8461 12.892 7.562 12.6637 7.3342C12.4355 7.10641 12.1511 6.94301 11.8393 6.86057C11.5275 6.77814 11.1995 6.7796 10.8885 6.8648C10.5775 6.95 10.2945 7.11592 10.0683 7.34574C9.84208 7.57555 9.68064 7.8611 9.60034 8.17342M8.62913 11.3716L11.3727 8.62795M8.17461 9.59919C7.86223 9.67946 7.57663 9.84091 7.34677 10.0672C7.11691 10.2934 6.95096 10.5764 6.86576 10.8875C6.78055 11.1986 6.77912 11.5267 6.8616 11.8385C6.94409 12.1503 7.10755 12.4348 7.33543 12.663C7.5633 12.8913 7.84748 13.0552 8.15915 13.1382C8.47082 13.2212 8.79889 13.2203 9.1101 13.1356C9.42131 13.0509 9.70459 12.8854 9.93122 12.6559C10.1578 12.4264 10.3198 12.1411 10.4005 11.8288" stroke="white" stroke-linecap="round" stroke-linejoin="round"/>
</g>
<defs>
<clipPath id="clip0_783_16012">
<rect width="8" height="8" fill="white" transform="translate(6 6)"/>
</clipPath>
</defs>
</svg>
