<svg width="209" height="209" viewBox="0 0 209 209" fill="none" xmlns="http://www.w3.org/2000/svg">
<g clip-path="url(#clip0_291_4090)">
<rect width="209" height="209" rx="8" fill="white"/>
<path d="M111 102C111.828 102 112.5 101.328 112.5 100.5C112.5 99.6716 111.828 99 111 99C110.172 99 109.5 99.6716 109.5 100.5C109.5 101.328 110.172 102 111 102Z" fill="#767676"/>
<path d="M111 102C111.828 102 112.5 101.328 112.5 100.5C112.5 99.6716 111.828 99 111 99C110.172 99 109.5 99.6716 109.5 100.5C109.5 101.328 110.172 102 111 102Z" fill="black" fill-opacity="0.2"/>
<path d="M111 102C111.828 102 112.5 101.328 112.5 100.5C112.5 99.6716 111.828 99 111 99C110.172 99 109.5 99.6716 109.5 100.5C109.5 101.328 110.172 102 111 102Z" fill="black" fill-opacity="0.2"/>
<path d="M111 102C111.828 102 112.5 101.328 112.5 100.5C112.5 99.6716 111.828 99 111 99C110.172 99 109.5 99.6716 109.5 100.5C109.5 101.328 110.172 102 111 102Z" stroke="#767676"/>
<path d="M111 102C111.828 102 112.5 101.328 112.5 100.5C112.5 99.6716 111.828 99 111 99C110.172 99 109.5 99.6716 109.5 100.5C109.5 101.328 110.172 102 111 102Z" stroke="black" stroke-opacity="0.2"/>
<path d="M111 102C111.828 102 112.5 101.328 112.5 100.5C112.5 99.6716 111.828 99 111 99C110.172 99 109.5 99.6716 109.5 100.5C109.5 101.328 110.172 102 111 102Z" stroke="black" stroke-opacity="0.2"/>
<path d="M117 94.5H93V115.5H117V94.5Z" stroke="#767676" stroke-width="2" stroke-linejoin="round"/>
<path d="M117 94.5H93V115.5H117V94.5Z" stroke="black" stroke-opacity="0.2" stroke-width="2" stroke-linejoin="round"/>
<path d="M117 94.5H93V115.5H117V94.5Z" stroke="black" stroke-opacity="0.2" stroke-width="2" stroke-linejoin="round"/>
<path d="M100.5 103.5L93 111V115.5H117V111L111 106.5L106.5 109.5L100.5 103.5Z" stroke="#767676" stroke-width="2" stroke-linecap="round" stroke-linejoin="round"/>
<path d="M100.5 103.5L93 111V115.5H117V111L111 106.5L106.5 109.5L100.5 103.5Z" stroke="black" stroke-opacity="0.2" stroke-width="2" stroke-linecap="round" stroke-linejoin="round"/>
<path d="M100.5 103.5L93 111V115.5H117V111L111 106.5L106.5 109.5L100.5 103.5Z" stroke="black" stroke-opacity="0.2" stroke-width="2" stroke-linecap="round" stroke-linejoin="round"/>
<g clip-path="url(#clip1_291_4090)">
<rect width="209" height="209" rx="8" fill="white"/>
<path d="M111 102C111.828 102 112.5 101.328 112.5 100.5C112.5 99.6716 111.828 99 111 99C110.172 99 109.5 99.6716 109.5 100.5C109.5 101.328 110.172 102 111 102Z" fill="#767676"/>
<path d="M111 102C111.828 102 112.5 101.328 112.5 100.5C112.5 99.6716 111.828 99 111 99C110.172 99 109.5 99.6716 109.5 100.5C109.5 101.328 110.172 102 111 102Z" fill="black" fill-opacity="0.2"/>
<path d="M111 102C111.828 102 112.5 101.328 112.5 100.5C112.5 99.6716 111.828 99 111 99C110.172 99 109.5 99.6716 109.5 100.5C109.5 101.328 110.172 102 111 102Z" fill="black" fill-opacity="0.2"/>
<path d="M111 102C111.828 102 112.5 101.328 112.5 100.5C112.5 99.6716 111.828 99 111 99C110.172 99 109.5 99.6716 109.5 100.5C109.5 101.328 110.172 102 111 102Z" stroke="#767676"/>
<path d="M111 102C111.828 102 112.5 101.328 112.5 100.5C112.5 99.6716 111.828 99 111 99C110.172 99 109.5 99.6716 109.5 100.5C109.5 101.328 110.172 102 111 102Z" stroke="black" stroke-opacity="0.2"/>
<path d="M111 102C111.828 102 112.5 101.328 112.5 100.5C112.5 99.6716 111.828 99 111 99C110.172 99 109.5 99.6716 109.5 100.5C109.5 101.328 110.172 102 111 102Z" stroke="black" stroke-opacity="0.2"/>
<path d="M117 94.5H93V115.5H117V94.5Z" stroke="#767676" stroke-width="2" stroke-linejoin="round"/>
<path d="M117 94.5H93V115.5H117V94.5Z" stroke="black" stroke-opacity="0.2" stroke-width="2" stroke-linejoin="round"/>
<path d="M117 94.5H93V115.5H117V94.5Z" stroke="black" stroke-opacity="0.2" stroke-width="2" stroke-linejoin="round"/>
<path d="M100.5 103.5L93 111V115.5H117V111L111 106.5L106.5 109.5L100.5 103.5Z" stroke="#767676" stroke-width="2" stroke-linecap="round" stroke-linejoin="round"/>
<path d="M100.5 103.5L93 111V115.5H117V111L111 106.5L106.5 109.5L100.5 103.5Z" stroke="black" stroke-opacity="0.2" stroke-width="2" stroke-linecap="round" stroke-linejoin="round"/>
<path d="M100.5 103.5L93 111V115.5H117V111L111 106.5L106.5 109.5L100.5 103.5Z" stroke="black" stroke-opacity="0.2" stroke-width="2" stroke-linecap="round" stroke-linejoin="round"/>
<rect width="209" height="209" fill="#FAE0A7"/>
<path d="M90.8325 97.1346C90.706 97.2381 90.591 97.3991 90.4415 97.4451C88.0035 98.3421 85.6115 99.3656 83.3575 100.677C83.139 100.803 82.84 100.792 82.587 100.849C80.356 99.3081 78.102 97.8016 75.9055 96.2146C75.273 95.7546 74.7325 95.6856 74.077 96.0191C73.4675 96.3181 72.858 96.6401 72.2255 96.8816C72.007 96.9621 71.708 96.8126 71.4435 96.7666C71.501 96.5136 71.478 96.1916 71.639 96.0421C72.099 95.5936 72.628 95.2256 73.134 94.8231C73.295 94.6966 73.479 94.5931 73.6515 94.4781C73.6515 94.3976 73.663 94.3171 73.6745 94.2366C73.41 94.2021 73.1455 94.2021 72.8925 94.1216C72.2255 93.9031 71.5585 93.6846 70.926 93.3856C70.673 93.2706 70.5465 92.9141 70.3625 92.6611C70.6615 92.4886 70.9605 92.1436 71.248 92.1666C71.915 92.2126 72.582 92.4196 73.2375 92.5806C73.502 92.6496 73.7435 92.7761 74.0885 92.9141C74.054 92.2816 74.0195 91.7296 74.008 91.1891C74.008 90.8441 74.008 90.4761 74.0885 90.1426C74.146 89.9356 74.3645 89.7631 74.514 89.5791C74.698 89.7286 74.9625 89.8436 75.0545 90.0276C75.3995 90.7751 75.7215 91.5226 75.9975 92.3046C76.4575 93.6386 77.32 94.4896 78.6655 94.9496C81.138 95.7891 83.7025 96.2146 86.267 96.5711C87.7965 96.7781 89.326 96.9506 90.8555 97.1346H90.8325Z" fill="#D3A272"/>
<path d="M95.1798 143.228C95.1338 144.01 95.0878 144.78 95.0533 145.562C95.015 146.452 94.5626 146.942 93.6963 147.034C93.4663 147.057 93.2248 147.092 92.9948 147.092C89.0158 147.08 85.0368 147.069 81.0578 147.023C79.6548 147.011 79.6548 146.954 80.1953 145.666C81.2418 144.194 82.7828 143.527 84.4503 143.101C85.5773 142.825 86.7388 142.687 87.8888 142.492C89.1078 142.423 90.3268 142.354 91.5458 142.285C91.5458 142.147 91.6033 141.974 91.5458 141.859C91.4078 141.56 91.2353 141.284 91.0743 140.997C90.8788 140.686 90.6833 140.364 90.4993 140.054C89.4988 138.432 88.4868 136.811 87.5093 135.166C86.0373 132.682 84.5998 130.187 83.1623 127.691C81.3453 124.54 80.5518 121.194 81.3108 117.583C81.4718 116.812 81.8053 116.065 82.0583 115.306C82.1848 115.513 82.3688 115.708 82.4493 115.938C84.0708 120.607 86.8308 124.448 90.8673 127.335C91.9253 128.094 93.0753 128.726 94.1793 129.416C94.5013 129.623 94.8118 129.819 95.1338 130.026C95.1683 131.452 95.2373 132.866 95.2373 134.292C95.2373 137.271 95.2028 140.249 95.1683 143.228H95.1798Z" fill="#D3A272"/>
<path d="M87.0728 71.2263C87.5098 71.0653 87.8893 70.7433 88.1308 70.3178C88.8898 68.9723 90.5803 66.0973 90.7298 65.7178C92.2018 61.9803 91.8223 58.5188 90.0628 55.3218C89.2808 53.8958 88.8553 53.8958 87.6708 55.1838C83.4848 59.7263 81.8633 64.8208 83.3238 70.5593C83.3468 70.6628 84.2668 71.0998 84.8878 71.4333C85.3018 71.6633 85.8078 71.6863 86.2793 71.5138L87.0728 71.2263Z" fill="#AD745E"/>
<path d="M108.496 133.086C108.14 132.672 107.76 132.281 107.427 131.856C106.714 130.936 106.012 129.993 105.299 129.073C105.265 129.027 105.207 129.004 105.15 128.981C105.069 128.866 105 128.751 104.92 128.624C104.667 128.314 104.402 128.015 104.161 127.693C102.965 126.037 101.746 124.392 100.573 122.713C99.2271 120.793 99.1006 118.723 99.9631 116.595C100.929 114.192 101.941 111.8 102.93 109.408C102.999 109.258 103.091 109.109 103.31 109.005C103.252 109.27 103.206 109.546 103.126 109.799C102.321 112.076 101.527 114.364 100.676 116.63C99.8596 118.803 100.044 120.804 101.435 122.702C102.735 124.473 103.965 126.313 105.219 128.118C106.242 129.59 107.266 131.062 108.289 132.534C108.393 132.684 108.485 132.856 108.473 133.109L108.496 133.086ZM88.0491 72.4466C87.4741 72.1323 86.7764 72.0786 85.9561 72.2856C86.0596 71.9291 86.6001 71.6416 87.1291 71.6416C87.5546 71.6416 87.8421 71.8831 88.0606 72.4466H88.0491ZM87.1866 74.3441C86.9796 74.5741 86.7841 74.9881 86.5541 74.9996C86.0826 75.0456 85.9791 74.5511 86.0366 74.2061C86.0826 73.9186 86.3356 73.4586 86.5311 73.4356C87.0026 73.3896 87.0141 73.8611 87.1751 74.3326L87.1866 74.3441ZM80.5281 80.7956C80.5626 81.5086 79.5736 82.3251 78.4696 82.3826C79.1826 81.8306 79.8726 81.3016 80.5281 80.7956Z" fill="#8F8F8F"/>
<path d="M80.5305 80.7956C79.875 81.3016 79.185 81.8306 78.472 82.3826C79.576 82.3251 80.565 81.4971 80.5305 80.7956ZM87.189 74.3441C87.028 73.8726 87.0165 73.4011 86.545 73.4471C86.3495 73.4701 86.0965 73.9301 86.0505 74.2176C85.993 74.5626 86.0965 75.0456 86.568 75.0111C86.798 74.9881 86.982 74.5856 87.2005 74.3556L87.189 74.3441ZM88.0515 72.4466C87.8445 71.8716 87.5455 71.6416 87.12 71.6416C86.591 71.6416 86.062 71.9291 85.947 72.2856C86.775 72.0786 87.4727 72.1323 88.04 72.4466H88.0515ZM108.498 133.086C108.498 132.833 108.418 132.661 108.314 132.511C107.291 131.039 106.267 129.567 105.244 128.095C103.979 126.29 102.76 124.461 101.46 122.679C100.069 120.77 99.8965 118.769 100.701 116.607C101.541 114.341 102.334 112.064 103.151 109.776C103.243 109.523 103.277 109.247 103.335 108.982C103.116 109.086 103.024 109.235 102.955 109.385C101.955 111.777 100.954 114.169 99.9885 116.572C99.126 118.711 99.2525 120.781 100.598 122.69C101.771 124.369 102.978 126.014 104.186 127.67C104.416 127.992 104.692 128.291 104.945 128.601C105.025 128.716 105.094 128.831 105.175 128.958C105.221 128.992 105.29 129.015 105.324 129.05C106.037 129.981 106.727 130.913 107.452 131.833C107.785 132.258 108.165 132.649 108.521 133.063L108.498 133.086Z" fill="#D3A272"/>
<path d="M107.255 134.017C102.62 134.408 99.7225 133.522 95.893 132.338C95.755 132.292 95.5825 132.315 95.4215 132.315C95.3985 132.315 95.3755 132.315 95.3525 132.292C95.088 132.119 94.812 131.947 94.5475 131.774C94.49 131.74 94.4785 131.648 94.5245 131.602C94.628 131.487 94.743 131.372 94.743 131.257C94.743 130.601 94.7315 129.923 94.6165 129.279C94.2025 126.887 93.7425 124.495 93.3055 122.103C93.11 121.39 92.926 120.688 92.7305 119.975C92.1095 117.756 91.5 115.536 90.879 113.317C90.879 113.294 90.879 113.271 90.879 113.248L89.683 108.567C89.6485 108.406 89.614 108.234 89.591 108.061C89.361 106.072 88.9815 104.082 88.947 102.093C88.901 98.8844 89.1195 95.6644 89.1655 92.4559C89.1885 90.9839 88.901 89.5464 88.4065 88.1549C88.096 87.2809 87.843 86.3839 87.5555 85.5099V85.4754L87.2105 84.9004C86.9 84.1874 86.5895 83.4974 86.279 82.7959C86.279 82.7729 86.2675 82.7499 86.279 82.7269C86.2905 82.6349 86.3135 82.5314 86.325 82.4049C86.3365 82.3129 86.2445 82.2439 86.164 82.2784C85.9685 82.3589 85.819 82.4164 85.658 82.4854C84.0365 83.1984 82.4265 83.9344 80.7935 84.6359C80.3105 84.8429 79.8045 84.9924 79.287 85.1189C78.3325 85.3489 77.8265 85.1649 77.2515 84.3944C77.217 84.3484 77.1595 84.3369 77.102 84.3599C74.572 85.6019 72.088 85.2224 69.673 83.9919C69.5925 83.9574 69.581 83.8539 69.65 83.7964C70.501 83.0949 71.375 82.4164 72.18 81.6804C72.594 81.3124 72.9965 80.7949 72.663 80.1969C72.3525 79.6334 71.7315 79.7369 71.191 79.8059C70.8 79.8519 70.409 79.9209 70.0295 79.9899C69.9145 80.0129 69.8455 79.8749 69.926 79.7944C70.938 78.8169 71.9155 77.7819 73.0195 76.9079C74.7675 75.5164 76.619 74.2514 78.4245 72.9289H78.4475C79.977 72.1009 81.5065 71.2844 83.036 70.4679H83.059L83.887 70.2034C84.094 70.1344 84.3125 70.0654 84.5195 69.9964C84.646 69.9619 84.876 69.8929 84.899 69.8929C85.0485 69.8469 85.221 69.7779 85.382 69.7549C85.428 69.7549 85.474 69.7549 85.52 69.7549C86.4515 69.7779 87.383 69.7894 88.3145 69.8124C88.7515 70.0424 89.1885 70.2724 89.6255 70.4909C89.844 70.6059 90.0625 70.7209 90.281 70.8244C90.4765 70.9279 90.6835 70.9969 90.81 71.1809C90.948 71.3879 91.063 71.6064 91.178 71.8134C91.316 72.0549 91.431 72.2964 91.5115 72.5609C92.075 74.5849 92.6155 76.6204 93.087 78.6789C93.662 81.2089 94.191 83.7504 95.709 85.9009C96.859 87.5224 98.1815 89.0289 99.4235 90.5814C99.7685 91.0069 100.113 91.4324 100.458 91.8464C100.757 92.2144 101.068 92.5709 101.367 92.9389C104.552 96.6649 107.324 100.69 109.267 105.209C110.245 107.486 110.935 109.878 111.82 112.19C112.096 112.903 112.522 113.581 112.959 114.225C116.064 118.687 120.353 120.999 125.77 121.171C126.954 121.206 128.15 121.148 129.335 121.045C132.233 120.792 134.349 119.32 135.878 116.859C136.879 115.26 137.925 113.673 139.098 112.19C140.605 110.304 142.663 109.05 144.664 107.762C145.964 106.934 147.229 106.037 148.62 105.382C149.874 104.784 151.265 104.485 152.599 104.048C152.703 104.013 152.841 104.013 152.944 104.048C153.14 104.105 153.324 104.186 153.519 104.255C153.577 104.278 153.611 104.347 153.588 104.404C153.519 104.6 153.462 104.807 153.324 104.945C151.978 106.302 150.587 107.613 149.253 108.993C148.344 109.936 147.482 110.925 146.654 111.925C145.285 113.581 144.411 115.456 144.055 117.606C143.652 119.987 142.951 122.287 141.743 124.391C140.053 127.347 137.58 129.394 134.418 130.578C129.887 132.292 125.241 132.74 120.491 131.59C118.525 131.107 116.696 130.291 114.971 129.221C114.787 129.106 114.603 128.991 114.419 128.888C114.396 128.876 114.362 128.865 114.316 128.865C114.247 128.865 114.178 128.911 114.178 128.991C114.178 128.991 114.178 128.991 114.178 129.003C114.224 129.888 113.867 130.762 113.212 131.36C112.096 132.384 110.095 133.775 107.232 134.017H107.255Z" fill="#D3A272"/>
<path d="M72.3397 81.6776C71.4772 82.4596 70.5572 83.1726 69.6717 83.9086C68.5102 83.3911 68.1767 82.6321 68.6022 81.4361C68.7057 81.2866 68.7977 81.1371 68.9012 80.9876C69.2002 80.6771 69.5107 80.3551 69.8097 80.0446C70.3272 79.9526 70.8447 79.8491 71.3622 79.7916C71.9027 79.7226 72.5237 79.6191 72.8342 80.1826C73.1677 80.7806 72.7537 81.2981 72.3512 81.6661L72.3397 81.6776Z" fill="#202020"/>
<path d="M89.6947 107.314C89.6947 107.314 89.6947 107.291 89.6947 107.28C89.4647 105.29 89.0852 103.312 89.0622 101.323C89.0162 98.1143 89.4877 97.7693 89.5337 94.5608C89.5567 93.0888 89.5567 89.6733 88.7977 86.8558C88.2112 84.6938 87.0957 82.9803 86.6127 82.3018C86.4977 82.1523 86.2562 82.1753 86.1872 82.3478C84.5082 86.6603 83.3812 88.7763 81.6332 95.6763C79.8852 102.576 80.1152 111.569 82.0472 116.813C83.9792 122.057 87.1877 125.956 91.2242 128.831C92.2247 129.544 93.3057 130.153 94.3637 130.797C94.4672 130.855 94.5937 130.843 94.6742 130.751C94.7662 130.648 94.8467 130.556 94.8467 130.452C94.8467 129.797 94.8352 129.118 94.7202 128.474C94.3062 126.082 93.8462 123.69 93.4092 121.298C93.4092 121.298 93.4092 121.287 93.4092 121.275C93.2137 120.574 93.0297 119.872 92.8342 119.171C92.2132 116.94 91.6037 114.709 90.9827 112.478L89.7062 107.28L89.6947 107.314Z" fill="#F9EAD9"/>
<path d="M117.903 136.866C117.903 136.866 117.869 136.866 117.846 136.854C117.869 136.854 117.88 136.854 117.903 136.854V136.866Z" fill="#868686"/>
<path d="M117.903 136.866C117.903 136.866 117.869 136.866 117.846 136.854C117.869 136.854 117.88 136.854 117.903 136.854V136.866Z" fill="#8F8F8F"/>
<path d="M94.3283 107.196L95.4668 100.618L91.6028 101.998L88.2563 102.964L86.2553 103.332L84.1278 103.562L83.0353 103.286L81.8623 102.55L79.8153 100.664L79.2058 100.4L79.0333 100.492L78.9068 100.929L79.1713 101.803L79.9993 103.436L79.8958 103.574L78.9183 103.677L77.3428 104.091L76.7448 104.448L76.5608 104.862L76.9173 105.218L77.4463 105.391L79.0103 105.299L80.3558 104.988L79.9763 105.701L79.2173 107.403L79.2748 107.955L79.7118 108.162L80.3098 107.771L81.8278 105.931L82.4603 105.644L83.4493 105.839L85.7723 106.242L91.7523 107.127L94.3283 107.196Z" fill="#D3A272"/>
<path d="M94.4098 107.334C94.4098 107.334 94.3523 107.369 94.3293 107.369C91.6613 107.346 89.0393 106.966 86.4173 106.506C85.5778 106.357 84.7383 106.173 83.9103 106C83.6803 105.966 83.4388 105.977 83.2318 105.897C82.5188 105.609 81.9898 105.805 81.5413 106.391C81.1618 106.886 80.7938 107.38 80.3798 107.852C80.2073 108.047 79.9773 108.231 79.7358 108.312C79.2988 108.45 78.9423 108.174 79.0573 107.737C79.2183 107.104 79.5173 106.518 79.7818 105.92C79.8623 105.747 79.9658 105.586 80.1038 105.368C80.1613 105.276 80.0808 105.172 79.9773 105.184C79.4023 105.299 78.9078 105.402 78.4133 105.506H78.3903C78.0453 105.494 77.6888 105.529 77.3553 105.448C77.0448 105.368 76.6423 105.218 76.5158 104.977C76.3203 104.586 76.6423 104.241 77.0103 104.126C77.7233 103.884 78.4593 103.712 79.1953 103.528C79.3333 103.493 79.4828 103.493 79.6783 103.482C79.7588 103.482 79.8163 103.39 79.7818 103.309C79.5978 102.953 79.4368 102.654 79.2988 102.343C79.1148 101.941 78.9078 101.527 78.8158 101.09C78.7698 100.871 78.8733 100.63 78.9423 100.388C78.9538 100.331 79.0113 100.296 79.0688 100.308C79.3103 100.342 79.5863 100.342 79.7473 100.48C80.3683 100.975 80.9433 101.538 81.5298 102.079C81.6563 102.194 81.7943 102.297 81.9323 102.401C83.0133 103.505 84.3588 103.551 85.7388 103.332C88.9128 102.815 91.9488 101.814 94.9388 100.664C95.0998 100.607 95.2723 100.549 95.4448 100.503C95.5828 100.469 95.6403 100.676 95.5138 100.733C92.7308 101.814 89.9018 102.769 86.9693 103.355C86.0378 103.539 85.0718 103.585 84.1288 103.643C83.2778 103.7 82.5763 103.309 81.9668 102.757C81.2308 102.09 80.4948 101.412 79.7473 100.768C79.6208 100.653 79.4368 100.607 79.2643 100.549C79.1953 100.526 79.1263 100.561 79.1148 100.63C79.0688 100.825 78.9883 101.032 79.0458 101.182C79.3103 101.826 79.6438 102.447 79.9543 103.068C80.0233 103.206 80.1153 103.344 80.2188 103.516C80.2648 103.597 80.2188 103.689 80.1268 103.7C79.5978 103.723 79.1263 103.7 78.6778 103.804C78.1143 103.93 77.5623 104.149 77.0333 104.379C76.8838 104.448 76.6998 104.724 76.7228 104.862C76.7573 105.011 77.0103 105.207 77.1828 105.218C77.7003 105.241 78.2408 105.218 78.7583 105.161C79.2988 105.092 79.8393 104.965 80.4488 104.85C80.5523 104.827 80.6213 104.942 80.5753 105.023C80.2188 105.632 79.8968 106.184 79.5978 106.736C79.4598 106.989 79.3678 107.277 79.3218 107.553C79.2988 107.714 79.4023 107.932 79.5288 108.036C79.5863 108.082 79.8623 107.978 79.9658 107.863C80.2993 107.507 80.5983 107.127 80.9088 106.748C81.1158 106.506 81.3113 106.265 81.5183 106.035C81.9668 105.552 82.4728 105.31 83.1398 105.621C83.3813 105.736 83.6573 105.77 83.9218 105.839C85.2673 106.058 86.6128 106.299 87.9583 106.506C90.0628 106.817 92.1558 107.196 94.2948 107.104C94.4213 107.104 94.4788 107.254 94.3753 107.334H94.4098Z" fill="#737373"/>
<path d="M87.1875 74.3413C86.9805 74.5713 86.785 74.9853 86.555 74.9968C86.0835 75.0428 85.98 74.5483 86.0375 74.2033C86.0835 73.9158 86.3365 73.4558 86.532 73.4328C87.0035 73.3868 87.015 73.8583 87.176 74.3298L87.1875 74.3413Z" fill="#202020"/>
<path d="M88.05 72.4466C87.475 72.1323 86.7774 72.0786 85.957 72.2856C86.0605 71.9291 86.601 71.6416 87.13 71.6416C87.5555 71.6416 87.843 71.8831 88.0615 72.4466H88.05Z" fill="#111111"/>
<path d="M87.1876 74.5734C87.0841 75.0909 86.6816 75.3784 86.4056 75.4014C85.8191 75.4474 85.6811 74.8379 85.7616 74.4124C85.8191 74.0559 86.1411 73.4809 86.3941 73.4464C86.9921 73.3889 87.3026 74.0444 87.1991 74.5734H87.1876Z" fill="#111111"/>
<path d="M79.1144 82.7822C79.1489 83.4952 78.1599 84.3117 77.0559 84.3692C77.7689 83.8172 78.4589 83.2882 79.1144 82.7822Z" fill="#111111"/>
<path d="M88.05 72.4466C87.475 72.1323 86.7774 72.0786 85.957 72.2856C86.0605 71.9291 86.601 71.6416 87.13 71.6416C87.5555 71.6416 87.843 71.8831 88.0615 72.4466H88.05Z" fill="#707070"/>
<path d="M82.9561 144.652C82.2201 145.296 81.599 145.825 80.955 146.388C81.0125 145.675 81.9441 144.824 82.9561 144.652Z" fill="#1B1B1B"/>
<path d="M83.7266 145.378C83.2321 145.677 82.7261 145.987 82.1626 146.332C82.3006 145.688 82.9331 145.274 83.7266 145.378Z" fill="#1E1E1E"/>
<path d="M112.489 141.885C112.558 142.656 112.615 143.438 112.696 144.208C112.78 145.097 112.4 145.649 111.557 145.864C111.327 145.922 111.109 145.991 110.879 146.025C106.934 146.566 103.001 147.129 99.0565 147.647C97.665 147.831 97.6535 147.785 98.01 146.428C98.838 144.829 100.276 143.944 101.863 143.3C102.932 142.863 104.071 142.575 105.175 142.219C106.371 141.977 107.567 141.736 108.774 141.494C108.763 141.356 108.786 141.184 108.728 141.069C108.556 140.793 108.337 140.54 108.13 140.275C107.889 139.988 107.659 139.712 107.429 139.424C106.21 137.952 104.979 136.503 103.783 135.008C101.978 132.754 100.195 130.489 98.424 128.212C96.1815 125.348 94.9165 122.151 95.1695 118.46C95.227 117.666 95.4455 116.884 95.5835 116.102C95.7445 116.286 95.94 116.459 96.055 116.666C98.3205 121.059 101.587 124.474 105.991 126.751C107.153 127.349 108.372 127.821 109.568 128.338C109.913 128.499 110.258 128.649 110.591 128.81C110.833 130.213 111.097 131.604 111.293 133.019C111.707 135.974 112.098 138.93 112.489 141.874V141.885Z" fill="#D3A272"/>
<path d="M100.587 145.023C99.9429 145.759 99.4139 146.38 98.8504 147.024C98.8044 146.311 99.6094 145.333 100.587 145.023Z" fill="#1B1B1B"/>
<path d="M101.449 145.621C101.001 145.989 100.541 146.368 100.035 146.782C100.069 146.115 100.644 145.632 101.449 145.621Z" fill="#1E1E1E"/>
<path d="M91.3284 72.3645C91.7884 72.445 92.2828 72.3415 92.6968 72.0885C94.0193 71.2835 96.8943 69.6045 97.2163 69.3515C100.333 66.81 101.701 63.613 101.724 59.9675C101.736 58.346 101.368 58.1275 99.7003 58.668C93.8238 60.577 89.9139 64.2225 88.3844 69.9495C88.3614 70.053 88.9364 70.881 89.3159 71.479C89.5689 71.8815 89.9944 72.1575 90.4889 72.238L91.3168 72.376L91.3284 72.3645Z" fill="#D3A272"/>
<path d="M91.88 70.8231C92.1215 70.8116 92.317 70.6966 92.524 70.5356C93.2025 70.0411 94.663 69.0061 94.8355 68.8566C96.4225 67.4191 97.1125 65.8666 97.124 64.2451C97.124 63.5321 96.94 63.4746 96.089 63.8771C93.0875 65.3261 90.04 67.1316 90.3275 70.0181C90.362 70.3286 90.5115 70.4551 90.6955 70.6851C90.822 70.8346 91.19 70.8461 91.443 70.8346L91.8685 70.8116L91.88 70.8231Z" fill="#FFFFFD"/>
<path d="M107.645 131.347C107.726 131.554 107.588 131.497 107.289 131.186C105.575 129.185 104 127.046 102.413 124.93C101.136 123.079 99.4919 121.25 98.8479 119.088C98.3419 117.432 98.6984 115.673 99.2964 114.086C99.8599 112.579 100.492 111.119 101.102 109.635C101.297 109.198 102.056 107.255 102.252 107.393C102.309 107.588 102.045 108.428 101.861 108.957C101.309 110.567 100.711 112.154 100.159 113.764C99.7334 115.029 99.3654 116.34 99.4574 117.685C99.5839 119.767 100.918 121.503 102.102 123.194C103.643 125.402 105.173 127.621 106.714 129.818C107.013 130.255 107.473 130.922 107.645 131.336V131.347Z" fill="#737373"/>
</g>
</g>
<defs>
<clipPath id="clip0_291_4090">
<rect width="209" height="209" rx="8" fill="white"/>
</clipPath>
<clipPath id="clip1_291_4090">
<rect width="209" height="209" rx="8" fill="white"/>
</clipPath>
</defs>
</svg>
