<svg width="96" height="32" viewBox="0 0 96 32" fill="none" xmlns="http://www.w3.org/2000/svg">
<path d="M9.93511 10.2295C3.98951 10.2295 1.57031 13.6023 1.57031 17.4743C1.57031 20.2519 2.83431 22.7671 5.73991 23.9607C5.53831 23.0423 5.88391 22.2743 6.41511 21.7655C6.45671 21.7239 6.50151 21.6855 6.55271 21.6503C4.78951 20.9111 4.17191 19.4423 4.17191 17.4743C4.17191 14.5623 5.51911 12.7191 9.93831 12.7191C14.3575 12.7191 15.7047 14.5623 15.7047 17.4743C15.7047 19.4391 15.0743 20.9047 13.3143 21.6503C13.3655 21.6791 13.4135 21.7207 13.4583 21.7655C13.9831 22.2743 14.3255 23.0359 14.1335 23.9543C17.0327 22.7575 18.2999 20.2519 18.2999 17.4775C18.2999 13.6023 15.8327 10.2327 9.93511 10.2327V10.2295ZM24.7479 13.5671H22.8311C22.6103 13.5671 22.4279 13.3815 22.4279 13.1575V10.5815C22.4279 10.3607 22.2423 10.1719 22.0183 10.1719H20.2327C20.0119 10.1719 19.8231 10.3575 19.8231 10.5815V24.4983C19.8231 24.7191 20.0087 24.9015 20.2327 24.9015H22.0183C22.2391 24.9015 22.4279 24.7223 22.4279 24.4983V16.4343C22.4279 16.2135 22.6071 16.0311 22.8311 16.0311H24.7479C24.9687 16.0311 25.1575 15.8455 25.1575 15.6215V13.9639C25.1575 13.7431 24.9719 13.5607 24.7479 13.5607V13.5671Z" fill="#EE8454"/>
<path d="M34.5582 10.227C40.4558 10.227 42.923 13.603 42.923 17.475C42.923 21.347 40.4558 24.6974 34.5582 24.6974C28.6606 24.6974 26.1934 21.347 26.1934 17.475C26.1934 13.603 28.6094 10.227 34.5582 10.227ZM34.5582 22.2014C38.9486 22.2014 40.3246 20.3838 40.3246 17.4718C40.3246 14.5598 38.9486 12.7198 34.5582 12.7198C30.1678 12.7198 28.7918 14.563 28.7918 17.4718C28.7918 20.3806 30.1422 22.2014 34.5582 22.2014ZM45.3422 10.1758H47.1502C47.3678 10.1758 47.547 10.3518 47.547 10.5726V24.5118C47.547 24.7294 47.371 24.9086 47.1502 24.9086H45.3422C45.1246 24.9086 44.9454 24.7326 44.9454 24.5118V10.5726C44.9454 10.355 45.1214 10.1758 45.3422 10.1758Z" fill="#EE8454"/>
<path d="M50.5529 21.8911H59.0873C59.3145 21.8911 59.4969 21.7087 59.4969 21.4815V20.7135C59.4969 20.4863 59.3145 20.3039 59.0873 20.3039H51.0489C50.8217 20.3039 50.6393 20.1215 50.6393 19.8942V10.8159C50.6393 10.5887 50.8217 10.4062 51.0489 10.4062H52.8281C53.0553 10.4062 53.2377 10.5887 53.2377 10.8159V13.1422C53.2377 13.3694 53.4201 13.5519 53.6473 13.5519H67.7913C68.0185 13.5519 68.2009 13.3694 68.2009 13.1422V10.8159C68.2009 10.5887 68.3833 10.4062 68.6105 10.4062H70.3897C70.6169 10.4062 70.7993 10.5887 70.7993 10.8159V19.8942C70.7993 20.1215 70.6169 20.3039 70.3897 20.3039H62.5049C62.2777 20.3039 62.0953 20.4863 62.0953 20.7135V21.4815C62.0953 21.7087 62.2777 21.8911 62.5049 21.8911H70.9337C71.1609 21.8911 71.3433 22.0735 71.3433 22.3007V23.9774C71.3433 24.2046 71.1609 24.387 70.9337 24.387H50.5561C50.3289 24.387 50.1465 24.2046 50.1465 23.9774V22.3007C50.1465 22.0735 50.3289 21.8911 50.5561 21.8911H50.5529ZM68.1945 17.4046V16.4574C68.1945 16.2302 68.0121 16.0479 67.7849 16.0479H53.6409C53.4137 16.0479 53.2313 16.2302 53.2313 16.4574V17.4046C53.2313 17.6318 53.4137 17.8143 53.6409 17.8143H67.7849C68.0121 17.8143 68.1945 17.6318 68.1945 17.4046Z" fill="#EE8454"/>
<path d="M91.6251 23.2094H74.3259C74.1115 23.2094 73.9355 23.0366 73.9355 22.819V15.9006C73.9355 15.6862 74.1083 15.5102 74.3259 15.5102H85.9899C86.2043 15.5102 86.3803 15.3374 86.3803 15.1198V13.3438C86.3803 13.1294 86.2075 12.9534 85.9899 12.9534H74.6139C74.3995 12.9534 74.2235 12.7806 74.2235 12.563V10.8478C74.2235 10.6334 74.3963 10.4574 74.6139 10.4574H88.5883C88.8027 10.4574 88.9787 10.6302 88.9787 10.8478V17.6126C88.9787 17.827 88.8059 18.003 88.5883 18.003H76.9243C76.7099 18.003 76.5339 18.1758 76.5339 18.3934V20.3262C76.5339 20.5406 76.7067 20.7166 76.9243 20.7166H91.6283C91.8427 20.7166 92.0187 20.5438 92.0187 20.3262V10.5662C92.0187 10.3518 92.1915 10.1758 92.4091 10.1758H94.2267C94.4411 10.1758 94.6171 10.3486 94.6171 10.5662V24.515C94.6171 24.7294 94.4443 24.9054 94.2267 24.9054H92.4091C92.1947 24.9054 92.0187 24.7326 92.0187 24.515V23.5998C92.0187 23.3854 91.8459 23.2094 91.6283 23.2094H91.6251Z" fill="#EE8454"/>
<path d="M13.2689 24.2557C13.1537 24.5213 12.9617 24.8157 12.6865 25.1293C12.6225 25.2157 12.5201 25.2573 12.4209 25.2573C12.3345 25.2573 12.2481 25.2285 12.1841 25.1645C12.0337 25.0365 12.0177 24.8061 12.1489 24.6621C12.2001 24.6045 12.2481 24.5405 12.2993 24.4829C12.8433 23.7885 12.8945 23.2189 12.4657 22.8029C12.1361 22.4861 11.5921 22.2717 10.9649 22.1565C10.6353 22.0989 10.2833 22.0701 9.93131 22.0701C9.57931 22.0701 9.22091 22.0989 8.89131 22.1565C8.27371 22.2717 7.72971 22.4861 7.40011 22.8029C6.96171 23.2189 7.01931 23.7853 7.56651 24.4829C7.61771 24.5405 7.66571 24.6045 7.71691 24.6621C7.84491 24.8061 7.83211 25.0365 7.68171 25.1645C7.61131 25.2221 7.53131 25.2573 7.44491 25.2573C7.34571 25.2573 7.24331 25.2157 7.17291 25.1293C6.90091 24.8125 6.71531 24.5181 6.59051 24.2557C6.12331 23.2285 6.61931 22.5629 6.90731 22.2909C7.05131 22.1533 7.21451 22.0413 7.40331 21.9389C8.07211 21.5645 9.00331 21.3789 9.93451 21.3789C10.8657 21.3789 11.8001 21.5645 12.4657 21.9389C12.6513 22.0381 12.8241 22.1533 12.9617 22.2909C13.2497 22.5629 13.7521 23.2317 13.2689 24.2557Z" fill="#EE8454"/>
<path d="M11.468 24.6063C11.4616 24.5551 11.4552 24.5071 11.4392 24.4623C11.26 23.7967 10.4216 23.1055 9.96083 23.1055H9.84563C9.40723 23.1055 8.60403 23.7455 8.38963 24.3887C8.36723 24.4591 8.34803 24.5327 8.33843 24.6031C8.33203 24.6383 8.33203 24.6735 8.33203 24.7023C8.33203 24.9103 8.35443 25.1407 8.41203 25.3615V25.3679C8.56243 25.8927 8.94323 26.3727 9.84563 26.4143H9.96083C10.9304 26.3727 11.2952 25.8319 11.4168 25.2655C11.4584 25.0703 11.4744 24.8783 11.4744 24.6991C11.4744 24.6639 11.4744 24.6351 11.468 24.5999V24.6063ZM9.91923 25.7039C9.37523 25.6975 9.05203 25.5247 9.05203 24.7055C9.05203 24.6927 9.05203 24.6767 9.05843 24.6639C9.10003 24.3759 9.62483 23.8735 9.84883 23.8255H9.94163C10.2072 23.8895 10.716 24.3919 10.7512 24.6735C10.7576 24.6863 10.7576 24.7023 10.7576 24.7087C10.7576 25.5279 10.4408 25.6975 9.91923 25.7071V25.7039Z" fill="#EE8454"/>
<path d="M9.65427 8.89812C9.52627 9.78132 9.93267 10.1301 10.5375 10.5365C11.6447 11.0165 10.8959 12.7605 9.80147 11.9733C9.24787 11.5957 8.71027 10.9653 8.44147 10.2325C7.10067 6.88532 11.1455 4.15572 13.6287 6.74772C14.7583 8.01492 14.0703 9.42292 12.5055 8.03092C11.6575 7.24372 10.0543 7.53812 9.70227 8.72532L9.65747 8.90132L9.65427 8.89812Z" fill="#EE8454"/>
</svg>
