<svg width="174" height="115" viewBox="0 0 174 115" fill="none" xmlns="http://www.w3.org/2000/svg">
<path d="M4.73438 78.125V71.1875L35.2969 24.125H45.7031V70.7188H55.1719V78.125H45.7031V92H37.6406V78.125H4.73438ZM13.8281 70.7188H37.6406V34.8125H36.7969L13.8281 70.1562V70.7188Z" fill="#606060"/>
<path d="M118.734 78.125V71.1875L149.297 24.125H159.703V70.7188H169.172V78.125H159.703V92H151.641V78.125H118.734ZM127.828 70.7188H151.641V34.8125H150.797L127.828 70.1562V70.7188Z" fill="#606060"/>
<g filter="url(#filter0_d_1058_7125)">
<g clip-path="url(#clip0_1058_7125)">
<circle cx="88.5" cy="60.5" r="38.5" fill="#D9D9D9"/>
<path d="M79.4833 85.3721C79.4833 85.3721 63.6715 87.5248 62.2715 88.1872C60.9539 88.8495 73.1421 93.9001 73.1421 93.9001L93.4833 90.1742L95.048 85.4549C95.048 85.4549 82.6127 84.6269 79.4833 85.4549V85.3721Z" fill="#606060"/>
<path d="M83.9323 66.9939C83.9323 67.2423 83.9323 67.4079 83.9323 67.6563C82.6146 70.6369 81.4617 73.6176 80.6381 76.7638C80.6381 77.095 80.3087 77.3434 80.144 77.5918C76.8499 78.2541 73.5558 78.9165 70.1793 79.4961C69.1911 79.6617 68.697 80.0756 68.4499 80.9864C68.2028 81.8144 67.9558 82.6423 67.6264 83.3875C67.544 83.6359 67.1323 83.8015 66.8028 83.967C66.6381 83.7187 66.3087 83.4703 66.3087 83.1391C66.3087 82.3111 66.4734 81.566 66.5558 80.738C66.5558 80.4896 66.6381 80.2412 66.7205 79.9929C66.7205 79.9929 66.5558 79.8273 66.5558 79.7445C66.3087 79.9101 66.0617 80.1584 65.8146 80.324C65.0734 80.738 64.2499 81.152 63.4264 81.4004C63.097 81.4832 62.6852 81.4004 62.2734 81.2348C62.3558 80.8208 62.2734 80.2412 62.6028 79.9929C63.2617 79.4133 64.0028 78.9993 64.6617 78.5853C64.9087 78.4197 65.2381 78.3369 65.7323 78.0886C65.1558 77.5918 64.6617 77.095 64.1676 76.681C63.8381 76.3498 63.5087 76.1015 63.344 75.6875C63.1793 75.4391 63.2617 75.1079 63.1793 74.7767C63.5087 74.7767 63.8381 74.6111 64.0852 74.6939C65.0734 75.0251 65.9793 75.4391 66.8852 75.8531C68.4499 76.5982 70.0146 76.5982 71.5793 75.8531C74.4617 74.3627 77.097 72.4584 79.6499 70.4714C81.1323 69.3122 82.6146 68.0703 84.1793 66.9111L83.9323 66.9939Z" fill="#999999"/>
<path d="M83.6006 126.854C83.2712 127.765 82.9418 128.676 82.6947 129.586C82.3653 130.663 81.6241 131.077 80.5536 130.911C80.3065 130.911 79.9771 130.911 79.73 130.746C74.9536 129.421 70.2594 128.096 65.483 126.689C63.8359 126.192 63.8359 126.109 64.9065 124.784C66.6359 123.377 68.6947 123.046 70.8359 123.128C72.3183 123.128 73.7183 123.377 75.1183 123.542C76.6006 123.874 78.083 124.205 79.5653 124.536C79.5653 124.37 79.73 124.205 79.73 124.039C79.73 123.625 79.5653 123.211 79.483 122.88C79.3183 122.466 79.2359 121.969 79.0712 121.555C78.4124 119.237 77.7536 117.002 77.0947 114.683C76.1888 111.206 75.283 107.728 74.3771 104.251C73.2241 99.8628 73.3888 95.5575 75.53 91.5005C76.0241 90.5897 76.6006 89.8446 77.1771 89.0166C77.2594 89.3478 77.4241 89.5962 77.4241 89.9274C77.8359 96.0542 79.8124 101.602 83.683 106.404C84.6712 107.646 85.8241 108.805 86.9771 110.047C87.3065 110.378 87.6359 110.792 87.883 111.123C87.4712 112.862 87.0594 114.6 86.5653 116.256C85.5771 119.817 84.5065 123.377 83.5183 126.937L83.6006 126.854Z" fill="#868686"/>
<path d="M97.9308 37.7665C98.5073 37.7665 99.0837 37.4353 99.4955 37.0213C100.813 35.6966 103.86 32.7988 104.107 32.3848C107.154 28.4106 107.813 24.1052 106.825 19.717C106.331 17.7299 105.837 17.5644 104.025 18.7235C97.519 22.7805 93.8955 28.3278 93.6484 35.6966C93.6484 35.8622 94.5543 36.6902 95.2131 37.2697C95.6249 37.6837 96.2014 37.8493 96.8602 37.8493H97.9308V37.7665Z" fill="#6F6F6F"/>
<path d="M102.871 118.411C102.13 116.341 101.389 114.188 100.647 112.118C99.7415 109.552 98.9179 106.902 97.9297 104.336C96.8591 101.603 97.3532 99.1195 99.0826 96.8012C100.812 94.4001 102.541 91.9162 104.271 89.4324C104.436 89.184 104.6 88.8528 104.765 88.5216C104.436 88.5216 104.271 88.6872 104.189 88.8528C102.212 91.4195 100.236 93.9033 98.2591 96.47C96.5297 98.7883 95.9532 101.272 96.9415 104.004C97.765 106.405 98.6709 108.807 99.5768 111.208C99.7415 111.704 99.9885 112.118 100.153 112.615C100.153 112.781 100.236 112.946 100.318 113.112C100.318 113.112 100.4 113.195 100.483 113.278C100.977 114.602 101.553 116.01 102.047 117.335C102.294 117.997 102.624 118.576 102.953 119.156C103.036 118.825 102.953 118.659 102.953 118.411H102.871ZM97.8473 38.2646C97.1885 38.099 96.4473 38.2646 96.2003 38.6786C97.2709 38.6786 98.0944 39.0098 98.6709 39.5894C98.6709 38.8442 98.3415 38.4302 97.8473 38.3474V38.2646ZM96.612 40.2517C96.365 40.2517 95.8709 40.6657 95.7885 40.9969C95.6238 41.4109 95.5415 41.9904 96.1179 42.156C96.365 42.156 96.7767 41.742 97.1062 41.5765C97.1062 40.9969 97.1885 40.4173 96.612 40.2517ZM83.9297 48.2829C85.2473 48.6141 86.7297 47.9517 86.8944 47.041C85.9062 47.4549 84.9179 47.8689 83.9297 48.2829Z" fill="#8F8F8F"/>
<path d="M83.9297 48.2817C85.0003 47.8677 85.9885 47.4538 86.8944 47.0398C86.7297 47.8677 85.2473 48.5301 83.9297 48.2817ZM96.1179 42.072C95.5415 41.9892 95.6238 41.3269 95.7885 40.9129C95.9532 40.5817 96.365 40.0849 96.612 40.1677C97.1885 40.2505 97.0238 40.8301 97.1062 41.4925C96.7767 41.6581 96.4473 42.1548 96.1179 42.072ZM96.2826 38.5946C96.5297 38.1806 97.2709 38.0151 97.9297 38.1806C98.4238 38.3462 98.6709 38.6774 98.7532 39.4226C98.1767 38.843 97.3532 38.5118 96.2826 38.5118V38.5946ZM102.047 117.333C101.471 116.009 100.977 114.601 100.483 113.276C100.483 113.276 100.4 113.194 100.318 113.111C100.318 112.945 100.236 112.78 100.153 112.614C99.9885 112.117 99.7415 111.703 99.5768 111.206C98.6709 108.805 97.765 106.404 96.9415 104.003C95.9532 101.271 96.5297 98.7043 98.2591 96.4688C100.236 93.9022 102.212 91.4183 104.189 88.8516C104.353 88.686 104.518 88.5204 104.765 88.5204C104.6 88.8516 104.436 89.1 104.271 89.4312C102.541 91.9151 100.812 94.3989 99.0826 96.8C97.3532 99.1183 96.9415 101.602 97.9297 104.334C98.9179 106.901 99.7415 109.468 100.647 112.117C101.389 114.187 102.13 116.34 102.871 118.41C102.871 118.658 103.036 118.906 102.871 119.155C102.541 118.575 102.294 117.913 101.965 117.333H102.047Z" fill="#999999"/>
<path d="M101.06 119.818C95.3778 118.742 92.2484 116.672 88.0484 114.023C87.8837 113.94 87.719 113.857 87.472 113.857C87.2249 113.526 86.9778 113.277 86.6484 112.946C86.6484 112.946 86.6484 112.781 86.6484 112.698C86.8131 112.615 86.9778 112.532 87.0602 112.367C87.3073 111.539 87.472 110.794 87.5543 109.966C87.8837 106.985 88.1308 103.921 88.3778 100.941C88.3778 100.03 88.3778 99.1193 88.3778 98.2086C88.3778 95.3107 88.3778 92.4957 88.3778 89.5978L88.5426 83.5537C88.5426 83.3053 88.5426 83.1398 88.5426 82.8914C88.9543 80.4075 89.119 77.9236 89.7779 75.5225C90.7661 71.6311 92.1661 67.9053 93.2367 64.0139C93.7308 62.2752 93.8955 60.4537 93.7308 58.6322C93.7308 57.4731 93.6484 56.3139 93.5661 55.1548L93.319 54.3269C93.1543 53.3333 93.072 52.4225 92.9073 51.5118C92.9073 51.429 92.9896 51.2634 93.072 51.0978C93.072 51.015 93.072 50.8494 92.9073 50.9322C92.6602 50.9322 92.4131 50.9322 92.2484 50.9322C90.1073 51.2634 87.8837 51.5946 85.7426 51.843C85.0837 51.9258 84.4249 51.9258 83.7661 51.843C82.5308 51.843 82.0367 51.429 81.5426 50.2699C81.5426 50.2699 81.4602 50.1871 81.3778 50.1871C77.919 50.8494 75.119 49.5247 72.6484 47.2892C72.6484 47.2892 72.6484 47.1236 72.6484 47.0408C73.8837 46.4613 75.2014 45.9645 76.3543 45.3849C76.9308 45.0537 77.5896 44.557 77.4249 43.729C77.2602 42.9838 76.4367 42.901 75.7779 42.7355C75.2837 42.7355 74.7896 42.6527 74.2955 42.5699C74.1308 42.5699 74.1308 42.4043 74.2955 42.3215C75.8602 41.4935 77.3426 40.5828 78.9896 39.9204C81.5426 38.8441 84.1778 37.9333 86.8131 36.9398C88.872 36.443 91.0131 36.029 93.1543 35.5322H94.2249C94.472 35.5322 94.8014 35.5322 95.0484 35.5322H95.5426C95.7073 35.5322 95.9543 35.5322 96.2014 35.5322C96.2014 35.5322 96.2837 35.5322 96.3661 35.5322C97.4367 35.8634 98.5896 36.1946 99.6602 36.5258C100.072 36.9398 100.566 37.3537 100.978 37.7677C101.225 37.9333 101.39 38.1817 101.637 38.4301C101.801 38.5957 102.048 38.7613 102.131 39.0096C102.213 39.3408 102.295 39.5892 102.378 39.9204C102.378 40.2516 102.543 40.5828 102.543 40.9139C102.543 43.5634 102.543 46.1301 102.378 48.7795C102.213 52.0086 101.966 55.2376 103.119 58.301C103.943 60.6193 105.013 62.8548 106.001 65.1731C106.248 65.8355 106.578 66.415 106.825 67.0774C107.072 67.5742 107.319 68.1537 107.566 68.6505C110.119 74.1978 112.095 79.9107 112.919 86.0376C113.331 89.101 113.331 92.1645 113.66 95.2279C113.743 96.2215 113.99 97.1322 114.319 98.043C116.543 104.418 120.907 108.641 127.331 110.711C128.731 111.125 130.213 111.456 131.613 111.787C135.154 112.449 138.201 111.373 140.837 108.972C142.566 107.399 144.378 105.826 146.272 104.501C148.66 102.762 151.543 101.934 154.425 101.024C156.237 100.444 158.048 99.7817 159.943 99.5333C161.672 99.2021 163.401 99.3677 165.131 99.2849C165.295 99.2849 165.46 99.2849 165.543 99.3677C165.79 99.5333 165.954 99.6989 166.119 99.7817V99.9473C165.954 100.113 165.79 100.361 165.625 100.527C163.566 101.686 161.425 102.845 159.366 104.004C157.966 104.832 156.566 105.743 155.248 106.654C153.025 108.227 151.378 110.131 150.225 112.615C148.99 115.347 147.343 117.831 145.201 119.984C142.237 122.964 138.531 124.62 134.413 124.952C128.401 125.448 122.719 124.455 117.448 121.474C115.225 120.232 113.331 118.659 111.601 116.755C111.437 116.589 111.272 116.341 111.025 116.175C111.025 116.175 111.025 116.175 110.943 116.175C110.86 116.175 110.778 116.175 110.778 116.258C110.531 117.334 109.79 118.245 108.801 118.742C107.154 119.57 104.272 120.563 100.731 119.901L101.06 119.818Z" fill="#999999"/>
<path d="M76.8506 45.3026C75.5329 45.9649 74.2153 46.4617 72.8976 47.1241C71.6623 46.1305 71.58 45.0542 72.4035 43.8122C72.5682 43.6467 72.7329 43.4811 72.8976 43.3983C73.3917 43.1499 73.8035 42.8187 74.2976 42.5703C74.9564 42.5703 75.6153 42.6531 76.2741 42.8187C76.9329 42.9015 77.7564 42.9843 77.9211 43.8122C78.0859 44.6402 77.427 45.137 76.8506 45.4682V45.3026Z" fill="#202020"/>
<path d="M89.037 81.896C89.4487 79.4121 89.6135 76.9283 90.2723 74.5272C91.2605 70.6358 92.0017 70.3874 93.0723 66.5788C93.5664 64.8401 94.7193 60.7003 94.8017 57.0573C94.8017 54.2422 94.0605 51.8412 93.7311 50.8476C93.7311 50.5992 93.3193 50.5992 93.237 50.7648C89.7782 55.4014 87.7193 57.5541 83.3546 65.2541C78.9899 72.9541 76.1899 83.8003 76.7664 90.7551C77.3429 97.71 79.8958 103.423 83.7664 108.225C84.7546 109.384 85.8252 110.543 86.8958 111.62C86.9782 111.702 87.1429 111.785 87.3076 111.62C87.4723 111.537 87.5546 111.454 87.637 111.288C87.884 110.461 88.0487 109.715 88.1311 108.887C88.4605 105.907 88.7076 102.843 88.9546 99.8627C88.9546 98.9519 88.9546 98.0412 88.9546 97.1304C88.9546 94.2326 88.9546 91.3347 88.9546 88.5197L89.2017 81.896H89.037Z" fill="#F1F1F1"/>
<path d="M92.9899 41.5738C92.7428 41.5738 92.5781 42.3189 92.5781 42.6501C92.5781 43.0641 92.9075 43.6437 93.4017 43.4781C93.6487 43.3953 93.9781 42.9813 93.9781 42.4845C93.9781 41.9878 93.484 41.4082 92.9075 41.5738H92.9899Z" fill="black"/>
<path d="M81.625 50.1872C82.9426 50.5184 84.425 49.8561 84.5897 48.9453C83.6015 49.3593 82.6132 49.7733 81.625 50.1872Z" fill="black"/>
<path d="M94.5529 39.92C93.7294 39.6717 92.9059 39.92 92 40.334C92 39.8373 92.5765 39.3405 93.2353 39.1749C93.7294 39.0093 94.1412 39.1749 94.5529 39.92Z" fill="#707070"/>
<path d="M100.729 129.919C100.564 130.913 100.4 131.824 100.235 132.817C100.07 133.894 99.4114 134.473 98.3408 134.39C98.0114 134.39 97.7643 134.39 97.4349 134.39C92.5761 133.728 87.6349 133.066 82.7761 132.403C81.0467 132.155 81.0467 132.072 81.9526 130.582C83.5173 128.926 85.4937 128.346 87.6349 128.098C89.0349 127.932 90.5173 127.932 91.9996 127.932C93.482 128.015 95.0467 128.181 96.529 128.263C96.529 128.098 96.6937 127.932 96.529 127.767C96.4467 127.353 96.1996 127.022 96.1173 126.608C95.9526 126.194 95.7055 125.78 95.5408 125.366C94.5526 123.213 93.5643 121.06 92.6585 118.825C91.2584 115.513 89.8584 112.201 88.5408 108.889C86.8114 104.667 86.3996 100.444 87.882 96.1387C88.2114 95.228 88.7055 94.3172 89.1996 93.4893C89.3643 93.7376 89.529 94.0688 89.6114 94.3172C90.8467 100.361 93.6467 105.577 98.0937 109.717C99.2467 110.794 100.564 111.787 101.8 112.863C102.129 113.195 102.541 113.443 102.87 113.774C102.706 115.513 102.541 117.334 102.294 119.073C101.8 122.716 101.306 126.442 100.729 130.085V129.919Z" fill="#999999"/>
<path d="M102.706 40.5C103.2 40.7484 103.859 40.8312 104.435 40.6656C106.247 40.1689 110.282 39.0925 110.776 38.9269C115.388 36.9398 118.023 33.5452 119.341 29.157C119.917 27.1699 119.506 26.8388 117.364 26.9216C109.706 27.2527 103.776 30.3162 100.07 36.6086C100.07 36.6914 100.4 37.9334 100.647 38.7613C100.811 39.3409 101.223 39.8377 101.8 40.0861L102.706 40.5Z" fill="#999999"/>
<path d="M103.862 38.8419C104.109 38.8419 104.438 38.8419 104.768 38.6763C105.756 38.3452 107.815 37.6 108.062 37.4344C110.45 36.2753 111.768 34.6193 112.344 32.6323C112.591 31.8043 112.344 31.6387 111.191 31.8871C107.156 32.6322 102.874 33.7914 102.215 37.3516C102.215 37.7656 102.215 37.9312 102.462 38.2624C102.544 38.5107 103.038 38.5935 103.285 38.6763H103.78C103.78 38.7591 103.78 38.7591 103.78 38.7591L103.862 38.8419Z" fill="white"/>
<path d="M102.463 116.753C102.463 116.173 102.051 115.263 101.886 114.6C100.816 111.454 99.6626 108.308 98.592 105.079C97.7685 102.678 96.6979 100.111 97.2744 97.6271C97.6038 95.9712 98.5096 94.5636 99.4155 93.1561C100.651 91.4174 101.886 89.6787 103.039 87.94C103.451 87.3604 104.027 86.4497 104.027 86.2013C103.863 85.9529 102.298 88.0228 101.886 88.5195C100.651 90.0927 99.4155 91.6658 98.2626 93.2389C97.0273 94.9776 96.0391 96.9647 96.0391 99.1174C96.0391 101.932 97.4391 104.665 98.3449 107.314C99.4979 110.378 100.733 113.441 102.051 116.422C102.298 116.918 102.463 117.001 102.38 116.753H102.463Z" fill="#737373"/>
<path d="M74.2972 83.2208C74.2972 83.2208 74.4619 83.2208 74.5443 83.2208C75.6972 83.1381 76.9325 83.1381 78.0854 83.2208C78.1678 83.2208 78.3325 83.2208 78.4148 83.2208C79.0737 82.1445 79.7325 81.0682 80.309 79.9918C80.4737 79.6606 80.7207 79.5778 81.0501 79.5778C81.3795 79.5778 81.709 79.5778 81.956 79.5778C82.0384 79.5778 82.1207 79.4122 82.2854 79.4122C82.2854 79.3294 82.1207 79.1639 82.0384 79.1639C81.7913 79.0811 81.4619 78.9983 81.2148 78.9155C81.1325 78.9155 81.0501 78.9155 80.9678 78.9155C80.9678 78.9155 80.9678 78.9155 80.9678 78.8327C81.0501 78.8327 81.2148 78.7499 81.2972 78.6671C81.5443 78.4187 81.7913 78.2531 81.956 78.0047C81.956 77.9219 81.956 77.7563 82.0384 77.5907C81.8737 77.5907 81.709 77.5079 81.5443 77.5907C81.2972 77.7563 81.0501 77.9219 80.8031 78.1703C80.7207 78.1703 80.6384 78.3359 80.4737 78.5015C80.3913 78.2531 80.309 78.0047 80.1443 77.7563C80.1443 77.5907 79.9796 77.4251 79.8972 77.3423C79.8972 77.3423 79.7325 77.2596 79.6501 77.1768C79.6501 77.2596 79.4854 77.3424 79.4854 77.5079C79.4854 77.9219 79.4854 78.2531 79.4854 78.6671C79.4854 79.3294 79.3207 79.8262 78.909 80.2402C78.0031 81.0682 77.0148 81.7305 76.0266 82.3929C75.4501 82.8069 74.7913 83.138 74.2148 83.4692L74.2972 83.2208Z" fill="#ABABAB"/>
<path d="M81.1307 103.34C81.2955 103.671 81.4602 104.002 81.6249 104.333C81.7896 104.664 82.119 104.83 82.4484 104.664C82.5307 104.664 82.6131 104.664 82.7778 104.582C84.4249 103.836 86.0719 103.091 87.719 102.263C88.2955 102.015 88.2954 101.932 87.8013 101.518C87.0602 101.104 86.319 101.104 85.5778 101.27C85.0837 101.353 84.5072 101.518 84.0131 101.684C83.519 101.849 82.9425 102.098 82.4484 102.263C82.4484 102.263 82.4484 102.181 82.4484 102.098C82.4484 101.932 82.4484 101.767 82.4484 101.684C82.4484 101.518 82.4484 101.353 82.4484 101.187C82.5307 100.359 82.6955 99.4483 82.7778 98.5376C82.9425 97.2128 83.0249 95.8881 83.1896 94.5634C83.3543 92.9074 83.0249 91.3343 82.0366 90.0096C81.7896 89.6784 81.5425 89.43 81.2954 89.1816C81.2954 89.2644 81.2954 89.43 81.2954 89.5128C81.4602 91.7483 81.0484 93.901 79.8955 95.8881C79.566 96.3849 79.2366 96.8816 78.9072 97.3784C78.8249 97.544 78.7425 97.7096 78.6602 97.7924C78.9072 98.372 79.1543 99.0343 79.4013 99.6139C79.9778 100.856 80.5543 102.098 81.1307 103.34Z" fill="#ABABAB"/>
<path d="M70.922 71.6283C70.6749 71.6283 70.5102 71.6283 70.3455 71.4627C69.769 71.0488 68.5337 70.138 68.369 70.0552C67.0514 68.7305 66.5573 67.2402 66.722 65.5843C66.722 64.8391 66.969 64.7563 67.7102 65.0875C70.3455 66.1638 71.9926 67.9853 72.4043 70.7176C72.4043 70.7176 72.0749 71.1316 71.9102 71.38C71.7455 71.5455 71.5808 71.6283 71.3337 71.7111H70.922V71.6283Z" fill="#8E8E8E"/>
<path d="M74.2951 99.2842V99.1187C74.2951 98.9531 74.3774 98.7875 74.4598 98.6219C74.6245 97.7939 74.7892 96.966 74.9539 96.138C74.9539 96.0552 74.9539 95.9724 74.9539 95.8068C74.9539 95.5584 74.9539 95.31 74.9539 95.0617C74.9539 94.6477 74.7892 94.2337 74.5421 93.9025C74.3774 93.6541 74.2127 93.4885 74.048 93.2402C73.2245 92.4122 72.3186 91.5842 71.4951 90.8391C71.4951 90.8391 71.3304 90.7563 71.248 90.7563C71.3304 90.8391 71.4127 91.0047 71.4951 91.0875C72.2363 91.9154 73.0598 92.7434 73.801 93.4885C74.2951 93.9853 74.6245 94.5649 74.7068 95.2273C74.7068 95.5584 74.7068 95.8896 74.7068 96.2208C74.7068 96.6348 74.5421 96.966 74.4598 97.3799C74.3774 97.9595 74.2127 98.5391 74.1304 99.1187C74.048 99.781 73.8833 100.361 73.801 100.94C73.801 101.106 73.801 101.354 73.7186 101.52C73.7186 101.52 73.7186 101.685 73.7186 101.768C73.7186 101.52 73.8833 101.271 73.8833 101.023C74.048 100.526 74.1304 99.9466 74.2127 99.4498L74.2951 99.2842ZM71.001 71.7961C70.8363 71.8789 70.7539 72.0445 70.7539 72.2928C70.9186 72.0445 71.248 71.8789 71.5774 71.7961C71.4951 71.6305 71.1657 71.6305 71.001 71.7961ZM71.9068 72.7068C71.9068 72.624 71.7421 72.5412 71.6598 72.4584C71.5774 72.4584 71.4951 72.5412 71.4951 72.624C71.4951 72.624 71.4951 72.624 71.4951 72.7068V72.8724C71.5774 72.8724 71.8245 73.038 71.9068 73.038C72.1539 73.038 72.0716 72.7068 71.9068 72.624V72.7068ZM75.5304 74.3627C75.6951 74.6939 76.1892 74.8595 76.6833 74.6111C76.2716 74.5283 75.8598 74.4455 75.5304 74.3627Z" fill="#8F8F8F"/>
<path d="M75.5304 74.3627C75.6951 74.6939 76.1892 74.8595 76.6833 74.6111C76.2716 74.5283 75.8598 74.4455 75.5304 74.3627ZM71.9068 72.7068C71.9068 72.624 71.7421 72.5412 71.6598 72.4584C71.5774 72.4584 71.4951 72.5412 71.4951 72.624C71.4951 72.624 71.4951 72.624 71.4951 72.7068V72.8724C71.5774 72.8724 71.8245 73.038 71.9068 73.038C72.1539 73.038 72.0716 72.7068 71.9068 72.624V72.7068ZM71.001 71.7961C70.8363 71.8789 70.7539 72.0445 70.7539 72.2928C70.9186 72.0445 71.248 71.8789 71.5774 71.7961C71.4951 71.6305 71.1657 71.6305 71.001 71.7961ZM74.2951 99.2842V99.1187C74.2951 98.9531 74.3774 98.7875 74.4598 98.6219C74.6245 97.7939 74.7892 96.966 74.9539 96.138C74.9539 96.0552 74.9539 95.9724 74.9539 95.8068C74.9539 95.5584 74.9539 95.31 74.9539 95.0617C74.9539 94.6477 74.7892 94.2337 74.5421 93.9025C74.3774 93.6541 74.2127 93.4885 74.048 93.2402C73.2245 92.4122 72.3186 91.5842 71.4951 90.8391C71.4951 90.8391 71.3304 90.7563 71.248 90.7563C71.3304 90.8391 71.4127 91.0047 71.4951 91.0875C72.2363 91.9154 73.0598 92.7434 73.801 93.4885C74.2951 93.9853 74.6245 94.5649 74.7068 95.2273C74.7068 95.5584 74.7068 95.8896 74.7068 96.2208C74.7068 96.6348 74.5421 96.966 74.4598 97.3799C74.3774 97.9595 74.2127 98.5391 74.1304 99.1187C74.048 99.781 73.8833 100.361 73.801 100.94C73.801 101.106 73.801 101.354 73.7186 101.52C73.7186 101.52 73.7186 101.685 73.7186 101.768C73.7186 101.52 73.8833 101.271 73.8833 101.023C74.048 100.526 74.1304 99.9466 74.2127 99.4498L74.2951 99.2842Z" fill="#ABABAB"/>
<path d="M72.8132 102.015C73.3074 102.015 73.8838 102.015 74.4603 101.767C75.1191 101.518 75.6956 101.27 76.1897 100.939C77.1779 100.359 77.9191 99.697 78.825 98.869C78.825 98.869 78.9074 98.869 78.9897 98.7862C78.9897 98.7034 79.1544 98.6206 79.1544 98.5379C79.1544 98.5379 78.9897 98.5378 78.9897 98.455V98.2067C78.825 98.0411 78.7426 97.9583 78.7426 97.7927V97.6271C78.4132 96.5507 78.1662 95.4744 77.8368 94.3981C77.8368 94.0669 77.7544 93.7357 77.6721 93.4045C77.5074 92.3282 77.3426 91.3346 77.1779 90.2583L76.9309 89.0163L76.7662 88.1056C76.7662 88.1056 76.7662 87.94 76.7662 87.8572C76.7662 87.6916 76.6838 87.526 76.6015 87.3604C76.6015 87.3604 76.6015 87.3604 76.6015 87.2776C76.4368 86.6981 76.2721 86.1185 76.1074 85.6217V85.5389C76.1074 85.5389 76.1074 85.3733 76.025 85.2905C75.7779 84.711 75.5309 84.1314 75.2015 83.5518C75.2015 83.3862 75.0368 83.2206 74.9544 83.1378C74.625 82.5583 74.3779 81.8959 74.0485 81.3163C73.7191 80.7368 73.6368 80.0744 73.5544 79.412C73.5544 78.9981 73.4721 78.5841 73.3897 78.1701V77.8389C73.3897 77.5077 73.3897 77.0938 73.3897 76.7626V76.597C73.3897 76.597 73.5544 76.597 73.6368 76.597C74.4603 76.597 75.2838 76.597 76.1074 76.597C76.3544 76.597 76.6015 76.597 76.8485 76.5142C77.2603 76.5142 77.425 76.2658 77.5074 75.8518C78.7426 75.8518 79.7309 75.2723 80.4721 74.2787C79.9779 74.1131 79.4838 74.0303 78.9897 73.8647C78.7426 73.8647 78.4956 73.6163 78.4956 73.368C78.4956 73.2024 78.5779 73.1196 78.7426 73.0368C78.7426 73.0368 78.9074 73.0368 78.9897 73.0368C79.1544 73.0368 79.4015 72.954 79.5662 72.8712V72.7884C78.9897 72.54 78.3309 72.2916 77.7544 72.2088C76.7662 71.9604 75.7779 71.7948 74.7074 71.5464C73.8838 71.5464 73.1426 71.4637 72.3191 71.3809H71.9074C71.825 71.3809 71.7426 71.3809 71.5779 71.4637H71.4132C71.4132 71.4637 71.2485 71.4637 71.1662 71.4637C70.7544 71.6292 70.425 71.7948 70.0132 72.0432C69.8485 72.2088 69.7662 72.3744 69.6015 72.54C69.6015 72.6228 69.4368 72.7056 69.3544 72.7884C69.3544 72.7884 69.1897 72.954 69.1897 73.0368C69.1897 73.1196 69.1897 73.2852 69.1897 73.368C69.1897 73.4508 69.1897 73.5335 69.1897 73.6163C69.1897 73.6163 69.1897 73.6163 69.1897 73.6991C69.3544 74.6927 69.5191 75.6034 69.6838 76.5142C69.9309 77.6733 70.1779 78.8325 69.9309 80.0744C69.7662 80.9852 69.5191 81.8959 69.2721 82.7239C69.2721 82.9723 69.1897 83.2206 69.1074 83.469L68.9426 84.1314C68.3662 86.0357 68.0368 87.94 67.9544 89.9271V90.7551C67.9544 91.9142 68.1191 92.9905 68.2015 94.1497C68.2015 94.4809 68.2015 94.8948 68.1191 95.226C68.0368 95.8056 67.8721 96.3852 67.625 96.8819C69.025 98.6206 70.5897 100.442 72.2368 102.264L72.6485 102.678L72.8132 102.015Z" fill="#ABABAB"/>
<path d="M79.0722 73.2048C79.5664 73.3704 80.0605 73.4532 80.6369 73.6188C81.0487 73.2048 81.0487 72.7908 80.6369 72.3769C80.6369 72.3769 80.4722 72.2941 80.3899 72.2113C80.2252 72.2113 79.9781 72.0457 79.8134 71.9629C79.5664 71.9629 79.3193 72.0457 79.1546 72.1285C78.9075 72.1285 78.6605 72.2941 78.5781 72.5425C78.5781 72.8736 78.8252 73.0392 79.0722 73.0392V73.2048Z" fill="#202020"/>
<path d="M76.6844 87.2801C76.4373 86.3693 76.1903 85.4586 75.8608 84.6306C75.2844 83.3059 75.0373 83.2231 74.3785 81.8983C74.1314 81.3188 73.4726 79.8285 73.2255 78.5037C73.0608 77.5102 73.2255 76.5166 73.2255 76.1854C73.2255 76.1027 73.3903 76.0199 73.3903 76.1854C74.8726 77.6758 75.7785 78.3381 77.8373 80.9048C79.8961 83.4715 81.4608 87.2801 81.6255 89.8467C81.7903 92.4134 81.2138 94.6489 80.0608 96.636C79.8138 97.1328 79.402 97.5467 79.155 98.0435C79.155 98.0435 79.0726 98.0435 78.9903 98.0435C78.9903 98.0435 78.9079 98.0435 78.8255 97.9607C78.6608 97.7123 78.5785 97.3811 78.4961 97.1328C78.2491 96.0564 78.002 94.9801 77.6726 93.9037C77.6726 93.5725 77.5903 93.2414 77.5079 92.9102C77.3432 91.8338 77.1785 90.8403 77.0138 89.7639L76.602 87.3629L76.6844 87.2801Z" fill="#EDEDED"/>
<path d="M74.7099 88.1082L72.9805 85.5415L74.8746 85.3759L76.4393 85.1276L77.3452 84.8792L78.2511 84.548L78.6628 84.2168L78.9922 83.72L79.4864 82.5609L79.6511 82.3125H79.7334L79.8981 82.4781V82.8921V83.72L80.3099 83.6372H81.0511C81.0511 83.5544 81.3805 83.5544 81.3805 83.5544L81.5452 83.72V83.9684L81.2981 84.134L80.6393 84.3824L79.9805 84.548L80.3099 84.7964L80.9687 85.3759V85.6243V85.7899H80.6393L79.6511 85.2932H79.3216L78.9099 85.5415L78.004 86.1211L75.6981 87.6114L74.6275 88.1082H74.7099Z" fill="#ABABAB"/>
<path d="M74.7092 88.1055C75.7798 87.6087 76.8504 86.9463 77.8386 86.284C78.1681 86.0356 78.4975 85.7872 78.8269 85.6216C78.9092 85.6216 78.9916 85.5388 79.0739 85.456C79.321 85.2076 79.5681 85.2076 79.8975 85.3732C80.1445 85.5388 80.3916 85.6216 80.6386 85.7872C80.721 85.7872 80.8857 85.7872 80.9681 85.7872C81.2151 85.7872 81.2975 85.6216 81.1328 85.456C80.9681 85.2076 80.721 85.042 80.4739 84.7936C80.4739 84.7936 80.3092 84.7109 80.2269 84.6281V84.5453C80.4739 84.5453 80.721 84.4625 80.9681 84.3797C81.1328 84.3797 81.2975 84.2141 81.3798 84.1313C81.4622 84.0485 81.6269 83.8829 81.6269 83.8001C81.6269 83.6345 81.4622 83.5517 81.2975 83.5517C80.9681 83.5517 80.6386 83.6345 80.3092 83.7173C80.3092 83.7173 80.1445 83.7173 80.0622 83.7173C80.0622 83.5517 80.0622 83.3861 80.0622 83.2205C80.0622 83.0549 80.0622 82.8066 80.0622 82.641C80.0622 82.5582 79.9798 82.4754 79.8975 82.3926C79.8151 82.3926 79.7328 82.4754 79.6504 82.5582C79.4857 82.8893 79.321 83.2205 79.2386 83.5517C79.2386 83.5517 79.2386 83.7173 79.1563 83.8001C78.9092 84.4625 78.3328 84.7109 77.7563 84.8764C76.3563 85.2904 74.8739 85.456 73.3916 85.5388C73.3916 85.5388 73.2269 85.5388 73.1445 85.5388V85.6216C74.5445 85.6216 75.8622 85.3732 77.1798 85.1248C77.5916 85.042 78.0034 84.8764 78.4151 84.7109C78.7445 84.5453 78.9916 84.2969 79.1563 83.9657C79.321 83.5517 79.4857 83.1377 79.7328 82.7238C79.7328 82.7238 79.8151 82.5582 79.8975 82.5582C79.8975 82.5582 80.0622 82.7238 80.0622 82.8066C80.0622 83.1377 80.0622 83.4689 80.0622 83.8001C80.0622 83.8001 80.0622 83.9657 80.0622 84.0485C80.3092 83.9657 80.4739 83.8829 80.721 83.8001C80.9681 83.8001 81.2151 83.8001 81.5445 83.8001C81.8739 83.8001 81.7092 83.8001 81.7916 83.9657C81.7916 83.9657 81.7916 84.1313 81.6269 84.2141C81.3798 84.2969 81.2151 84.3797 80.9681 84.4625C80.721 84.4625 80.4739 84.6281 80.2269 84.6281C80.2269 84.6281 80.2269 84.6281 80.2269 84.7109C80.4739 84.8764 80.721 85.042 80.9681 85.2076C81.0504 85.2076 81.1328 85.3732 81.2151 85.5388C81.2151 85.5388 81.2151 85.7044 81.2151 85.7872C81.2151 85.7872 81.0504 85.7872 80.9681 85.7872C80.8034 85.7044 80.5563 85.6216 80.3916 85.5388C80.2269 85.5388 80.1445 85.3732 79.9798 85.3732C79.7328 85.2904 79.4857 85.2904 79.2386 85.5388C79.2386 85.6216 79.0739 85.7044 78.9916 85.7872C78.4975 86.1184 77.921 86.5324 77.4269 86.8635C76.6034 87.3603 75.7798 87.9399 74.8739 88.3539V88.4367L74.7092 88.1055Z" fill="#737373"/>
<path d="M71.4955 72.9548C71.6602 72.9548 71.7426 73.1204 71.9073 73.1204C72.072 73.1204 72.072 72.7892 71.9073 72.7064C71.9073 72.6236 71.6602 72.458 71.5779 72.458C71.4131 72.458 71.4131 72.7064 71.4955 72.9548Z" fill="#202020"/>
<path d="M70.7539 72.2928C70.9186 72.0445 71.248 71.8789 71.5774 71.7961C71.4951 71.6305 71.1657 71.6305 71.001 71.7961C70.8363 71.7961 70.7539 72.0445 70.7539 72.2928Z" fill="black"/>
<path d="M71.5808 73.0362C71.7455 73.2018 71.9102 73.2845 72.0749 73.2017C72.322 73.119 72.2396 72.7878 72.0749 72.705C71.9926 72.5394 71.7455 72.3738 71.6632 72.4566C71.4161 72.5394 71.4161 72.8706 71.4985 73.119L71.5808 73.0362Z" fill="black"/>
<path d="M76.4375 74.9414C76.5199 75.2726 77.0963 75.4382 77.5904 75.1898C77.1787 75.107 76.7669 75.0242 76.4375 74.9414Z" fill="black"/>
<path d="M70.7539 72.2928C70.9186 72.0445 71.248 71.8789 71.5774 71.7961C71.4951 71.6305 71.1657 71.6305 71.001 71.7961C70.8363 71.7961 70.7539 72.0445 70.7539 72.2928Z" fill="#707070"/>
<path d="M72.8151 102.016C73.6386 102.844 74.4621 103.755 75.2857 104.5L75.4504 104.003C75.6974 103.175 75.9445 102.347 76.1092 101.437C76.1092 101.271 76.1092 101.105 76.2739 100.857C76.521 99.7806 76.8504 98.6215 77.0974 97.5451C77.5092 95.8892 77.4268 94.3161 76.6033 92.8258C76.4386 92.4946 76.1915 92.2462 76.0268 91.915C76.0268 91.9978 76.0268 92.1634 75.9445 92.2462C75.9445 93.5709 75.6151 94.8129 75.121 95.8892C75.121 95.972 75.121 96.0548 74.9563 96.1376C74.8739 96.4688 74.7092 96.7172 74.5445 96.8828C74.5445 96.9656 74.4621 97.0484 74.3798 97.1312C74.1327 97.5451 73.8857 97.8763 73.6386 98.2075C73.3092 98.7043 72.8151 99.1183 72.4857 99.5322C72.4033 99.6978 72.2386 99.7806 72.1562 99.9462C72.2386 100.443 72.4033 100.857 72.4857 101.271L72.8974 101.685L72.8151 102.016Z" fill="#ABABAB"/>
<path d="M69.4378 72.9556C69.2731 73.0384 69.0261 73.1212 68.779 73.1212C68.0378 73.0384 66.5555 72.8728 66.3908 72.79C64.579 72.2933 63.4261 71.2169 62.7672 69.7266C62.4378 69.0642 62.6025 68.8986 63.3437 68.8158C66.1437 68.4847 68.4496 69.3126 70.179 71.3825C70.179 71.3825 70.179 71.8793 70.0967 72.2105C70.0967 72.4589 69.932 72.6244 69.7672 72.7072L69.4378 72.9556Z" fill="#ABABAB"/>
<path d="M68.8594 72.3765C68.777 72.3765 68.6947 72.3765 68.53 72.3765C68.1182 72.3765 67.377 72.1281 67.2123 72.1281C66.3064 71.797 65.73 71.3002 65.4006 70.6378C65.2358 70.3066 65.4006 70.3066 65.73 70.3066C67.2947 70.3066 68.8594 70.555 69.2711 71.797C69.2711 71.9626 69.2711 72.0454 69.2711 72.1281C69.2711 72.2109 69.1064 72.2937 69.0241 72.2937H68.8594V72.3765Z" fill="white"/>
<path d="M73.7199 100.691C73.7199 100.773 73.7199 100.691 73.8023 100.525C74.1317 99.3659 74.3788 98.2067 74.6258 96.9648C74.7905 95.9713 75.1199 94.8949 75.0376 93.8186C74.9552 93.0734 74.4611 92.3283 73.8846 91.8315C73.3905 91.3347 72.8141 90.8379 72.3199 90.3412C72.1552 90.1756 71.4964 89.5132 71.4141 89.596C71.4141 89.6788 71.6611 90.01 71.9082 90.1756C72.4023 90.7551 72.9788 91.3347 73.5552 91.8315C73.967 92.2455 74.3788 92.7422 74.6258 93.3218C74.9552 94.2326 74.7082 95.2261 74.6258 96.1369C74.3788 97.3788 74.2141 98.5379 73.967 99.7799C73.967 100.028 73.8846 100.359 73.8846 100.608L73.7199 100.691Z" fill="#737373"/>
<path d="M88.3782 112.365C88.3782 112.613 88.1312 112.862 87.8017 112.779C84.6723 112.282 81.1312 109.798 77.59 106.652C77.0135 106.073 76.3547 105.493 75.7782 104.913C75.6135 104.748 75.4488 104.582 75.2017 104.417C74.3782 103.589 73.5547 102.761 72.7312 101.933C72.5664 101.767 72.4841 101.602 72.3194 101.519C70.6723 99.6973 69.1076 97.8758 67.7076 96.1371C65.237 93.1564 63.2606 90.4242 62.1076 88.7683C61.7782 88.3543 62.2723 87.8575 62.6841 88.0231C64.2488 88.6855 66.1429 89.0166 68.037 89.1822C70.837 89.3478 73.8841 89.1822 76.8488 88.6855C76.8488 88.6855 76.8488 88.6855 76.9312 88.6855C78.4135 88.4371 79.8135 88.1887 81.2135 87.8575C85.7429 86.864 89.6135 85.622 91.0959 85.1252C91.4253 85.0424 91.7547 85.2908 91.7547 85.7048L88.2959 112.448L88.3782 112.365Z" fill="#999999"/>
<path d="M100.648 78.2535L95.6244 71.6299L93.6479 76.3492L91.6714 80.2406L90.3538 82.3933L88.7891 84.546L87.6361 85.2912L85.9891 85.7052L82.5302 85.9535L81.7891 86.2847V86.5331L82.0361 87.0299L83.0244 87.5267L85.2479 88.189V88.4374L84.5891 89.431L83.6832 91.2525L83.5185 92.0804L83.7655 92.5772H84.4244L85.0008 92.246L86.2361 90.7557L87.0596 89.2654L87.3891 90.2589L88.2949 92.4116L88.8714 92.8256L89.4479 92.5772L89.6126 91.6664L89.2008 88.6858L89.4479 87.8578L90.4361 87.1127L92.742 85.374L98.5891 80.6546L100.813 78.3363L100.648 78.2535Z" fill="#999999"/>
<path d="M100.813 78.255C100.813 78.255 100.813 78.255 100.813 78.3378C98.5897 80.7388 95.9544 82.8087 93.4015 84.8786C92.5779 85.541 91.6721 86.1205 90.8485 86.7829C90.6015 86.9485 90.4368 87.1969 90.1897 87.3625C89.3662 87.7765 89.0368 88.4388 89.2015 89.3496C89.3662 90.0947 89.4485 90.8399 89.5309 91.6679C89.5309 91.999 89.5309 92.3302 89.3662 92.6614C89.1191 93.1582 88.5426 93.241 88.2956 92.827C87.8838 92.1646 87.5544 91.3367 87.225 90.5915C87.1426 90.3431 87.0603 90.1775 86.9779 89.8464C86.9779 89.6808 86.8132 89.6808 86.7309 89.8464C86.3191 90.5087 86.0721 91.0055 85.7426 91.5851C85.4132 91.9162 85.1662 92.2474 84.8368 92.4958C84.5074 92.7442 84.0132 92.9926 83.6838 92.827C83.1897 92.6614 83.1074 92.0818 83.3544 91.6679C83.7662 90.8399 84.1779 90.0119 84.6721 89.184C84.7544 89.0184 84.9191 88.8528 85.0015 88.6872C85.0015 88.6872 85.0015 88.5216 85.0015 88.4388C84.5074 88.2732 84.0956 88.1904 83.6838 88.0248C83.1897 87.8593 82.6132 87.6937 82.1191 87.4453C81.8721 87.2797 81.7074 87.0313 81.625 86.7001V86.5345C81.8721 86.3689 82.1191 86.1205 82.3662 86.0378C83.3544 85.8722 84.3426 85.8722 85.3309 85.7894C85.5779 85.7894 85.7426 85.7894 85.9897 85.7066C87.8838 85.7066 89.1191 84.4646 90.025 82.9743C92.2485 79.6625 93.8956 76.0195 95.3779 72.2937C95.3779 72.1281 95.5426 71.8797 95.625 71.7141C95.7074 71.5485 95.9544 71.7141 95.8721 71.8797C94.4721 75.3571 92.9897 78.7517 91.0956 81.898C90.5191 82.8915 89.6956 83.8023 88.9544 84.713C88.2956 85.541 87.3897 85.8722 86.3191 85.955C85.0838 86.0378 83.8485 86.1205 82.6132 86.2861C82.4485 86.2861 82.2015 86.4517 82.0368 86.5345C82.0368 86.5345 81.9544 86.7001 82.0368 86.7829C82.2015 87.0313 82.2838 87.2797 82.5309 87.2797C83.3544 87.6109 84.1779 87.7765 85.0015 88.0248C85.1662 88.0248 85.4132 88.1076 85.6603 88.1904C85.7426 88.1904 85.825 88.356 85.6603 88.4388C85.2485 88.9356 84.8368 89.3496 84.5074 89.8464C84.1779 90.4259 83.8485 91.1711 83.6838 91.8335C83.6838 91.999 83.6838 92.413 83.8485 92.4958C84.0132 92.5786 84.425 92.4958 84.5897 92.3302C85.0838 91.8335 85.4956 91.3367 85.825 90.8399C86.2368 90.2603 86.5662 89.6808 86.9779 89.0184C86.9779 88.9356 87.225 88.9356 87.225 89.0184C87.4721 89.8464 87.7191 90.5915 87.9662 91.3367C88.0485 91.6679 88.2956 91.999 88.4603 92.2474C88.625 92.413 88.8721 92.4958 89.0368 92.4958C89.1191 92.4958 89.2838 92.1646 89.2838 91.9163C89.2838 91.3367 89.1191 90.6743 89.0368 90.0947C89.0368 89.6808 88.9544 89.3496 88.8721 88.9356C88.8721 88.1076 89.0368 87.4453 89.8603 87.1141C90.1897 86.9485 90.4368 86.7829 90.6838 86.6173C92.0015 85.541 93.4015 84.5474 94.7191 83.4711C96.7779 81.8152 98.9191 80.2421 100.649 78.1722C100.731 78.0894 100.978 78.1722 100.896 78.255H100.813Z" fill="#737373"/>
</g>
</g>
<g clip-path="url(#clip1_1058_7125)">
<path d="M79.4833 85.3711C79.4833 85.3711 63.6715 87.5238 62.2715 88.1862C60.9539 88.8485 73.1421 93.8991 73.1421 93.8991L93.4833 90.1733L95.048 85.4539C95.048 85.4539 82.6127 84.626 79.4833 85.4539V85.3711Z" fill="#606060"/>
<path d="M83.9323 66.993C83.9323 67.2413 83.9323 67.4069 83.9323 67.6553C82.6146 70.636 81.4617 73.6166 80.6381 76.7628C80.6381 77.094 80.3087 77.3424 80.144 77.5908C76.8499 78.2532 73.5558 78.9155 70.1793 79.4951C69.1911 79.6607 68.697 80.0747 68.4499 80.9854C68.2028 81.8134 67.9558 82.6413 67.6264 83.3865C67.544 83.6349 67.1323 83.8005 66.8028 83.9661C66.6381 83.7177 66.3087 83.4693 66.3087 83.1381C66.3087 82.3102 66.4734 81.565 66.5558 80.737C66.5558 80.4887 66.6381 80.2403 66.7205 79.9919C66.7205 79.9919 66.5558 79.8263 66.5558 79.7435C66.3087 79.9091 66.0617 80.1575 65.8146 80.3231C65.0734 80.737 64.2499 81.151 63.4264 81.3994C63.097 81.4822 62.6852 81.3994 62.2734 81.2338C62.3558 80.8198 62.2734 80.2403 62.6028 79.9919C63.2617 79.4123 64.0028 78.9983 64.6617 78.5843C64.9087 78.4188 65.2381 78.336 65.7323 78.0876C65.1558 77.5908 64.6617 77.094 64.1676 76.6801C63.8381 76.3489 63.5087 76.1005 63.344 75.6865C63.1793 75.4381 63.2617 75.1069 63.1793 74.7757C63.5087 74.7757 63.8381 74.6102 64.0852 74.693C65.0734 75.0241 65.9793 75.4381 66.8852 75.8521C68.4499 76.5973 70.0146 76.5973 71.5793 75.8521C74.4617 74.3618 77.097 72.4575 79.6499 70.4704C81.1323 69.3112 82.6146 68.0693 84.1793 66.9102L83.9323 66.993Z" fill="#999999"/>
<path d="M97.9308 37.7665C98.5073 37.7665 99.0837 37.4353 99.4955 37.0213C100.813 35.6966 103.86 32.7988 104.107 32.3848C107.154 28.4106 107.813 24.1052 106.825 19.717C106.331 17.7299 105.837 17.5644 104.025 18.7235C97.519 22.7805 93.8955 28.3278 93.6484 35.6966C93.6484 35.8622 94.5543 36.6902 95.2131 37.2697C95.6249 37.6837 96.2014 37.8493 96.8602 37.8493H97.9308V37.7665Z" fill="#6F6F6F"/>
<path d="M102.871 118.409C102.13 116.339 101.389 114.186 100.647 112.116C99.7415 109.55 98.9179 106.9 97.9297 104.334C96.8591 101.601 97.3532 99.1175 99.0826 96.7992C100.812 94.3982 102.541 91.9143 104.271 89.4304C104.436 89.182 104.6 88.8508 104.765 88.5197C104.436 88.5197 104.271 88.6853 104.189 88.8508C102.212 91.4175 100.236 93.9014 98.2591 96.4681C96.5297 98.7863 95.9532 101.27 96.9415 104.002C97.765 106.404 98.6709 108.805 99.5768 111.206C99.7415 111.702 99.9885 112.116 100.153 112.613C100.153 112.779 100.236 112.944 100.318 113.11C100.318 113.11 100.4 113.193 100.483 113.276C100.977 114.6 101.553 116.008 102.047 117.333C102.294 117.995 102.624 118.575 102.953 119.154C103.036 118.823 102.953 118.657 102.953 118.409H102.871ZM97.8473 38.2627C97.1885 38.0971 96.4473 38.2627 96.2003 38.6767C97.2709 38.6767 98.0944 39.0078 98.6709 39.5874C98.6709 38.8422 98.3415 38.4283 97.8473 38.3455V38.2627ZM96.612 40.2498C96.365 40.2498 95.8709 40.6637 95.7885 40.9949C95.6238 41.4089 95.5415 41.9885 96.1179 42.1541C96.365 42.1541 96.7767 41.7401 97.1062 41.5745C97.1062 40.9949 97.1885 40.4154 96.612 40.2498ZM83.9297 48.281C85.2473 48.6121 86.7297 47.9498 86.8944 47.039C85.9062 47.453 84.9179 47.867 83.9297 48.281Z" fill="#8F8F8F"/>
<path d="M83.9297 48.2817C85.0003 47.8677 85.9885 47.4538 86.8944 47.0398C86.7297 47.8677 85.2473 48.5301 83.9297 48.2817ZM96.1179 42.072C95.5415 41.9892 95.6238 41.3269 95.7885 40.9129C95.9532 40.5817 96.365 40.0849 96.612 40.1677C97.1885 40.2505 97.0238 40.8301 97.1062 41.4925C96.7767 41.6581 96.4473 42.1548 96.1179 42.072ZM96.2826 38.5946C96.5297 38.1806 97.2709 38.0151 97.9297 38.1806C98.4238 38.3462 98.6709 38.6774 98.7532 39.4226C98.1767 38.843 97.3532 38.5118 96.2826 38.5118V38.5946ZM102.047 117.333C101.471 116.009 100.977 114.601 100.483 113.276C100.483 113.276 100.4 113.194 100.318 113.111C100.318 112.945 100.236 112.78 100.153 112.614C99.9885 112.117 99.7415 111.703 99.5768 111.206C98.6709 108.805 97.765 106.404 96.9415 104.003C95.9532 101.271 96.5297 98.7043 98.2591 96.4688C100.236 93.9022 102.212 91.4183 104.189 88.8516C104.353 88.686 104.518 88.5204 104.765 88.5204C104.6 88.8516 104.436 89.1 104.271 89.4312C102.541 91.9151 100.812 94.3989 99.0826 96.8C97.3532 99.1183 96.9415 101.602 97.9297 104.334C98.9179 106.901 99.7415 109.468 100.647 112.117C101.389 114.187 102.13 116.34 102.871 118.41C102.871 118.658 103.036 118.906 102.871 119.155C102.541 118.575 102.294 117.913 101.965 117.333H102.047Z" fill="#999999"/>
<path d="M101.06 119.817C95.3778 118.741 92.2484 116.671 88.0484 114.022C87.8837 113.939 87.719 113.856 87.472 113.856C87.2249 113.525 86.9778 113.276 86.6484 112.945C86.6484 112.945 86.6484 112.78 86.6484 112.697C86.8131 112.614 86.9778 112.531 87.0602 112.366C87.3073 111.538 87.472 110.793 87.5543 109.965C87.8837 106.984 88.1308 103.92 88.3778 100.94C88.3778 100.029 88.3778 99.1183 88.3778 98.2076C88.3778 95.3097 88.3778 92.4947 88.3778 89.5968L88.5426 83.5527C88.5426 83.3044 88.5426 83.1388 88.5426 82.8904C88.9543 80.4065 89.119 77.9226 89.7779 75.5216C90.7661 71.6302 92.1661 67.9044 93.2367 64.013C93.7308 62.2743 93.8955 60.4528 93.7308 58.6312C93.7308 57.4721 93.6484 56.313 93.5661 55.1538L93.319 54.3259C93.1543 53.3323 93.072 52.4216 92.9073 51.5108C92.9073 51.428 92.9896 51.2624 93.072 51.0968C93.072 51.014 93.072 50.8485 92.9073 50.9312C92.6602 50.9312 92.4131 50.9312 92.2484 50.9312C90.1073 51.2624 87.8837 51.5936 85.7426 51.842C85.0837 51.9248 84.4249 51.9248 83.7661 51.842C82.5308 51.842 82.0367 51.428 81.5426 50.2689C81.5426 50.2689 81.4602 50.1861 81.3778 50.1861C77.919 50.8485 75.119 49.5237 72.6484 47.2882C72.6484 47.2882 72.6484 47.1226 72.6484 47.0399C73.8837 46.4603 75.2014 45.9635 76.3543 45.3839C76.9308 45.0528 77.5896 44.556 77.4249 43.728C77.2602 42.9829 76.4367 42.9001 75.7779 42.7345C75.2837 42.7345 74.7896 42.6517 74.2955 42.5689C74.1308 42.5689 74.1308 42.4033 74.2955 42.3205C75.8602 41.4925 77.3426 40.5818 78.9896 39.9194C81.5426 38.8431 84.1778 37.9323 86.8131 36.9388C88.872 36.442 91.0131 36.028 93.1543 35.5312H94.2249C94.472 35.5312 94.8014 35.5312 95.0484 35.5312H95.5426C95.7073 35.5312 95.9543 35.5312 96.2014 35.5312C96.2014 35.5312 96.2837 35.5312 96.3661 35.5312C97.4367 35.8624 98.5896 36.1936 99.6602 36.5248C100.072 36.9388 100.566 37.3528 100.978 37.7667C101.225 37.9323 101.39 38.1807 101.637 38.4291C101.801 38.5947 102.048 38.7603 102.131 39.0087C102.213 39.3399 102.295 39.5882 102.378 39.9194C102.378 40.2506 102.543 40.5818 102.543 40.913C102.543 43.5624 102.543 46.1291 102.378 48.7786C102.213 52.0076 101.966 55.2366 103.119 58.3001C103.943 60.6183 105.013 62.8538 106.001 65.1721C106.248 65.8345 106.578 66.414 106.825 67.0764C107.072 67.5732 107.319 68.1528 107.566 68.6495C110.119 74.1968 112.095 79.9097 112.919 86.0366C113.331 89.1001 113.331 92.1635 113.66 95.227C113.743 96.2205 113.99 97.1312 114.319 98.042C116.543 104.417 120.907 108.64 127.331 110.71C128.731 111.124 130.213 111.455 131.613 111.786C135.154 112.448 138.201 111.372 140.837 108.971C142.566 107.398 144.378 105.825 146.272 104.5C148.66 102.761 151.543 101.933 154.425 101.023C156.237 100.443 158.048 99.7807 159.943 99.5323C161.672 99.2011 163.401 99.3667 165.131 99.2839C165.295 99.2839 165.46 99.2839 165.543 99.3667C165.79 99.5323 165.954 99.6979 166.119 99.7807V99.9463C165.954 100.112 165.79 100.36 165.625 100.526C163.566 101.685 161.425 102.844 159.366 104.003C157.966 104.831 156.566 105.742 155.248 106.653C153.025 108.226 151.378 110.13 150.225 112.614C148.99 115.346 147.343 117.83 145.201 119.983C142.237 122.964 138.531 124.619 134.413 124.951C128.401 125.447 122.719 124.454 117.448 121.473C115.225 120.231 113.331 118.658 111.601 116.754C111.437 116.588 111.272 116.34 111.025 116.174C111.025 116.174 111.025 116.174 110.943 116.174C110.86 116.174 110.778 116.174 110.778 116.257C110.531 117.333 109.79 118.244 108.801 118.741C107.154 119.569 104.272 120.562 100.731 119.9L101.06 119.817Z" fill="#999999"/>
<path d="M76.8506 45.3026C75.5329 45.9649 74.2153 46.4617 72.8976 47.1241C71.6623 46.1305 71.58 45.0542 72.4035 43.8122C72.5682 43.6467 72.7329 43.4811 72.8976 43.3983C73.3917 43.1499 73.8035 42.8187 74.2976 42.5703C74.9564 42.5703 75.6153 42.6531 76.2741 42.8187C76.9329 42.9015 77.7564 42.9843 77.9211 43.8122C78.0859 44.6402 77.427 45.137 76.8506 45.4682V45.3026Z" fill="#202020"/>
<path d="M89.037 81.895C89.4487 79.4112 89.6135 76.9273 90.2723 74.5262C91.2605 70.6348 92.0017 70.3864 93.0723 66.5778C93.5664 64.8391 94.7193 60.6993 94.8017 57.0563C94.8017 54.2413 94.0605 51.8402 93.7311 50.8466C93.7311 50.5983 93.3193 50.5983 93.237 50.7638C89.7782 55.4004 87.7193 57.5531 83.3546 65.2531C78.9899 72.9531 76.1899 83.7993 76.7664 90.7542C77.3429 97.709 79.8958 103.422 83.7664 108.224C84.7546 109.383 85.8252 110.542 86.8958 111.619C86.9782 111.701 87.1429 111.784 87.3076 111.619C87.4723 111.536 87.5546 111.453 87.637 111.288C87.884 110.46 88.0487 109.714 88.1311 108.886C88.4605 105.906 88.7076 102.842 88.9546 99.8617C88.9546 98.9509 88.9546 98.0402 88.9546 97.1294C88.9546 94.2316 88.9546 91.3337 88.9546 88.5187L89.2017 81.895H89.037Z" fill="#F1F1F1"/>
<path d="M92.9899 41.5757C92.7428 41.5757 92.5781 42.3209 92.5781 42.6521C92.5781 43.0661 92.9075 43.6456 93.4017 43.48C93.6487 43.3972 93.9781 42.9833 93.9781 42.4865C93.9781 41.9897 93.484 41.4101 92.9075 41.5757H92.9899Z" fill="black"/>
<path d="M81.625 50.1872C82.9426 50.5184 84.425 49.8561 84.5897 48.9453C83.6015 49.3593 82.6132 49.7733 81.625 50.1872Z" fill="black"/>
<path d="M94.5529 39.921C93.7294 39.6726 92.9059 39.921 92 40.335C92 39.8382 92.5765 39.3415 93.2353 39.1759C93.7294 39.0103 94.1412 39.1759 94.5529 39.921Z" fill="#707070"/>
<path d="M102.706 40.5C103.2 40.7484 103.859 40.8312 104.435 40.6656C106.247 40.1689 110.282 39.0925 110.776 38.9269C115.388 36.9398 118.023 33.5452 119.341 29.157C119.917 27.1699 119.506 26.8388 117.364 26.9216C109.706 27.2527 103.776 30.3162 100.07 36.6086C100.07 36.6914 100.4 37.9334 100.647 38.7613C100.811 39.3409 101.223 39.8377 101.8 40.0861L102.706 40.5Z" fill="#999999"/>
<path d="M103.862 38.8419C104.109 38.8419 104.438 38.8419 104.768 38.6763C105.756 38.3452 107.815 37.6 108.062 37.4344C110.45 36.2753 111.768 34.6193 112.344 32.6323C112.591 31.8043 112.344 31.6387 111.191 31.8871C107.156 32.6322 102.874 33.7914 102.215 37.3516C102.215 37.7656 102.215 37.9312 102.462 38.2624C102.544 38.5107 103.038 38.5935 103.285 38.6763H103.78C103.78 38.7591 103.78 38.7591 103.78 38.7591L103.862 38.8419Z" fill="white"/>
<path d="M102.463 116.752C102.463 116.172 102.051 115.262 101.886 114.599C100.816 111.453 99.6626 108.307 98.592 105.078C97.7685 102.677 96.6979 100.11 97.2744 97.6261C97.6038 95.9702 98.5096 94.5627 99.4155 93.1551C100.651 91.4164 101.886 89.6777 103.039 87.939C103.451 87.3594 104.027 86.4487 104.027 86.2003C103.863 85.9519 102.298 88.0218 101.886 88.5186C100.651 90.0917 99.4155 91.6648 98.2626 93.2379C97.0273 94.9766 96.0391 96.9637 96.0391 99.1164C96.0391 101.931 97.4391 104.664 98.3449 107.313C99.4979 110.377 100.733 113.44 102.051 116.421C102.298 116.917 102.463 117 102.38 116.752H102.463Z" fill="#737373"/>
<path d="M74.2972 83.2199C74.2972 83.2199 74.4619 83.2199 74.5443 83.2199C75.6972 83.1371 76.9325 83.1371 78.0854 83.2199C78.1678 83.2199 78.3325 83.2199 78.4148 83.2199C79.0737 82.1435 79.7325 81.0672 80.309 79.9908C80.4737 79.6597 80.7207 79.5769 81.0501 79.5769C81.3795 79.5769 81.709 79.5769 81.956 79.5769C82.0384 79.5769 82.1207 79.4113 82.2854 79.4113C82.2854 79.3285 82.1207 79.1629 82.0384 79.1629C81.7913 79.0801 81.4619 78.9973 81.2148 78.9145C81.1325 78.9145 81.0501 78.9145 80.9678 78.9145C80.9678 78.9145 80.9678 78.9145 80.9678 78.8317C81.0501 78.8317 81.2148 78.7489 81.2972 78.6661C81.5443 78.4177 81.7913 78.2521 81.956 78.0037C81.956 77.9209 81.956 77.7554 82.0384 77.5898C81.8737 77.5898 81.709 77.507 81.5443 77.5898C81.2972 77.7554 81.0501 77.9209 80.8031 78.1693C80.7207 78.1693 80.6384 78.3349 80.4737 78.5005C80.3913 78.2521 80.309 78.0037 80.1443 77.7553C80.1443 77.5898 79.9796 77.4242 79.8972 77.3414C79.8972 77.3414 79.7325 77.2586 79.6501 77.1758C79.6501 77.2586 79.4854 77.3414 79.4854 77.507C79.4854 77.9209 79.4854 78.2521 79.4854 78.6661C79.4854 79.3285 79.3207 79.8252 78.909 80.2392C78.0031 81.0672 77.0148 81.7295 76.0266 82.3919C75.4501 82.8059 74.7913 83.1371 74.2148 83.4683L74.2972 83.2199Z" fill="#ABABAB"/>
<path d="M70.922 71.6283C70.6749 71.6283 70.5102 71.6283 70.3455 71.4627C69.769 71.0488 68.5337 70.138 68.369 70.0552C67.0514 68.7305 66.5573 67.2402 66.722 65.5843C66.722 64.8391 66.969 64.7563 67.7102 65.0875C70.3455 66.1638 71.9926 67.9853 72.4043 70.7176C72.4043 70.7176 72.0749 71.1316 71.9102 71.38C71.7455 71.5455 71.5808 71.6283 71.3337 71.7111H70.922V71.6283Z" fill="#8E8E8E"/>
<path d="M74.2951 99.2842V99.1187C74.2951 98.9531 74.3774 98.7875 74.4598 98.6219C74.6245 97.7939 74.7892 96.966 74.9539 96.138C74.9539 96.0552 74.9539 95.9724 74.9539 95.8068C74.9539 95.5584 74.9539 95.31 74.9539 95.0617C74.9539 94.6477 74.7892 94.2337 74.5421 93.9025C74.3774 93.6541 74.2127 93.4885 74.048 93.2402C73.2245 92.4122 72.3186 91.5842 71.4951 90.8391C71.4951 90.8391 71.3304 90.7563 71.248 90.7563C71.3304 90.8391 71.4127 91.0047 71.4951 91.0875C72.2363 91.9154 73.0598 92.7434 73.801 93.4885C74.2951 93.9853 74.6245 94.5649 74.7068 95.2273C74.7068 95.5584 74.7068 95.8896 74.7068 96.2208C74.7068 96.6348 74.5421 96.966 74.4598 97.3799C74.3774 97.9595 74.2127 98.5391 74.1304 99.1187C74.048 99.781 73.8833 100.361 73.801 100.94C73.801 101.106 73.801 101.354 73.7186 101.52C73.7186 101.52 73.7186 101.685 73.7186 101.768C73.7186 101.52 73.8833 101.271 73.8833 101.023C74.048 100.526 74.1304 99.9466 74.2127 99.4498L74.2951 99.2842ZM71.001 71.7961C70.8363 71.8789 70.7539 72.0445 70.7539 72.2928C70.9186 72.0445 71.248 71.8789 71.5774 71.7961C71.4951 71.6305 71.1657 71.6305 71.001 71.7961ZM71.9068 72.7068C71.9068 72.624 71.7421 72.5412 71.6598 72.4584C71.5774 72.4584 71.4951 72.5412 71.4951 72.624C71.4951 72.624 71.4951 72.624 71.4951 72.7068V72.8724C71.5774 72.8724 71.8245 73.038 71.9068 73.038C72.1539 73.038 72.0716 72.7068 71.9068 72.624V72.7068ZM75.5304 74.3627C75.6951 74.6939 76.1892 74.8595 76.6833 74.6111C76.2716 74.5283 75.8598 74.4455 75.5304 74.3627Z" fill="#8F8F8F"/>
<path d="M75.5304 74.3627C75.6951 74.6939 76.1892 74.8595 76.6833 74.6111C76.2716 74.5283 75.8598 74.4455 75.5304 74.3627ZM71.9068 72.7068C71.9068 72.624 71.7421 72.5412 71.6598 72.4584C71.5774 72.4584 71.4951 72.5412 71.4951 72.624C71.4951 72.624 71.4951 72.624 71.4951 72.7068V72.8724C71.5774 72.8724 71.8245 73.038 71.9068 73.038C72.1539 73.038 72.0716 72.7068 71.9068 72.624V72.7068ZM71.001 71.7961C70.8363 71.8789 70.7539 72.0445 70.7539 72.2928C70.9186 72.0445 71.248 71.8789 71.5774 71.7961C71.4951 71.6305 71.1657 71.6305 71.001 71.7961ZM74.2951 99.2842V99.1187C74.2951 98.9531 74.3774 98.7875 74.4598 98.6219C74.6245 97.7939 74.7892 96.966 74.9539 96.138C74.9539 96.0552 74.9539 95.9724 74.9539 95.8068C74.9539 95.5584 74.9539 95.31 74.9539 95.0617C74.9539 94.6477 74.7892 94.2337 74.5421 93.9025C74.3774 93.6541 74.2127 93.4885 74.048 93.2402C73.2245 92.4122 72.3186 91.5842 71.4951 90.8391C71.4951 90.8391 71.3304 90.7563 71.248 90.7563C71.3304 90.8391 71.4127 91.0047 71.4951 91.0875C72.2363 91.9154 73.0598 92.7434 73.801 93.4885C74.2951 93.9853 74.6245 94.5649 74.7068 95.2273C74.7068 95.5584 74.7068 95.8896 74.7068 96.2208C74.7068 96.6348 74.5421 96.966 74.4598 97.3799C74.3774 97.9595 74.2127 98.5391 74.1304 99.1187C74.048 99.781 73.8833 100.361 73.801 100.94C73.801 101.106 73.801 101.354 73.7186 101.52C73.7186 101.52 73.7186 101.685 73.7186 101.768C73.7186 101.52 73.8833 101.271 73.8833 101.023C74.048 100.526 74.1304 99.9466 74.2127 99.4498L74.2951 99.2842Z" fill="#ABABAB"/>
<path d="M72.8132 102.013C73.3074 102.013 73.8838 102.013 74.4603 101.765C75.1191 101.517 75.6956 101.268 76.1897 100.937C77.1779 100.357 77.9191 99.695 78.825 98.8671C78.825 98.8671 78.9074 98.8671 78.9897 98.7843C78.9897 98.7015 79.1544 98.6187 79.1544 98.5359C79.1544 98.5359 78.9897 98.5359 78.9897 98.4531V98.2047C78.825 98.0391 78.7426 97.9563 78.7426 97.7907V97.6251C78.4132 96.5488 78.1662 95.4725 77.8368 94.3961C77.8368 94.0649 77.7544 93.7337 77.6721 93.4026C77.5074 92.3262 77.3426 91.3327 77.1779 90.2563L76.9309 89.0144L76.7662 88.1036C76.7662 88.1036 76.7662 87.938 76.7662 87.8553C76.7662 87.6897 76.6838 87.5241 76.6015 87.3585C76.6015 87.3585 76.6015 87.3585 76.6015 87.2757C76.4368 86.6961 76.2721 86.1165 76.1074 85.6198V85.537C76.1074 85.537 76.1074 85.3714 76.025 85.2886C75.7779 84.709 75.5309 84.1294 75.2015 83.5499C75.2015 83.3843 75.0368 83.2187 74.9544 83.1359C74.625 82.5563 74.3779 81.894 74.0485 81.3144C73.7191 80.7348 73.6368 80.0725 73.5544 79.4101C73.5544 78.9961 73.4721 78.5821 73.3897 78.1682V77.837C73.3897 77.5058 73.3897 77.0918 73.3897 76.7606V76.595C73.3897 76.595 73.5544 76.595 73.6368 76.595C74.4603 76.595 75.2838 76.595 76.1074 76.595C76.3544 76.595 76.6015 76.595 76.8485 76.5122C77.2603 76.5122 77.425 76.2639 77.5074 75.8499C78.7426 75.8499 79.7309 75.2703 80.4721 74.2768C79.9779 74.1112 79.4838 74.0284 78.9897 73.8628C78.7426 73.8628 78.4956 73.6144 78.4956 73.366C78.4956 73.2004 78.5779 73.1176 78.7426 73.0348C78.7426 73.0348 78.9074 73.0348 78.9897 73.0348C79.1544 73.0348 79.4015 72.952 79.5662 72.8692V72.7864C78.9897 72.538 78.3309 72.2897 77.7544 72.2069C76.7662 71.9585 75.7779 71.7929 74.7074 71.5445C73.8838 71.5445 73.1426 71.4617 72.3191 71.3789H71.9074C71.825 71.3789 71.7426 71.3789 71.5779 71.4617H71.4132C71.4132 71.4617 71.2485 71.4617 71.1662 71.4617C70.7544 71.6273 70.425 71.7929 70.0132 72.0413C69.8485 72.2069 69.7662 72.3725 69.6015 72.538C69.6015 72.6208 69.4368 72.7036 69.3544 72.7864C69.3544 72.7864 69.1897 72.952 69.1897 73.0348C69.1897 73.1176 69.1897 73.2832 69.1897 73.366C69.1897 73.4488 69.1897 73.5316 69.1897 73.6144C69.1897 73.6144 69.1897 73.6144 69.1897 73.6972C69.3544 74.6907 69.5191 75.6015 69.6838 76.5122C69.9309 77.6714 70.1779 78.8305 69.9309 80.0725C69.7662 80.9832 69.5191 81.894 69.2721 82.7219C69.2721 82.9703 69.1897 83.2187 69.1074 83.4671L68.9426 84.1294C68.3662 86.0337 68.0368 87.938 67.9544 89.9251V90.7531C67.9544 91.9122 68.1191 92.9886 68.2015 94.1477C68.2015 94.4789 68.2015 94.8929 68.1191 95.2241C68.0368 95.8036 67.8721 96.3832 67.625 96.88C69.025 98.6187 70.5897 100.44 72.2368 102.262L72.6485 102.676L72.8132 102.013Z" fill="#ABABAB"/>
<path d="M79.0722 73.2029C79.5664 73.3685 80.0605 73.4513 80.6369 73.6169C81.0487 73.2029 81.0487 72.7889 80.6369 72.3749C80.6369 72.3749 80.4722 72.2921 80.3899 72.2093C80.2252 72.2093 79.9781 72.0437 79.8134 71.9609C79.5664 71.9609 79.3193 72.0437 79.1546 72.1265C78.9075 72.1265 78.6605 72.2921 78.5781 72.5405C78.5781 72.8717 78.8252 73.0373 79.0722 73.0373V73.2029Z" fill="#202020"/>
<path d="M76.6844 87.2801C76.4373 86.3693 76.1903 85.4586 75.8608 84.6306C75.2844 83.3059 75.0373 83.2231 74.3785 81.8983C74.1314 81.3188 73.4726 79.8285 73.2255 78.5037C73.0608 77.5102 73.2255 76.5166 73.2255 76.1854C73.2255 76.1027 73.3903 76.0199 73.3903 76.1854C74.8726 77.6758 75.7785 78.3381 77.8373 80.9048C79.8961 83.4715 81.4608 87.2801 81.6255 89.8467C81.7903 92.4134 81.2138 94.6489 80.0608 96.636C79.8138 97.1328 79.402 97.5467 79.155 98.0435C79.155 98.0435 79.0726 98.0435 78.9903 98.0435C78.9903 98.0435 78.9079 98.0435 78.8255 97.9607C78.6608 97.7123 78.5785 97.3811 78.4961 97.1328C78.2491 96.0564 78.002 94.9801 77.6726 93.9037C77.6726 93.5725 77.5903 93.2414 77.5079 92.9102C77.3432 91.8338 77.1785 90.8403 77.0138 89.7639L76.602 87.3629L76.6844 87.2801Z" fill="#EDEDED"/>
<path d="M74.7099 88.1082L72.9805 85.5415L74.8746 85.3759L76.4393 85.1276L77.3452 84.8792L78.2511 84.548L78.6628 84.2168L78.9922 83.72L79.4864 82.5609L79.6511 82.3125H79.7334L79.8981 82.4781V82.8921V83.72L80.3099 83.6372H81.0511C81.0511 83.5544 81.3805 83.5544 81.3805 83.5544L81.5452 83.72V83.9684L81.2981 84.134L80.6393 84.3824L79.9805 84.548L80.3099 84.7964L80.9687 85.3759V85.6243V85.7899H80.6393L79.6511 85.2932H79.3216L78.9099 85.5415L78.004 86.1211L75.6981 87.6114L74.6275 88.1082H74.7099Z" fill="#ABABAB"/>
<path d="M74.7092 88.1074C75.7798 87.6107 76.8504 86.9483 77.8386 86.2859C78.1681 86.0375 78.4975 85.7891 78.8269 85.6236C78.9092 85.6236 78.9916 85.5408 79.0739 85.458C79.321 85.2096 79.5681 85.2096 79.8975 85.3752C80.1445 85.5408 80.3916 85.6236 80.6386 85.7892C80.721 85.7892 80.8857 85.7892 80.9681 85.7892C81.2151 85.7892 81.2975 85.6236 81.1328 85.458C80.9681 85.2096 80.721 85.044 80.4739 84.7956C80.4739 84.7956 80.3092 84.7128 80.2269 84.63V84.5472C80.4739 84.5472 80.721 84.4644 80.9681 84.3816C81.1328 84.3816 81.2975 84.216 81.3798 84.1332C81.4622 84.0504 81.6269 83.8849 81.6269 83.8021C81.6269 83.6365 81.4622 83.5537 81.2975 83.5537C80.9681 83.5537 80.6386 83.6365 80.3092 83.7193C80.3092 83.7193 80.1445 83.7193 80.0622 83.7193C80.0622 83.5537 80.0622 83.3881 80.0622 83.2225C80.0622 83.0569 80.0622 82.8085 80.0622 82.6429C80.0622 82.5601 79.9798 82.4773 79.8975 82.3945C79.8151 82.3945 79.7328 82.4773 79.6504 82.5601C79.4857 82.8913 79.321 83.2225 79.2386 83.5537C79.2386 83.5537 79.2386 83.7193 79.1563 83.8021C78.9092 84.4644 78.3328 84.7128 77.7563 84.8784C76.3563 85.2924 74.8739 85.458 73.3916 85.5408C73.3916 85.5408 73.2269 85.5408 73.1445 85.5408V85.6236C74.5445 85.6236 75.8622 85.3752 77.1798 85.1268C77.5916 85.044 78.0034 84.8784 78.4151 84.7128C78.7445 84.5472 78.9916 84.2988 79.1563 83.9676C79.321 83.5537 79.4857 83.1397 79.7328 82.7257C79.7328 82.7257 79.8151 82.5601 79.8975 82.5601C79.8975 82.5601 80.0622 82.7257 80.0622 82.8085C80.0622 83.1397 80.0622 83.4709 80.0622 83.8021C80.0622 83.8021 80.0622 83.9676 80.0622 84.0504C80.3092 83.9676 80.4739 83.8849 80.721 83.8021C80.9681 83.8021 81.2151 83.8021 81.5445 83.8021C81.8739 83.8021 81.7092 83.8021 81.7916 83.9676C81.7916 83.9676 81.7916 84.1332 81.6269 84.216C81.3798 84.2988 81.2151 84.3816 80.9681 84.4644C80.721 84.4644 80.4739 84.63 80.2269 84.63C80.2269 84.63 80.2269 84.63 80.2269 84.7128C80.4739 84.8784 80.721 85.044 80.9681 85.2096C81.0504 85.2096 81.1328 85.3752 81.2151 85.5408C81.2151 85.5408 81.2151 85.7064 81.2151 85.7892C81.2151 85.7892 81.0504 85.7892 80.9681 85.7892C80.8034 85.7064 80.5563 85.6236 80.3916 85.5408C80.2269 85.5408 80.1445 85.3752 79.9798 85.3752C79.7328 85.2924 79.4857 85.2924 79.2386 85.5408C79.2386 85.6236 79.0739 85.7064 78.9916 85.7892C78.4975 86.1203 77.921 86.5343 77.4269 86.8655C76.6034 87.3623 75.7798 87.9418 74.8739 88.3558V88.4386L74.7092 88.1074Z" fill="#737373"/>
<path d="M71.4955 72.9538C71.6602 72.9538 71.7426 73.1194 71.9073 73.1194C72.072 73.1194 72.072 72.7882 71.9073 72.7054C71.9073 72.6226 71.6602 72.457 71.5779 72.457C71.4131 72.457 71.4131 72.7054 71.4955 72.9538Z" fill="#202020"/>
<path d="M70.7539 72.2928C70.9186 72.0445 71.248 71.8789 71.5774 71.7961C71.4951 71.6305 71.1657 71.6305 71.001 71.7961C70.8363 71.7961 70.7539 72.0445 70.7539 72.2928Z" fill="black"/>
<path d="M71.5808 73.0352C71.7455 73.2008 71.9102 73.2836 72.0749 73.2008C72.322 73.118 72.2396 72.7868 72.0749 72.704C71.9926 72.5384 71.7455 72.3728 71.6632 72.4556C71.4161 72.5384 71.4161 72.8696 71.4985 73.118L71.5808 73.0352Z" fill="black"/>
<path d="M76.4375 74.9414C76.5199 75.2726 77.0963 75.4382 77.5904 75.1898C77.1787 75.107 76.7669 75.0242 76.4375 74.9414Z" fill="black"/>
<path d="M70.7539 72.2928C70.9186 72.0445 71.248 71.8789 71.5774 71.7961C71.4951 71.6305 71.1657 71.6305 71.001 71.7961C70.8363 71.7961 70.7539 72.0445 70.7539 72.2928Z" fill="#707070"/>
<path d="M69.4378 72.9566C69.2731 73.0394 69.0261 73.1222 68.779 73.1222C68.0378 73.0394 66.5555 72.8738 66.3908 72.791C64.579 72.2942 63.4261 71.2179 62.7672 69.7276C62.4378 69.0652 62.6025 68.8996 63.3437 68.8168C66.1437 68.4856 68.4496 69.3136 70.179 71.3835C70.179 71.3835 70.179 71.8803 70.0967 72.2114C70.0967 72.4598 69.932 72.6254 69.7672 72.7082L69.4378 72.9566Z" fill="#ABABAB"/>
<path d="M68.8594 72.3785C68.777 72.3785 68.6947 72.3785 68.53 72.3785C68.1182 72.3785 67.377 72.1301 67.2123 72.1301C66.3064 71.7989 65.73 71.3021 65.4006 70.6398C65.2358 70.3086 65.4006 70.3086 65.73 70.3086C67.2947 70.3086 68.8594 70.557 69.2711 71.7989C69.2711 71.9645 69.2711 72.0473 69.2711 72.1301C69.2711 72.2129 69.1064 72.2957 69.0241 72.2957H68.8594V72.3785Z" fill="white"/>
<path d="M88.3782 112.365C88.3782 112.613 88.1312 112.862 87.8017 112.779C84.6723 112.282 81.1312 109.798 77.59 106.652C77.0135 106.073 76.3547 105.493 75.7782 104.913C75.6135 104.748 75.4488 104.582 75.2017 104.417C74.3782 103.589 73.5547 102.761 72.7312 101.933C72.5664 101.767 72.4841 101.602 72.3194 101.519C70.6723 99.6973 69.1076 97.8758 67.7076 96.1371C65.237 93.1564 63.2606 90.4242 62.1076 88.7683C61.7782 88.3543 62.2723 87.8575 62.6841 88.0231C64.2488 88.6855 66.1429 89.0166 68.037 89.1822C70.837 89.3478 73.8841 89.1822 76.8488 88.6855C76.8488 88.6855 76.8488 88.6855 76.9312 88.6855C78.4135 88.4371 79.8135 88.1887 81.2135 87.8575C85.7429 86.864 89.6135 85.622 91.0959 85.1252C91.4253 85.0424 91.7547 85.2908 91.7547 85.7048L88.2959 112.448L88.3782 112.365Z" fill="#999999"/>
<path d="M100.648 78.2526L95.6244 71.6289L93.6479 76.3483L91.6714 80.2397L90.3538 82.3923L88.7891 84.545L87.6361 85.2902L85.9891 85.7042L82.5302 85.9526L81.7891 86.2837V86.5321L82.0361 87.0289L83.0244 87.5257L85.2479 88.188V88.4364L84.5891 89.43L83.6832 91.2515L83.5185 92.0794L83.7655 92.5762H84.4244L85.0008 92.245L86.2361 90.7547L87.0596 89.2644L87.3891 90.2579L88.2949 92.4106L88.8714 92.8246L89.4479 92.5762L89.6126 91.6655L89.2008 88.6848L89.4479 87.8569L90.4361 87.1117L92.742 85.373L98.5891 80.6536L100.813 78.3354L100.648 78.2526Z" fill="#999999"/>
<path d="M100.813 78.254C100.813 78.254 100.813 78.254 100.813 78.3368C98.5897 80.7379 95.9544 82.8077 93.4015 84.8776C92.5779 85.54 91.6721 86.1196 90.8485 86.7819C90.6015 86.9475 90.4368 87.1959 90.1897 87.3615C89.3662 87.7755 89.0368 88.4378 89.2015 89.3486C89.3662 90.0938 89.4485 90.8389 89.5309 91.6669C89.5309 91.9981 89.5309 92.3292 89.3662 92.6604C89.1191 93.1572 88.5426 93.24 88.2956 92.826C87.8838 92.1637 87.5544 91.3357 87.225 90.5905C87.1426 90.3421 87.0603 90.1766 86.9779 89.8454C86.9779 89.6798 86.8132 89.6798 86.7309 89.8454C86.3191 90.5077 86.0721 91.0045 85.7426 91.5841C85.4132 91.9153 85.1662 92.2465 84.8368 92.4948C84.5074 92.7432 84.0132 92.9916 83.6838 92.826C83.1897 92.6604 83.1074 92.0809 83.3544 91.6669C83.7662 90.8389 84.1779 90.011 84.6721 89.183C84.7544 89.0174 84.9191 88.8518 85.0015 88.6862C85.0015 88.6862 85.0015 88.5206 85.0015 88.4379C84.5074 88.2723 84.0956 88.1895 83.6838 88.0239C83.1897 87.8583 82.6132 87.6927 82.1191 87.4443C81.8721 87.2787 81.7074 87.0303 81.625 86.6991V86.5336C81.8721 86.368 82.1191 86.1196 82.3662 86.0368C83.3544 85.8712 84.3426 85.8712 85.3309 85.7884C85.5779 85.7884 85.7426 85.7884 85.9897 85.7056C87.8838 85.7056 89.1191 84.4637 90.025 82.9733C92.2485 79.6615 93.8956 76.0185 95.3779 72.2927C95.3779 72.1271 95.5426 71.8787 95.625 71.7131C95.7074 71.5475 95.9544 71.7131 95.8721 71.8787C94.4721 75.3561 92.9897 78.7508 91.0956 81.897C90.5191 82.8905 89.6956 83.8013 88.9544 84.712C88.2956 85.54 87.3897 85.8712 86.3191 85.954C85.0838 86.0368 83.8485 86.1196 82.6132 86.2852C82.4485 86.2852 82.2015 86.4508 82.0368 86.5336C82.0368 86.5336 81.9544 86.6991 82.0368 86.7819C82.2015 87.0303 82.2838 87.2787 82.5309 87.2787C83.3544 87.6099 84.1779 87.7755 85.0015 88.0239C85.1662 88.0239 85.4132 88.1067 85.6603 88.1895C85.7426 88.1895 85.825 88.3551 85.6603 88.4379C85.2485 88.9346 84.8368 89.3486 84.5074 89.8454C84.1779 90.425 83.8485 91.1701 83.6838 91.8325C83.6838 91.9981 83.6838 92.412 83.8485 92.4948C84.0132 92.5776 84.425 92.4948 84.5897 92.3293C85.0838 91.8325 85.4956 91.3357 85.825 90.8389C86.2368 90.2594 86.5662 89.6798 86.9779 89.0174C86.9779 88.9346 87.225 88.9346 87.225 89.0174C87.4721 89.8454 87.7191 90.5905 87.9662 91.3357C88.0485 91.6669 88.2956 91.9981 88.4603 92.2465C88.625 92.412 88.8721 92.4948 89.0368 92.4948C89.1191 92.4948 89.2838 92.1637 89.2838 91.9153C89.2838 91.3357 89.1191 90.6733 89.0368 90.0938C89.0368 89.6798 88.9544 89.3486 88.8721 88.9346C88.8721 88.1067 89.0368 87.4443 89.8603 87.1131C90.1897 86.9475 90.4368 86.7819 90.6838 86.6163C92.0015 85.54 93.4015 84.5465 94.7191 83.4701C96.7779 81.8142 98.9191 80.2411 100.649 78.1712C100.731 78.0884 100.978 78.1712 100.896 78.254H100.813Z" fill="#737373"/>
</g>
<defs>
<filter id="filter0_d_1058_7125" x="46" y="22" width="85" height="85" filterUnits="userSpaceOnUse" color-interpolation-filters="sRGB">
<feFlood flood-opacity="0" result="BackgroundImageFix"/>
<feColorMatrix in="SourceAlpha" type="matrix" values="0 0 0 0 0 0 0 0 0 0 0 0 0 0 0 0 0 0 127 0" result="hardAlpha"/>
<feOffset dy="4"/>
<feGaussianBlur stdDeviation="2"/>
<feComposite in2="hardAlpha" operator="out"/>
<feColorMatrix type="matrix" values="0 0 0 0 0 0 0 0 0 0 0 0 0 0 0 0 0 0 0.12 0"/>
<feBlend mode="normal" in2="BackgroundImageFix" result="effect1_dropShadow_1058_7125"/>
<feBlend mode="normal" in="SourceGraphic" in2="effect1_dropShadow_1058_7125" result="shape"/>
</filter>
<clipPath id="clip0_1058_7125">
<rect x="50" y="22" width="77" height="77" rx="38.5" fill="white"/>
</clipPath>
<clipPath id="clip1_1058_7125">
<rect width="65" height="71" fill="white" transform="translate(62 18)"/>
</clipPath>
</defs>
</svg>
