<svg width="103" height="93" viewBox="0 0 103 93" fill="none" xmlns="http://www.w3.org/2000/svg">
<g clip-path="url(#clip0_783_15144)">
<mask id="mask0_783_15144" style="mask-type:luminance" maskUnits="userSpaceOnUse" x="0" y="0" width="103" height="93">
<path d="M93.4 0H9.6C4.57421 0 0.5 4.07421 0.5 9.1V83.5C0.5 88.5258 4.57421 92.6 9.6 92.6H93.4C98.4258 92.6 102.5 88.5258 102.5 83.5V9.1C102.5 4.07421 98.4258 0 93.4 0Z" fill="white"/>
</mask>
<g mask="url(#mask0_783_15144)">
<path d="M40.3999 81.3991C40.3999 81.3991 21.1999 83.9991 19.4999 84.7991C17.8999 85.5991 32.6999 91.6991 32.6999 91.6991L57.3999 87.1991L59.2999 81.4991C59.2999 81.4991 44.1999 80.4991 40.3999 81.4991V81.3991Z" fill="#606060"/>
<path d="M45.8 59.2016C45.8 59.5016 45.8 59.7016 45.8 60.0016C44.2 63.6016 42.8 67.2016 41.8 71.0016C41.8 71.4016 41.4 71.7016 41.2 72.0016C37.2 72.8016 33.2 73.6016 29.1 74.3016C27.9 74.5016 27.3 75.0016 27 76.1016C26.7 77.1016 26.4 78.1016 26 79.0016C25.9 79.3016 25.4 79.5016 25 79.7016C24.8 79.4016 24.4 79.1016 24.4 78.7016C24.4 77.7016 24.6 76.8016 24.7 75.8016C24.7 75.5016 24.8 75.2016 24.9 74.9016C24.9 74.9016 24.7 74.7016 24.7 74.6016C24.4 74.8016 24.1 75.1016 23.8 75.3016C22.9 75.8016 21.9 76.3016 20.9 76.6016C20.5 76.7016 20 76.6016 19.5 76.4016C19.6 75.9016 19.5 75.2016 19.9 74.9016C20.7 74.2016 21.6 73.7016 22.4 73.2016C22.7 73.0016 23.1 72.9016 23.7 72.6016C23 72.0016 22.4 71.4016 21.8 70.9016C21.4 70.5016 21 70.2016 20.8 69.7016C20.6 69.4016 20.7 69.0016 20.6 68.6016C21 68.6016 21.4 68.4016 21.7 68.5016C22.9 68.9016 24 69.4016 25.1 69.9016C27 70.8016 28.9 70.8016 30.8 69.9016C34.3 68.1016 37.5 65.8016 40.6 63.4016C42.4 62.0016 44.2 60.5016 46.1 59.1016L45.8 59.2016Z" fill="#999999"/>
<path d="M45.3984 131.501C44.9984 132.601 44.5984 133.701 44.2984 134.801C43.8984 136.101 42.9984 136.601 41.6984 136.401C41.3984 136.401 40.9984 136.401 40.6984 136.201C34.8984 134.601 29.1984 133.001 23.3984 131.301C21.3984 130.701 21.3984 130.601 22.6984 129.001C24.7984 127.301 27.2984 126.901 29.8984 127.001C31.6984 127.001 33.3984 127.301 35.0984 127.501C36.8984 127.901 38.6984 128.301 40.4984 128.701C40.4984 128.501 40.6984 128.301 40.6984 128.101C40.6984 127.601 40.4984 127.101 40.3984 126.701C40.1984 126.201 40.0984 125.601 39.8984 125.101C39.0984 122.301 38.2984 119.601 37.4984 116.801C36.3984 112.601 35.2984 108.401 34.1984 104.201C32.7984 98.9008 32.9984 93.7008 35.5984 88.8008C36.1984 87.7008 36.8984 86.8008 37.5984 85.8008C37.6984 86.2008 37.8984 86.5008 37.8984 86.9008C38.3984 94.3008 40.7984 101.001 45.4984 106.801C46.6984 108.301 48.0984 109.701 49.4984 111.201C49.8984 111.601 50.2984 112.101 50.5984 112.501C50.0984 114.601 49.5984 116.701 48.9984 118.701C47.7984 123.001 46.4984 127.301 45.2984 131.601L45.3984 131.501Z" fill="#868686"/>
<path d="M62.7977 23.9012C63.4977 23.9012 64.1977 23.5012 64.6977 23.0012C66.2977 21.4012 69.9977 17.9012 70.2977 17.4012C73.9977 12.6012 74.7977 7.40118 73.5977 2.10118C72.9977 -0.298822 72.3977 -0.498822 70.1977 0.901178C62.2977 5.80118 57.8977 12.5012 57.5977 21.4012C57.5977 21.6012 58.6977 22.6012 59.4977 23.3012C59.9977 23.8012 60.6977 24.0012 61.4977 24.0012H62.7977V23.9012Z" fill="#6F6F6F"/>
<path d="M68.7969 121.302C67.8969 118.802 66.9969 116.202 66.0969 113.702C64.9969 110.602 63.9969 107.402 62.7969 104.302C61.4969 101.002 62.0969 98.0024 64.1969 95.2024C66.2969 92.3024 68.3969 89.3024 70.4969 86.3024C70.6969 86.0024 70.8969 85.6024 71.0969 85.2024C70.6969 85.2024 70.4969 85.4024 70.3969 85.6024C67.9969 88.7024 65.5969 91.7024 63.1969 94.8024C61.0969 97.6024 60.3969 100.602 61.5969 103.902C62.5969 106.802 63.6969 109.702 64.7969 112.602C64.9969 113.202 65.2969 113.702 65.4969 114.302C65.4969 114.502 65.5969 114.702 65.6969 114.902C65.6969 114.902 65.7969 115.002 65.8969 115.102C66.4969 116.702 67.1969 118.402 67.7969 120.002C68.0969 120.802 68.4969 121.502 68.8969 122.202C68.9969 121.802 68.8969 121.602 68.8969 121.302H68.7969ZM62.6969 24.5024C61.8969 24.3024 60.9969 24.5024 60.6969 25.0024C61.9969 25.0024 62.9969 25.4024 63.6969 26.1024C63.6969 25.2024 63.2969 24.7024 62.6969 24.6024V24.5024ZM61.1969 26.9024C60.8969 26.9024 60.2969 27.4024 60.1969 27.8024C59.9969 28.3024 59.8969 29.0024 60.5969 29.2024C60.8969 29.2024 61.3969 28.7024 61.7969 28.5024C61.7969 27.8024 61.8969 27.1024 61.1969 26.9024ZM45.7969 36.6024C47.3969 37.0024 49.1969 36.2024 49.3969 35.1024C48.1969 35.6024 46.9969 36.1024 45.7969 36.6024Z" fill="#8F8F8F"/>
<path d="M45.7969 36.6009C47.0969 36.1009 48.2969 35.6009 49.3969 35.1009C49.1969 36.1009 47.3969 36.9009 45.7969 36.6009ZM60.5969 29.1009C59.8969 29.0009 59.9969 28.2009 60.1969 27.7009C60.3969 27.3009 60.8969 26.7009 61.1969 26.8009C61.8969 26.9009 61.6969 27.6009 61.7969 28.4009C61.3969 28.6009 60.9969 29.2009 60.5969 29.1009ZM60.7969 24.9009C61.0969 24.4009 61.9969 24.2009 62.7969 24.4009C63.3969 24.6009 63.6969 25.0009 63.7969 25.9009C63.0969 25.2009 62.0969 24.8009 60.7969 24.8009V24.9009ZM67.7969 120.001C67.0969 118.401 66.4969 116.701 65.8969 115.101C65.8969 115.101 65.7969 115.001 65.6969 114.901C65.6969 114.701 65.5969 114.501 65.4969 114.301C65.2969 113.701 64.9969 113.201 64.7969 112.601C63.6969 109.701 62.5969 106.801 61.5969 103.901C60.3969 100.601 61.0969 97.5009 63.1969 94.8009C65.5969 91.7009 67.9969 88.7009 70.3969 85.6009C70.5969 85.4009 70.7969 85.2009 71.0969 85.2009C70.8969 85.6009 70.6969 85.9009 70.4969 86.3009C68.3969 89.3009 66.2969 92.3009 64.1969 95.2009C62.0969 98.0009 61.5969 101.001 62.7969 104.301C63.9969 107.401 64.9969 110.501 66.0969 113.701C66.9969 116.201 67.8969 118.801 68.7969 121.301C68.7969 121.601 68.9969 121.901 68.7969 122.201C68.3969 121.501 68.0969 120.701 67.6969 120.001H67.7969Z" fill="#999999"/>
<path d="M66.5977 123.003C59.6977 121.703 55.8977 119.203 50.7977 116.003C50.5977 115.903 50.3977 115.803 50.0977 115.803C49.7977 115.403 49.4977 115.103 49.0977 114.703C49.0977 114.703 49.0977 114.503 49.0977 114.403C49.2977 114.303 49.4977 114.203 49.5977 114.003C49.8977 113.003 50.0977 112.103 50.1977 111.103C50.5977 107.503 50.8977 103.803 51.1977 100.203C51.1977 99.1031 51.1977 98.0031 51.1977 96.9031C51.1977 93.4031 51.1977 90.0031 51.1977 86.5031L51.3977 79.2031C51.3977 78.9031 51.3977 78.7031 51.3977 78.4031C51.8977 75.4031 52.0977 72.4031 52.8977 69.5031C54.0977 64.8031 55.7977 60.3031 57.0977 55.6031C57.6977 53.5031 57.8977 51.3031 57.6977 49.1031C57.6977 47.7031 57.5977 46.3031 57.4977 44.9031L57.1977 43.9031C56.9977 42.7031 56.8977 41.6031 56.6977 40.5031C56.6977 40.4031 56.7977 40.2031 56.8977 40.0031C56.8977 39.9031 56.8977 39.7031 56.6977 39.8031C56.3977 39.8031 56.0977 39.8031 55.8977 39.8031C53.2977 40.2031 50.5977 40.6031 47.9977 40.9031C47.1977 41.0031 46.3977 41.0031 45.5977 40.9031C44.0977 40.9031 43.4977 40.4031 42.8977 39.0031C42.8977 39.0031 42.7977 38.9031 42.6977 38.9031C38.4977 39.7031 35.0977 38.1031 32.0977 35.4031C32.0977 35.4031 32.0977 35.2031 32.0977 35.1031C33.5977 34.4031 35.1977 33.8031 36.5977 33.1031C37.2977 32.7031 38.0977 32.1031 37.8977 31.1031C37.6977 30.2031 36.6977 30.1031 35.8977 29.9031C35.2977 29.9031 34.6977 29.8031 34.0977 29.7031C33.8977 29.7031 33.8977 29.5031 34.0977 29.4031C35.9977 28.4031 37.7977 27.3031 39.7977 26.5031C42.8977 25.2031 46.0977 24.1031 49.2977 22.9031C51.7977 22.3031 54.3977 21.8031 56.9977 21.2031H58.2977C58.5977 21.2031 58.9977 21.2031 59.2977 21.2031H59.8977C60.0977 21.2031 60.3977 21.2031 60.6977 21.2031C60.6977 21.2031 60.7977 21.2031 60.8977 21.2031C62.1977 21.6031 63.5977 22.0031 64.8977 22.4031C65.3977 22.9031 65.9977 23.4031 66.4977 23.9031C66.7977 24.1031 66.9977 24.4031 67.2977 24.7031C67.4977 24.9031 67.7977 25.1031 67.8977 25.4031C67.9977 25.8031 68.0977 26.1031 68.1977 26.5031C68.1977 26.9031 68.3977 27.3031 68.3977 27.7031C68.3977 30.9031 68.3977 34.0031 68.1977 37.2031C67.9977 41.1031 67.6977 45.0031 69.0977 48.7031C70.0977 51.5031 71.3977 54.2031 72.5977 57.0031C72.8977 57.8031 73.2977 58.5031 73.5977 59.3031C73.8977 59.9031 74.1977 60.6031 74.4977 61.2031C77.5977 67.9031 79.9977 74.8031 80.9977 82.2031C81.4977 85.9031 81.4977 89.6031 81.8977 93.3031C81.9977 94.5031 82.2977 95.6031 82.6977 96.7031C85.3977 104.403 90.6977 109.503 98.4977 112.003C100.198 112.503 101.998 112.903 103.698 113.303C107.998 114.103 111.698 112.803 114.898 109.903C116.998 108.003 119.198 106.103 121.498 104.503C124.398 102.403 127.898 101.403 131.398 100.303C133.598 99.6031 135.798 98.8031 138.098 98.5031C140.198 98.1031 142.298 98.3031 144.398 98.2031C144.598 98.2031 144.798 98.2031 144.898 98.3031C145.198 98.5031 145.398 98.7031 145.598 98.8031V99.0031C145.398 99.2031 145.198 99.5031 144.998 99.7031C142.498 101.103 139.898 102.503 137.398 103.903C135.698 104.903 133.998 106.003 132.398 107.103C129.698 109.003 127.698 111.303 126.298 114.303C124.798 117.603 122.798 120.603 120.198 123.203C116.598 126.803 112.098 128.803 107.098 129.203C99.7977 129.803 92.8977 128.603 86.4977 125.003C83.7977 123.503 81.4977 121.603 79.3977 119.303C79.1977 119.103 78.9977 118.803 78.6977 118.603C78.6977 118.603 78.6977 118.603 78.5977 118.603C78.4977 118.603 78.3977 118.603 78.3977 118.703C78.0977 120.003 77.1977 121.103 75.9977 121.703C73.9977 122.703 70.4977 123.903 66.1977 123.103L66.5977 123.003Z" fill="#999999"/>
<path d="M37.2005 33.0031C35.6005 33.8031 34.0005 34.4031 32.4005 35.2031C30.9005 34.0031 30.8005 32.7031 31.8005 31.2031C32.0005 31.0031 32.2005 30.8031 32.4005 30.7031C33.0005 30.4031 33.5005 30.0031 34.1005 29.7031C34.9005 29.7031 35.7005 29.8031 36.5005 30.0031C37.3005 30.1031 38.3005 30.2031 38.5005 31.2031C38.7005 32.2031 37.9005 32.8031 37.2005 33.2031V33.0031Z" fill="#202020"/>
<path d="M51.9989 77.2003C52.4989 74.2003 52.6989 71.2003 53.4989 68.3003C54.6989 63.6003 55.5989 63.3003 56.8989 58.7003C57.4989 56.6003 58.8989 51.6003 58.9989 47.2003C58.9989 43.8003 58.0989 40.9003 57.6989 39.7003C57.6989 39.4003 57.1989 39.4003 57.0989 39.6003C52.8989 45.2003 50.3989 47.8003 45.0989 57.1003C39.7989 66.4003 36.3989 79.5003 37.0989 87.9003C37.7989 96.3003 40.8989 103.2 45.5989 109C46.7989 110.4 48.0989 111.8 49.3989 113.1C49.4989 113.2 49.6989 113.3 49.8989 113.1C50.0989 113 50.1989 112.9 50.2989 112.7C50.5989 111.7 50.7989 110.8 50.8989 109.8C51.2989 106.2 51.5989 102.5 51.8989 98.9003C51.8989 97.8003 51.8989 96.7003 51.8989 95.6003C51.8989 92.1003 51.8989 88.6003 51.8989 85.2003L52.1989 77.2003H51.9989Z" fill="#F1F1F1"/>
<path d="M56.7969 28.4997C56.4969 28.4997 56.2969 29.3997 56.2969 29.7997C56.2969 30.2997 56.6969 30.9997 57.2969 30.7997C57.5969 30.6997 57.9969 30.1997 57.9969 29.5997C57.9969 28.9997 57.3969 28.2997 56.6969 28.4997H56.7969Z" fill="black"/>
<path d="M43 38.9023C44.6 39.3023 46.4 38.5023 46.6 37.4023C45.4 37.9023 44.2 38.4023 43 38.9023Z" fill="black"/>
<path d="M58.6977 26.5021C57.6977 26.2021 56.6977 26.5021 55.5977 27.0021C55.5977 26.4021 56.2977 25.8021 57.0977 25.6021C57.6977 25.4021 58.1977 25.6021 58.6977 26.5021Z" fill="#707070"/>
<path d="M66.1978 135.203C65.9978 136.403 65.7978 137.503 65.5978 138.703C65.3978 140.003 64.5978 140.703 63.2978 140.603C62.8978 140.603 62.5978 140.603 62.1978 140.603C56.2978 139.803 50.2978 139.003 44.3978 138.203C42.2978 137.903 42.2978 137.803 43.3978 136.003C45.2978 134.003 47.6978 133.303 50.2978 133.003C51.9978 132.803 53.7978 132.803 55.5978 132.803C57.3978 132.903 59.2978 133.103 61.0978 133.203C61.0978 133.003 61.2978 132.803 61.0978 132.603C60.9978 132.103 60.6978 131.703 60.5978 131.203C60.3978 130.703 60.0978 130.203 59.8978 129.703C58.6978 127.103 57.4978 124.503 56.3978 121.803C54.6978 117.803 52.9978 113.803 51.3978 109.803C49.2978 104.703 48.7978 99.6031 50.5978 94.4031C50.9978 93.3031 51.5978 92.2031 52.1978 91.2031C52.3978 91.5031 52.5978 91.9031 52.6978 92.2031C54.1978 99.5031 57.5978 105.803 62.9978 110.803C64.3978 112.103 65.9978 113.303 67.4978 114.603C67.8978 115.003 68.3978 115.303 68.7978 115.703C68.5978 117.803 68.3978 120.003 68.0978 122.103C67.4978 126.503 66.8978 131.003 66.1978 135.403V135.203Z" fill="#999999"/>
<path d="M68.5984 27.2028C69.1984 27.5028 69.9984 27.6028 70.6984 27.4028C72.8984 26.8028 77.7984 25.5028 78.3984 25.3028C83.9984 22.9028 87.1984 18.8028 88.7984 13.5028C89.4984 11.1028 88.9984 10.7028 86.3984 10.8028C77.0984 11.2028 69.8984 14.9028 65.3984 22.5028C65.3984 22.6028 65.7984 24.1028 66.0984 25.1028C66.2984 25.8028 66.7984 26.4028 67.4984 26.7028L68.5984 27.2028Z" fill="#999999"/>
<path d="M70 25.1997C70.3 25.1997 70.7 25.1997 71.1 24.9997C72.3 24.5997 74.8 23.6997 75.1 23.4997C78 22.0997 79.6 20.0997 80.3 17.6997C80.6 16.6997 80.3 16.4997 78.9 16.7997C74 17.6997 68.8 19.0997 68 23.3997C68 23.8997 68 24.0997 68.3 24.4997C68.4 24.7997 69 24.8997 69.3 24.9997H69.9C69.9 25.0997 69.9 25.0997 69.9 25.0997L70 25.1997Z" fill="white"/>
<path d="M68.3 119.3C68.3 118.6 67.8 117.5 67.6 116.7C66.3 112.9 64.9 109.1 63.6 105.2C62.6 102.3 61.3 99.1999 62 96.1999C62.4 94.1999 63.5 92.4999 64.6 90.7999C66.1 88.6999 67.6 86.5999 69 84.4999C69.5 83.7999 70.2 82.6999 70.2 82.3999C70 82.0999 68.1 84.5999 67.6 85.1999C66.1 87.0999 64.6 88.9999 63.2 90.8999C61.7 92.9999 60.5 95.3999 60.5 97.9999C60.5 101.4 62.2 104.7 63.3 107.9C64.7 111.6 66.2 115.3 67.8 118.9C68.1 119.5 68.3 119.6 68.2 119.3H68.3Z" fill="#737373"/>
<path d="M34.1 78.8C34.1 78.8 34.3 78.8 34.4 78.8C35.8 78.7 37.3 78.7 38.7 78.8C38.8 78.8 39 78.8 39.1 78.8C39.9 77.5 40.7 76.2 41.4 74.9C41.6 74.5 41.9 74.4 42.3 74.4C42.7 74.4 43.1 74.4 43.4 74.4C43.5 74.4 43.6 74.2 43.8 74.2C43.8 74.1 43.6 73.9 43.5 73.9C43.2 73.8 42.8 73.7 42.5 73.6C42.4 73.6 42.3 73.6 42.2 73.6C42.2 73.6 42.2 73.6 42.2 73.5C42.3 73.5 42.5 73.4 42.6 73.3C42.9 73 43.2 72.8 43.4 72.5C43.4 72.4 43.4 72.2 43.5 72C43.3 72 43.1 71.9 42.9 72C42.6 72.2 42.3 72.4 42 72.7C41.9 72.7 41.8 72.9 41.6 73.1C41.5 72.8 41.4 72.5 41.2 72.2C41.2 72 41 71.8 40.9 71.7C40.9 71.7 40.7 71.6 40.6 71.5C40.6 71.6 40.4 71.7 40.4 71.9C40.4 72.4 40.4 72.8 40.4 73.3C40.4 74.1 40.2 74.7 39.7 75.2C38.6 76.2 37.4 77 36.2 77.8C35.5 78.3 34.7 78.7 34 79.1L34.1 78.8Z" fill="#ABABAB"/>
<path d="M42.3984 103.1C42.5984 103.5 42.7984 103.9 42.9984 104.3C43.1984 104.7 43.5984 104.9 43.9984 104.7C44.0984 104.7 44.1984 104.7 44.3984 104.6C46.3984 103.7 48.3984 102.8 50.3984 101.8C51.0984 101.5 51.0984 101.4 50.4984 100.9C49.5984 100.4 48.6984 100.4 47.7984 100.6C47.1984 100.7 46.4984 100.9 45.8984 101.1C45.2984 101.3 44.5984 101.6 43.9984 101.8C43.9984 101.8 43.9984 101.7 43.9984 101.6C43.9984 101.4 43.9984 101.2 43.9984 101.1C43.9984 100.9 43.9984 100.7 43.9984 100.5C44.0984 99.5 44.2984 98.4 44.3984 97.3C44.5984 95.7 44.6984 94.1 44.8984 92.5C45.0984 90.5 44.6984 88.6 43.4984 87C43.1984 86.6 42.8984 86.3 42.5984 86C42.5984 86.1 42.5984 86.3 42.5984 86.4C42.7984 89.1 42.2984 91.7 40.8984 94.1C40.4984 94.7 40.0984 95.3 39.6984 95.9C39.5984 96.1 39.4984 96.3 39.3984 96.4C39.6984 97.1 39.9984 97.9 40.2984 98.6C40.9984 100.1 41.6984 101.6 42.3984 103.1Z" fill="#ABABAB"/>
<path d="M30.0004 64.7994C29.7004 64.7994 29.5004 64.7994 29.3004 64.5994C28.6004 64.0994 27.1004 62.9994 26.9004 62.8994C25.3004 61.2994 24.7004 59.4994 24.9004 57.4994C24.9004 56.5994 25.2004 56.4994 26.1004 56.8994C29.3004 58.1994 31.3004 60.3994 31.8004 63.6994C31.8004 63.6994 31.4004 64.1994 31.2004 64.4994C31.0004 64.6994 30.8004 64.7994 30.5004 64.8994H30.0004V64.7994Z" fill="#8E8E8E"/>
<path d="M34.0969 98.2016V98.0016C34.0969 97.8016 34.1969 97.6016 34.2969 97.4016C34.4969 96.4016 34.6969 95.4016 34.8969 94.4016C34.8969 94.3016 34.8969 94.2016 34.8969 94.0016C34.8969 93.7016 34.8969 93.4016 34.8969 93.1016C34.8969 92.6016 34.6969 92.1016 34.3969 91.7016C34.1969 91.4016 33.9969 91.2016 33.7969 90.9016C32.7969 89.9016 31.6969 88.9016 30.6969 88.0016C30.6969 88.0016 30.4969 87.9016 30.3969 87.9016C30.4969 88.0016 30.5969 88.2016 30.6969 88.3016C31.5969 89.3016 32.5969 90.3016 33.4969 91.2016C34.0969 91.8016 34.4969 92.5016 34.5969 93.3016C34.5969 93.7016 34.5969 94.1016 34.5969 94.5016C34.5969 95.0016 34.3969 95.4016 34.2969 95.9016C34.1969 96.6016 33.9969 97.3016 33.8969 98.0016C33.7969 98.8016 33.5969 99.5016 33.4969 100.202C33.4969 100.402 33.4969 100.702 33.3969 100.902C33.3969 100.902 33.3969 101.102 33.3969 101.202C33.3969 100.902 33.5969 100.602 33.5969 100.302C33.7969 99.7016 33.8969 99.0016 33.9969 98.4016L34.0969 98.2016ZM30.0969 65.0016C29.8969 65.1016 29.7969 65.3016 29.7969 65.6016C29.9969 65.3016 30.3969 65.1016 30.7969 65.0016C30.6969 64.8016 30.2969 64.8016 30.0969 65.0016ZM31.1969 66.1016C31.1969 66.0016 30.9969 65.9016 30.8969 65.8016C30.7969 65.8016 30.6969 65.9016 30.6969 66.0016C30.6969 66.0016 30.6969 66.0016 30.6969 66.1016V66.3016C30.7969 66.3016 31.0969 66.5016 31.1969 66.5016C31.4969 66.5016 31.3969 66.1016 31.1969 66.0016V66.1016ZM35.5969 68.1016C35.7969 68.5016 36.3969 68.7016 36.9969 68.4016C36.4969 68.3016 35.9969 68.2016 35.5969 68.1016Z" fill="#8F8F8F"/>
<path d="M35.5969 68.1016C35.7969 68.5016 36.3969 68.7016 36.9969 68.4016C36.4969 68.3016 35.9969 68.2016 35.5969 68.1016ZM31.1969 66.1016C31.1969 66.0016 30.9969 65.9016 30.8969 65.8016C30.7969 65.8016 30.6969 65.9016 30.6969 66.0016C30.6969 66.0016 30.6969 66.0016 30.6969 66.1016V66.3016C30.7969 66.3016 31.0969 66.5016 31.1969 66.5016C31.4969 66.5016 31.3969 66.1016 31.1969 66.0016V66.1016ZM30.0969 65.0016C29.8969 65.1016 29.7969 65.3016 29.7969 65.6016C29.9969 65.3016 30.3969 65.1016 30.7969 65.0016C30.6969 64.8016 30.2969 64.8016 30.0969 65.0016ZM34.0969 98.2016V98.0016C34.0969 97.8016 34.1969 97.6016 34.2969 97.4016C34.4969 96.4016 34.6969 95.4016 34.8969 94.4016C34.8969 94.3016 34.8969 94.2016 34.8969 94.0016C34.8969 93.7016 34.8969 93.4016 34.8969 93.1016C34.8969 92.6016 34.6969 92.1016 34.3969 91.7016C34.1969 91.4016 33.9969 91.2016 33.7969 90.9016C32.7969 89.9016 31.6969 88.9016 30.6969 88.0016C30.6969 88.0016 30.4969 87.9016 30.3969 87.9016C30.4969 88.0016 30.5969 88.2016 30.6969 88.3016C31.5969 89.3016 32.5969 90.3016 33.4969 91.2016C34.0969 91.8016 34.4969 92.5016 34.5969 93.3016C34.5969 93.7016 34.5969 94.1016 34.5969 94.5016C34.5969 95.0016 34.3969 95.4016 34.2969 95.9016C34.1969 96.6016 33.9969 97.3016 33.8969 98.0016C33.7969 98.8016 33.5969 99.5016 33.4969 100.202C33.4969 100.402 33.4969 100.702 33.3969 100.902C33.3969 100.902 33.3969 101.102 33.3969 101.202C33.3969 100.902 33.5969 100.602 33.5969 100.302C33.7969 99.7016 33.8969 99.0016 33.9969 98.4016L34.0969 98.2016Z" fill="#ABABAB"/>
<path d="M32.3 101.5C32.9 101.5 33.6 101.5 34.3 101.2C35.1 100.9 35.8 100.6 36.4 100.2C37.6 99.5 38.5 98.7 39.6 97.7C39.6 97.7 39.7 97.7 39.8 97.6C39.8 97.5 40 97.4 40 97.3C40 97.3 39.8 97.3 39.8 97.2V96.9C39.6 96.7 39.5 96.6 39.5 96.4V96.2C39.1 94.9 38.8 93.6 38.4 92.3C38.4 91.9 38.3 91.5 38.2 91.1C38 89.8 37.8 88.6 37.6 87.3L37.3 85.8L37.1 84.7C37.1 84.7 37.1 84.5 37.1 84.4C37.1 84.2 37 84 36.9 83.8C36.9 83.8 36.9 83.8 36.9 83.7C36.7 83 36.5 82.3 36.3 81.7V81.6C36.3 81.6 36.3 81.4 36.2 81.3C35.9 80.6 35.6 79.9 35.2 79.2C35.2 79 35 78.8 34.9 78.7C34.5 78 34.2 77.2 33.8 76.5C33.4 75.8 33.3 75 33.2 74.2C33.2 73.7 33.1 73.2 33 72.7V72.3C33 71.9 33 71.4 33 71V70.8C33 70.8 33.2 70.8 33.3 70.8C34.3 70.8 35.3 70.8 36.3 70.8C36.6 70.8 36.9 70.8 37.2 70.7C37.7 70.7 37.9 70.4 38 69.9C39.5 69.9 40.7 69.2 41.6 68C41 67.8 40.4 67.7 39.8 67.5C39.5 67.5 39.2 67.2 39.2 66.9C39.2 66.7 39.3 66.6 39.5 66.5C39.5 66.5 39.7 66.5 39.8 66.5C40 66.5 40.3 66.4 40.5 66.3V66.2C39.8 65.9 39 65.6 38.3 65.5C37.1 65.2 35.9 65 34.6 64.7C33.6 64.7 32.7 64.6 31.7 64.5H31.2C31.1 64.5 31 64.5 30.8 64.6H30.6C30.6 64.6 30.4 64.6 30.3 64.6C29.8 64.8 29.4 65 28.9 65.3C28.7 65.5 28.6 65.7 28.4 65.9C28.4 66 28.2 66.1 28.1 66.2C28.1 66.2 27.9 66.4 27.9 66.5C27.9 66.6 27.9 66.8 27.9 66.9C27.9 67 27.9 67.1 27.9 67.2C27.9 67.2 27.9 67.2 27.9 67.3C28.1 68.5 28.3 69.6 28.5 70.7C28.8 72.1 29.1 73.5 28.8 75C28.6 76.1 28.3 77.2 28 78.2C28 78.5 27.9 78.8 27.8 79.1L27.6 79.9C26.9 82.2 26.5 84.5 26.4 86.9V87.9C26.4 89.3 26.6 90.6 26.7 92C26.7 92.4 26.7 92.9 26.6 93.3C26.5 94 26.3 94.7 26 95.3C27.7 97.4 29.6 99.6 31.6 101.8L32.1 102.3L32.3 101.5Z" fill="#ABABAB"/>
<path d="M39.8969 66.7031C40.4969 66.9031 41.0969 67.0031 41.7969 67.2031C42.2969 66.7031 42.2969 66.2031 41.7969 65.7031C41.7969 65.7031 41.5969 65.6031 41.4969 65.5031C41.2969 65.5031 40.9969 65.3031 40.7969 65.2031C40.4969 65.2031 40.1969 65.3031 39.9969 65.4031C39.6969 65.4031 39.3969 65.6031 39.2969 65.9031C39.2969 66.3031 39.5969 66.5031 39.8969 66.5031V66.7031Z" fill="#202020"/>
<path d="M36.9998 83.703C36.6998 82.603 36.3998 81.503 35.9998 80.503C35.2998 78.903 34.9998 78.803 34.1998 77.203C33.8998 76.503 33.0998 74.703 32.7998 73.103C32.5998 71.903 32.7998 70.703 32.7998 70.303C32.7998 70.203 32.9998 70.103 32.9998 70.303C34.7998 72.103 35.8998 72.903 38.3998 76.003C40.8998 79.103 42.7998 83.703 42.9998 86.803C43.1998 89.903 42.4998 92.603 41.0998 95.003C40.7998 95.603 40.2998 96.103 39.9998 96.703C39.9998 96.703 39.8998 96.703 39.7998 96.703C39.7998 96.703 39.6998 96.703 39.5998 96.603C39.3998 96.303 39.2998 95.903 39.1998 95.603C38.8998 94.303 38.5998 93.003 38.1998 91.703C38.1998 91.303 38.0998 90.903 37.9998 90.503C37.7998 89.203 37.5998 88.003 37.3998 86.703L36.8998 83.803L36.9998 83.703Z" fill="#EDEDED"/>
<path d="M34.6 84.7031L32.5 81.6031L34.8 81.4031L36.7 81.1031L37.8 80.8031L38.9 80.4031L39.4 80.0031L39.8 79.4031L40.4 78.0031L40.6 77.7031H40.7L40.9 77.9031V78.4031V79.4031L41.4 79.3031H42.3C42.3 79.2031 42.7 79.2031 42.7 79.2031L42.9 79.4031V79.7031L42.6 79.9031L41.8 80.2031L41 80.4031L41.4 80.7031L42.2 81.4031V81.7031V81.9031H41.8L40.6 81.3031H40.2L39.7 81.6031L38.6 82.3031L35.8 84.1031L34.5 84.7031H34.6Z" fill="#ABABAB"/>
<path d="M34.5992 84.7008C35.8992 84.1008 37.1992 83.3008 38.3992 82.5008C38.7992 82.2008 39.1992 81.9008 39.5992 81.7008C39.6992 81.7008 39.7992 81.6008 39.8992 81.5008C40.1992 81.2008 40.4992 81.2008 40.8992 81.4008C41.1992 81.6008 41.4992 81.7008 41.7992 81.9008C41.8992 81.9008 42.0992 81.9008 42.1992 81.9008C42.4992 81.9008 42.5992 81.7008 42.3992 81.5008C42.1992 81.2008 41.8992 81.0008 41.5992 80.7008C41.5992 80.7008 41.3992 80.6008 41.2992 80.5008V80.4008C41.5992 80.4008 41.8992 80.3008 42.1992 80.2008C42.3992 80.2008 42.5992 80.0008 42.6992 79.9008C42.7992 79.8008 42.9992 79.6008 42.9992 79.5008C42.9992 79.3008 42.7992 79.2008 42.5992 79.2008C42.1992 79.2008 41.7992 79.3008 41.3992 79.4008C41.3992 79.4008 41.1992 79.4008 41.0992 79.4008C41.0992 79.2008 41.0992 79.0008 41.0992 78.8008C41.0992 78.6008 41.0992 78.3008 41.0992 78.1008C41.0992 78.0008 40.9992 77.9008 40.8992 77.8008C40.7992 77.8008 40.6992 77.9008 40.5992 78.0008C40.3992 78.4008 40.1992 78.8008 40.0992 79.2008C40.0992 79.2008 40.0992 79.4008 39.9992 79.5008C39.6992 80.3008 38.9992 80.6008 38.2992 80.8008C36.5992 81.3008 34.7992 81.5008 32.9992 81.6008C32.9992 81.6008 32.7992 81.6008 32.6992 81.6008V81.7008C34.3992 81.7008 35.9992 81.4008 37.5992 81.1008C38.0992 81.0008 38.5992 80.8008 39.0992 80.6008C39.4992 80.4008 39.7992 80.1008 39.9992 79.7008C40.1992 79.2008 40.3992 78.7008 40.6992 78.2008C40.6992 78.2008 40.7992 78.0008 40.8992 78.0008C40.8992 78.0008 41.0992 78.2008 41.0992 78.3008C41.0992 78.7008 41.0992 79.1008 41.0992 79.5008C41.0992 79.5008 41.0992 79.7008 41.0992 79.8008C41.3992 79.7008 41.5992 79.6008 41.8992 79.5008C42.1992 79.5008 42.4992 79.5008 42.8992 79.5008C43.2992 79.5008 43.0992 79.5008 43.1992 79.7008C43.1992 79.7008 43.1992 79.9008 42.9992 80.0008C42.6992 80.1008 42.4992 80.2008 42.1992 80.3008C41.8992 80.3008 41.5992 80.5008 41.2992 80.5008C41.2992 80.5008 41.2992 80.5008 41.2992 80.6008C41.5992 80.8008 41.8992 81.0008 42.1992 81.2008C42.2992 81.2008 42.3992 81.4008 42.4992 81.6008C42.4992 81.6008 42.4992 81.8008 42.4992 81.9008C42.4992 81.9008 42.2992 81.9008 42.1992 81.9008C41.9992 81.8008 41.6992 81.7008 41.4992 81.6008C41.2992 81.6008 41.1992 81.4008 40.9992 81.4008C40.6992 81.3008 40.3992 81.3008 40.0992 81.6008C40.0992 81.7008 39.8992 81.8008 39.7992 81.9008C39.1992 82.3008 38.4992 82.8008 37.8992 83.2008C36.8992 83.8008 35.8992 84.5008 34.7992 85.0008V85.1008L34.5992 84.7008Z" fill="#737373"/>
<path d="M30.6985 66.4008C30.8985 66.4008 30.9985 66.6008 31.1985 66.6008C31.3985 66.6008 31.3985 66.2008 31.1985 66.1008C31.1985 66.0008 30.8985 65.8008 30.7985 65.8008C30.5985 65.8008 30.5985 66.1008 30.6985 66.4008Z" fill="#202020"/>
<path d="M29.7969 65.6016C29.9969 65.3016 30.3969 65.1016 30.7969 65.0016C30.6969 64.8016 30.2969 64.8016 30.0969 65.0016C29.8969 65.0016 29.7969 65.3016 29.7969 65.6016Z" fill="black"/>
<path d="M30.8004 66.5C31.0004 66.7 31.2004 66.8 31.4004 66.7C31.7004 66.6 31.6004 66.2 31.4004 66.1C31.3004 65.9 31.0004 65.7 30.9004 65.8C30.6004 65.9 30.6004 66.3 30.7004 66.6L30.8004 66.5Z" fill="black"/>
<path d="M36.6992 68.8008C36.7992 69.2008 37.4992 69.4008 38.0992 69.1008C37.5992 69.0008 37.0992 68.9008 36.6992 68.8008Z" fill="black"/>
<path d="M29.7969 65.6016C29.9969 65.3016 30.3969 65.1016 30.7969 65.0016C30.6969 64.8016 30.2969 64.8016 30.0969 65.0016C29.8969 65.0016 29.7969 65.3016 29.7969 65.6016Z" fill="#707070"/>
<path d="M32.3 101.501C33.3 102.501 34.3 103.601 35.3 104.501L35.5 103.901C35.8 102.901 36.1 101.901 36.3 100.801C36.3 100.601 36.3 100.401 36.5 100.101C36.8 98.8008 37.2 97.4008 37.5 96.1008C38 94.1008 37.9 92.2008 36.9 90.4008C36.7 90.0008 36.4 89.7008 36.2 89.3008C36.2 89.4008 36.2 89.6008 36.1 89.7008C36.1 91.3008 35.7 92.8008 35.1 94.1008C35.1 94.2008 35.1 94.3008 34.9 94.4008C34.8 94.8008 34.6 95.1008 34.4 95.3008C34.4 95.4008 34.3 95.5008 34.2 95.6008C33.9 96.1008 33.6 96.5008 33.3 96.9008C32.9 97.5008 32.3 98.0008 31.9 98.5008C31.8 98.7008 31.6 98.8008 31.5 99.0008C31.6 99.6008 31.8 100.101 31.9 100.601L32.4 101.101L32.3 101.501Z" fill="#ABABAB"/>
<path d="M28.1988 66.4018C27.9988 66.5018 27.6988 66.6018 27.3988 66.6018C26.4988 66.5018 24.6988 66.3018 24.4988 66.2018C22.2988 65.6018 20.8988 64.3018 20.0988 62.5018C19.6988 61.7018 19.8988 61.5018 20.7988 61.4018C24.1988 61.0018 26.9988 62.0018 29.0988 64.5018C29.0988 64.5018 29.0988 65.1018 28.9988 65.5018C28.9988 65.8018 28.7988 66.0018 28.5988 66.1018L28.1988 66.4018Z" fill="#ABABAB"/>
<path d="M27.4972 65.7031C27.3972 65.7031 27.2972 65.7031 27.0972 65.7031C26.5972 65.7031 25.6972 65.4031 25.4972 65.4031C24.3972 65.0031 23.6972 64.4031 23.2972 63.6031C23.0972 63.2031 23.2972 63.2031 23.6972 63.2031C25.5972 63.2031 27.4972 63.5031 27.9972 65.0031C27.9972 65.2031 27.9972 65.3031 27.9972 65.4031C27.9972 65.5031 27.7972 65.6031 27.6972 65.6031H27.4972V65.7031Z" fill="white"/>
<path d="M33.3977 99.9008C33.3977 100.001 33.3977 99.9008 33.4977 99.7008C33.8977 98.3008 34.1977 96.9008 34.4977 95.4008C34.6977 94.2008 35.0977 92.9008 34.9977 91.6008C34.8977 90.7008 34.2977 89.8008 33.5977 89.2008C32.9977 88.6008 32.2977 88.0008 31.6977 87.4008C31.4977 87.2008 30.6977 86.4008 30.5977 86.5008C30.5977 86.6008 30.8977 87.0008 31.1977 87.2008C31.7977 87.9008 32.4977 88.6008 33.1977 89.2008C33.6977 89.7008 34.1977 90.3008 34.4977 91.0008C34.8977 92.1008 34.5977 93.3008 34.4977 94.4008C34.1977 95.9008 33.9977 97.3008 33.6977 98.8008C33.6977 99.1008 33.5977 99.5008 33.5977 99.8008L33.3977 99.9008Z" fill="#737373"/>
<path d="M51.1987 114.001C51.1987 114.301 50.8987 114.601 50.4987 114.501C46.6987 113.901 42.3987 110.901 38.0987 107.101C37.3987 106.401 36.5987 105.701 35.8987 105.001C35.6987 104.801 35.4987 104.601 35.1987 104.401C34.1987 103.401 33.1987 102.401 32.1987 101.401C31.9987 101.201 31.8987 101.001 31.6987 100.901C29.6987 98.7012 27.7987 96.5012 26.0987 94.4012C23.0987 90.8012 20.6987 87.5012 19.2987 85.5012C18.8987 85.0012 19.4987 84.4012 19.9987 84.6012C21.8987 85.4012 24.1987 85.8012 26.4987 86.0012C29.8987 86.2012 33.5987 86.0012 37.1987 85.4012C37.1987 85.4012 37.1987 85.4012 37.2987 85.4012C39.0987 85.1012 40.7987 84.8012 42.4987 84.4012C47.9987 83.2012 52.6987 81.7012 54.4987 81.1012C54.8987 81.0012 55.2987 81.3012 55.2987 81.8012L51.0987 114.101L51.1987 114.001Z" fill="#999999"/>
<path d="M66.0992 72.8008L59.9992 64.8008L57.5992 70.5008L55.1992 75.2008L53.5992 77.8008L51.6992 80.4008L50.2992 81.3008L48.2992 81.8008L44.0992 82.1008L43.1992 82.5008V82.8008L43.4992 83.4008L44.6992 84.0008L47.3992 84.8008V85.1008L46.5992 86.3008L45.4992 88.5008L45.2992 89.5008L45.5992 90.1008H46.3992L47.0992 89.7008L48.5992 87.9008L49.5992 86.1008L49.9992 87.3008L51.0992 89.9008L51.7992 90.4008L52.4992 90.1008L52.6992 89.0008L52.1992 85.4008L52.4992 84.4008L53.6992 83.5008L56.4992 81.4008L63.5992 75.7008L66.2992 72.9008L66.0992 72.8008Z" fill="#999999"/>
<path d="M66.3 72.8032C66.3 72.8032 66.3 72.8032 66.3 72.9032C63.6 75.8032 60.4 78.3032 57.3 80.8032C56.3 81.6032 55.2 82.3032 54.2 83.1032C53.9 83.3032 53.7 83.6032 53.4 83.8032C52.4 84.3032 52 85.1032 52.2 86.2032C52.4 87.1032 52.5 88.0032 52.6 89.0032C52.6 89.4032 52.6 89.8032 52.4 90.2032C52.1 90.8032 51.4 90.9032 51.1 90.4032C50.6 89.6032 50.2 88.6032 49.8 87.7032C49.7 87.4032 49.6 87.2032 49.5 86.8032C49.5 86.6032 49.3 86.6032 49.2 86.8032C48.7 87.6032 48.4 88.2032 48 88.9032C47.6 89.3032 47.3 89.7032 46.9 90.0032C46.5 90.3032 45.9 90.6032 45.5 90.4032C44.9 90.2032 44.8 89.5032 45.1 89.0032C45.6 88.0032 46.1 87.0032 46.7 86.0032C46.8 85.8032 47 85.6032 47.1 85.4032C47.1 85.4032 47.1 85.2032 47.1 85.1032C46.5 84.9032 46 84.8032 45.5 84.6032C44.9 84.4032 44.2 84.2032 43.6 83.9032C43.3 83.7032 43.1 83.4032 43 83.0032V82.8032C43.3 82.6032 43.6 82.3032 43.9 82.2032C45.1 82.0032 46.3 82.0032 47.5 81.9032C47.8 81.9032 48 81.9032 48.3 81.8032C50.6 81.8032 52.1 80.3032 53.2 78.5032C55.9 74.5032 57.9 70.1032 59.7 65.6032C59.7 65.4032 59.9 65.1032 60 64.9032C60.1 64.7032 60.4 64.9032 60.3 65.1032C58.6 69.3032 56.8 73.4032 54.5 77.2032C53.8 78.4032 52.8 79.5032 51.9 80.6032C51.1 81.6032 50 82.0032 48.7 82.1032C47.2 82.2032 45.7 82.3032 44.2 82.5032C44 82.5032 43.7 82.7032 43.5 82.8032C43.5 82.8032 43.4 83.0032 43.5 83.1032C43.7 83.4032 43.8 83.7032 44.1 83.7032C45.1 84.1032 46.1 84.3032 47.1 84.6032C47.3 84.6032 47.6 84.7032 47.9 84.8032C48 84.8032 48.1 85.0032 47.9 85.1032C47.4 85.7032 46.9 86.2032 46.5 86.8032C46.1 87.5032 45.7 88.4032 45.5 89.2032C45.5 89.4032 45.5 89.9032 45.7 90.0032C45.9 90.1032 46.4 90.0032 46.6 89.8032C47.2 89.2032 47.7 88.6032 48.1 88.0032C48.6 87.3032 49 86.6032 49.5 85.8032C49.5 85.7032 49.8 85.7032 49.8 85.8032C50.1 86.8032 50.4 87.7032 50.7 88.6032C50.8 89.0032 51.1 89.4032 51.3 89.7032C51.5 89.9032 51.8 90.0032 52 90.0032C52.1 90.0032 52.3 89.6032 52.3 89.3032C52.3 88.6032 52.1 87.8032 52 87.1032C52 86.6032 51.9 86.2032 51.8 85.7032C51.8 84.7032 52 83.9032 53 83.5032C53.4 83.3032 53.7 83.1032 54 82.9032C55.6 81.6032 57.3 80.4032 58.9 79.1032C61.4 77.1032 64 75.2032 66.1 72.7032C66.2 72.6032 66.5 72.7032 66.4 72.8032H66.3Z" fill="#737373"/>
</g>
</g>
<defs>
<clipPath id="clip0_783_15144">
<rect width="102" height="93" fill="white" transform="translate(0.5)"/>
</clipPath>
</defs>
</svg>
