<svg width="192" height="64" viewBox="0 0 192 64" fill="none" xmlns="http://www.w3.org/2000/svg">
<path d="M19.8756 20.457C7.9844 20.457 3.146 27.2026 3.146 34.9466C3.146 40.5018 5.674 45.5322 11.4852 47.9194C11.082 46.0826 11.7732 44.5466 12.8356 43.529C12.9188 43.4458 13.0084 43.369 13.1108 43.2986C9.5844 41.8202 8.3492 38.8826 8.3492 34.9466C8.3492 29.1226 11.0436 25.4362 19.882 25.4362C28.7204 25.4362 31.4148 29.1226 31.4148 34.9466C31.4148 38.8762 30.154 41.8074 26.634 43.2986C26.7364 43.3562 26.8324 43.4394 26.922 43.529C27.9716 44.5466 28.6564 46.0698 28.2724 47.9066C34.0708 45.513 36.6052 40.5018 36.6052 34.953C36.6052 27.2026 31.6708 20.4634 19.8756 20.4634V20.457ZM49.5012 27.1322H45.6676C45.226 27.1322 44.8612 26.761 44.8612 26.313V21.161C44.8612 20.7194 44.49 20.3418 44.042 20.3418H40.4708C40.0292 20.3418 39.6516 20.713 39.6516 21.161V48.9946C39.6516 49.4362 40.0228 49.801 40.4708 49.801H44.042C44.4836 49.801 44.8612 49.4426 44.8612 48.9946V32.8666C44.8612 32.425 45.2196 32.0602 45.6676 32.0602H49.5012C49.9428 32.0602 50.3204 31.689 50.3204 31.241V27.9258C50.3204 27.4842 49.9492 27.1194 49.5012 27.1194V27.1322Z" fill="#FC986C"/>
<path d="M69.1202 20.4549C80.9154 20.4549 85.8498 27.2069 85.8498 34.9509C85.8498 42.6949 80.9154 49.3957 69.1202 49.3957C57.325 49.3957 52.3906 42.6949 52.3906 34.9509C52.3906 27.2069 57.2226 20.4549 69.1202 20.4549ZM69.1202 44.4037C77.901 44.4037 80.653 40.7685 80.653 34.9445C80.653 29.1205 77.901 25.4405 69.1202 25.4405C60.3394 25.4405 57.5874 29.1269 57.5874 34.9445C57.5874 40.7621 60.2882 44.4037 69.1202 44.4037ZM90.6882 20.3525H94.3042C94.7394 20.3525 95.0978 20.7045 95.0978 21.1461V49.0245C95.0978 49.4597 94.7458 49.8181 94.3042 49.8181H90.6882C90.253 49.8181 89.8946 49.4661 89.8946 49.0245V21.1461C89.8946 20.7109 90.2466 20.3525 90.6882 20.3525Z" fill="#FC986C"/>
<path d="M101.11 43.7821H118.178C118.633 43.7821 118.998 43.4173 118.998 42.9629V41.4269C118.998 40.9725 118.633 40.6077 118.178 40.6077H102.102C101.647 40.6077 101.282 40.2429 101.282 39.7885V21.6317C101.282 21.1773 101.647 20.8125 102.102 20.8125H105.66C106.114 20.8125 106.479 21.1773 106.479 21.6317V26.2845C106.479 26.7389 106.844 27.1037 107.298 27.1037H135.586C136.041 27.1037 136.406 26.7389 136.406 26.2845V21.6317C136.406 21.1773 136.77 20.8125 137.225 20.8125H140.783C141.238 20.8125 141.602 21.1773 141.602 21.6317V39.7885C141.602 40.2429 141.238 40.6077 140.783 40.6077H125.014C124.559 40.6077 124.194 40.9725 124.194 41.4269V42.9629C124.194 43.4173 124.559 43.7821 125.014 43.7821H141.871C142.326 43.7821 142.69 44.1469 142.69 44.6013V47.9549C142.69 48.4093 142.326 48.7741 141.871 48.7741H101.116C100.662 48.7741 100.297 48.4093 100.297 47.9549V44.6013C100.297 44.1469 100.662 43.7821 101.116 43.7821H101.11ZM136.393 34.8093V32.9149C136.393 32.4605 136.028 32.0957 135.574 32.0957H107.286C106.831 32.0957 106.466 32.4605 106.466 32.9149V34.8093C106.466 35.2637 106.831 35.6285 107.286 35.6285H135.574C136.028 35.6285 136.393 35.2637 136.393 34.8093Z" fill="#FC986C"/>
<path d="M183.255 46.4197H148.657C148.228 46.4197 147.876 46.0741 147.876 45.6389V31.8021C147.876 31.3733 148.222 31.0213 148.657 31.0213H171.985C172.414 31.0213 172.766 30.6757 172.766 30.2405V26.6885C172.766 26.2597 172.42 25.9077 171.985 25.9077H149.233C148.804 25.9077 148.452 25.5621 148.452 25.1269V21.6965C148.452 21.2677 148.798 20.9157 149.233 20.9157H177.182C177.61 20.9157 177.962 21.2613 177.962 21.6965V35.2261C177.962 35.6549 177.617 36.0069 177.182 36.0069H153.854C153.425 36.0069 153.073 36.3525 153.073 36.7877V40.6533C153.073 41.0821 153.418 41.4341 153.854 41.4341H183.262C183.69 41.4341 184.042 41.0885 184.042 40.6533V21.1333C184.042 20.7045 184.388 20.3525 184.823 20.3525H188.458C188.887 20.3525 189.239 20.6981 189.239 21.1333V49.0309C189.239 49.4597 188.894 49.8117 188.458 49.8117H184.823C184.394 49.8117 184.042 49.4661 184.042 49.0309V47.2005C184.042 46.7717 183.697 46.4197 183.262 46.4197H183.255Z" fill="#FC986C"/>
<path d="M26.5422 48.5075C26.3118 49.0387 25.9278 49.6275 25.3774 50.2547C25.2494 50.4275 25.0446 50.5107 24.8462 50.5107C24.6734 50.5107 24.5006 50.4531 24.3726 50.3251C24.0718 50.0691 24.0398 49.6083 24.3022 49.3203C24.4046 49.2051 24.5006 49.0771 24.603 48.9619C25.691 47.5731 25.7934 46.4339 24.9358 45.6019C24.2766 44.9683 23.1886 44.5395 21.9342 44.3091C21.275 44.1939 20.571 44.1363 19.867 44.1363C19.163 44.1363 18.4462 44.1939 17.787 44.3091C16.5518 44.5395 15.4638 44.9683 14.8046 45.6019C13.9278 46.4339 14.043 47.5667 15.1374 48.9619C15.2398 49.0771 15.3358 49.2051 15.4382 49.3203C15.6942 49.6083 15.6686 50.0691 15.3678 50.3251C15.227 50.4403 15.067 50.5107 14.8942 50.5107C14.6958 50.5107 14.491 50.4275 14.3502 50.2547C13.8062 49.6211 13.435 49.0323 13.1854 48.5075C12.251 46.4531 13.243 45.1219 13.819 44.5779C14.107 44.3027 14.4334 44.0787 14.811 43.8739C16.1486 43.1251 18.011 42.7539 19.8734 42.7539C21.7358 42.7539 23.6046 43.1251 24.9358 43.8739C25.307 44.0723 25.6526 44.3027 25.9278 44.5779C26.5038 45.1219 27.5086 46.4595 26.5422 48.5075Z" fill="#FC986C"/>
<path d="M22.939 49.2116C22.9262 49.1092 22.9134 49.0132 22.8814 48.9236C22.523 47.5924 20.8462 46.21 19.9246 46.21H19.6942C18.8174 46.21 17.211 47.49 16.7822 48.7764C16.7374 48.9172 16.699 49.0644 16.6798 49.2052C16.667 49.2756 16.667 49.346 16.667 49.4036C16.667 49.8196 16.7118 50.2804 16.827 50.722V50.7348C17.1278 51.7844 17.8894 52.7444 19.6942 52.8276H19.9246C21.8638 52.7444 22.5934 51.6628 22.8366 50.53C22.9198 50.1396 22.9518 49.7556 22.9518 49.3972C22.9518 49.3268 22.9518 49.2692 22.939 49.1988V49.2116ZM19.8414 51.4068C18.7534 51.394 18.107 51.0484 18.107 49.41C18.107 49.3844 18.107 49.3524 18.1198 49.3268C18.203 48.7508 19.2526 47.746 19.7006 47.65H19.8862C20.4174 47.778 21.435 48.7828 21.5054 49.346C21.5182 49.3716 21.5182 49.4036 21.5182 49.4164C21.5182 51.0548 20.8846 51.394 19.8414 51.4132V51.4068Z" fill="#FC986C"/>
<path d="M19.3124 17.7962C19.0564 19.5626 19.8692 20.2602 21.0788 21.073C23.2932 22.033 21.7956 25.521 19.6068 23.9466C18.4996 23.1914 17.4244 21.9306 16.8868 20.465C14.2052 13.7706 22.2948 8.31144 27.2612 13.4954C29.5204 16.0298 28.1444 18.8458 25.0148 16.0618C23.3188 14.4874 20.1124 15.0762 19.4084 17.4506L19.3188 17.8026L19.3124 17.7962Z" fill="#FC986C"/>
</svg>
