<svg width="192" height="43" viewBox="0 0 192 43" fill="none" xmlns="http://www.w3.org/2000/svg">
<path d="M19.7296 9.02145C7.8384 9.02145 3 15.767 3 23.511C3 29.0662 5.528 34.0967 11.3392 36.4839C10.936 34.6471 11.6272 33.1111 12.6896 32.0935C12.7728 32.0103 12.8624 31.9335 12.9648 31.8631C9.4384 30.3847 8.2032 27.4471 8.2032 23.511C8.2032 17.687 10.8976 14.0006 19.736 14.0006C28.5744 14.0006 31.2688 17.687 31.2688 23.511C31.2688 27.4406 30.008 30.3719 26.488 31.8631C26.5904 31.9207 26.6864 32.0039 26.776 32.0935C27.8256 33.1111 28.5104 34.6342 28.1264 36.471C33.9248 34.0774 36.4592 29.0662 36.4592 23.5175C36.4592 15.7671 31.5248 9.02785 19.7296 9.02785V9.02145ZM49.3552 15.6967H45.5216C45.08 15.6967 44.7152 15.3255 44.7152 14.8775V9.72545C44.7152 9.28385 44.344 8.90625 43.896 8.90625H40.3248C39.8832 8.90625 39.5056 9.27745 39.5056 9.72545V37.559C39.5056 38.0006 39.8768 38.3654 40.3248 38.3654H43.896C44.3376 38.3654 44.7152 38.007 44.7152 37.559V21.431C44.7152 20.9894 45.0736 20.6247 45.5216 20.6247H49.3552C49.7968 20.6247 50.1744 20.2534 50.1744 19.8054V16.4902C50.1744 16.0486 49.8032 15.6838 49.3552 15.6838V15.6967Z" fill="#FC986C"/>
<path d="M68.9757 9.01646C80.7709 9.01646 85.7053 15.7685 85.7053 23.5125C85.7053 31.2565 80.7709 37.9573 68.9757 37.9573C57.1805 37.9573 52.2461 31.2565 52.2461 23.5125C52.2461 15.7685 57.0781 9.01646 68.9757 9.01646ZM68.9757 32.9653C77.7565 32.9653 80.5085 29.3301 80.5085 23.5061C80.5085 17.6821 77.7565 14.0021 68.9757 14.0021C60.1949 14.0021 57.4429 17.6885 57.4429 23.5061C57.4429 29.3237 60.1437 32.9653 68.9757 32.9653ZM90.5437 8.91406H94.1597C94.5949 8.91406 94.9533 9.26606 94.9533 9.70766V37.5861C94.9533 38.0213 94.6013 38.3797 94.1597 38.3797H90.5437C90.1085 38.3797 89.7501 38.0277 89.7501 37.5861V9.70766C89.7501 9.27246 90.1021 8.91406 90.5437 8.91406Z" fill="#FC986C"/>
<path d="M100.965 32.3446H118.034C118.488 32.3446 118.853 31.9798 118.853 31.5254V29.9894C118.853 29.535 118.488 29.1702 118.034 29.1702H101.957C101.503 29.1702 101.138 28.8054 101.138 28.351V10.1942C101.138 9.7398 101.503 9.375 101.957 9.375H105.516C105.97 9.375 106.335 9.7398 106.335 10.1942V14.847C106.335 15.3014 106.7 15.6662 107.154 15.6662H135.442C135.896 15.6662 136.261 15.3014 136.261 14.847V10.1942C136.261 9.7398 136.626 9.375 137.08 9.375H140.639C141.093 9.375 141.458 9.7398 141.458 10.1942V28.351C141.458 28.8054 141.093 29.1702 140.639 29.1702H124.869C124.415 29.1702 124.05 29.535 124.05 29.9894V31.5254C124.05 31.9798 124.415 32.3446 124.869 32.3446H141.727C142.181 32.3446 142.546 32.7094 142.546 33.1638V36.5174C142.546 36.9718 142.181 37.3366 141.727 37.3366H100.972C100.517 37.3366 100.152 36.9718 100.152 36.5174V33.1638C100.152 32.7094 100.517 32.3446 100.972 32.3446H100.965ZM136.248 23.3718V21.4774C136.248 21.023 135.884 20.6582 135.429 20.6582H107.141C106.687 20.6582 106.322 21.023 106.322 21.4774V23.3718C106.322 23.8262 106.687 24.191 107.141 24.191H135.429C135.884 24.191 136.248 23.8262 136.248 23.3718Z" fill="#FC986C"/>
<path d="M183.11 34.9813H148.511C148.082 34.9813 147.73 34.6357 147.73 34.2005V20.3637C147.73 19.9349 148.076 19.5829 148.511 19.5829H171.839C172.268 19.5829 172.62 19.2373 172.62 18.8021V15.2501C172.62 14.8213 172.274 14.4693 171.839 14.4693H149.087C148.658 14.4693 148.306 14.1237 148.306 13.6885V10.2581C148.306 9.82926 148.652 9.47726 149.087 9.47726H177.036C177.465 9.47726 177.817 9.82286 177.817 10.2581V23.7877C177.817 24.2165 177.471 24.5685 177.036 24.5685H153.708C153.279 24.5685 152.927 24.9141 152.927 25.3493V29.2149C152.927 29.6437 153.273 29.9957 153.708 29.9957H183.116C183.545 29.9957 183.897 29.6501 183.897 29.2149V9.69486C183.897 9.26606 184.242 8.91406 184.678 8.91406H188.313C188.742 8.91406 189.094 9.25966 189.094 9.69486V37.5925C189.094 38.0213 188.748 38.3733 188.313 38.3733H184.678C184.249 38.3733 183.897 38.0277 183.897 37.5925V35.7621C183.897 35.3333 183.551 34.9813 183.116 34.9813H183.11Z" fill="#FC986C"/>
<path d="M26.3972 37.0739C26.1668 37.6051 25.7828 38.1939 25.2324 38.8211C25.1044 38.9939 24.8996 39.0771 24.7012 39.0771C24.5284 39.0771 24.3556 39.0195 24.2276 38.8915C23.9268 38.6355 23.8948 38.1747 24.1572 37.8867C24.2596 37.7715 24.3556 37.6435 24.458 37.5283C25.546 36.1395 25.6484 35.0003 24.7908 34.1683C24.1316 33.5347 23.0436 33.1059 21.7892 32.8755C21.13 32.7603 20.426 32.7027 19.722 32.7027C19.018 32.7027 18.3012 32.7603 17.642 32.8755C16.4068 33.1059 15.3188 33.5347 14.6596 34.1683C13.7828 35.0003 13.898 36.1331 14.9924 37.5283C15.0948 37.6435 15.1908 37.7715 15.2932 37.8867C15.5492 38.1747 15.5236 38.6355 15.2228 38.8915C15.082 39.0067 14.922 39.0771 14.7492 39.0771C14.5508 39.0771 14.346 38.9939 14.2052 38.8211C13.6612 38.1875 13.29 37.5987 13.0404 37.0739C12.106 35.0195 13.098 33.6883 13.674 33.1443C13.962 32.8691 14.2884 32.6451 14.666 32.4403C16.0036 31.6915 17.866 31.3203 19.7284 31.3203C21.5908 31.3203 23.4596 31.6915 24.7908 32.4403C25.162 32.6387 25.5076 32.8691 25.7828 33.1443C26.3588 33.6883 27.3636 35.0259 26.3972 37.0739Z" fill="#FC986C"/>
<path d="M22.7954 37.775C22.7826 37.6726 22.7698 37.5766 22.7378 37.487C22.3794 36.1558 20.7026 34.7734 19.781 34.7734H19.5506C18.6738 34.7734 17.0674 36.0534 16.6386 37.3398C16.5938 37.4806 16.5554 37.6278 16.5362 37.7686C16.5234 37.839 16.5234 37.9094 16.5234 37.967C16.5234 38.383 16.5682 38.8438 16.6834 39.2854V39.2982C16.9842 40.3478 17.7458 41.3078 19.5506 41.391H19.781C21.7202 41.3078 22.4498 40.2262 22.693 39.0934C22.7762 38.703 22.8082 38.319 22.8082 37.9606C22.8082 37.8902 22.8082 37.8326 22.7954 37.7622V37.775ZM19.6978 39.9702C18.6098 39.9574 17.9634 39.6118 17.9634 37.9734C17.9634 37.9478 17.9634 37.9158 17.9762 37.8902C18.0594 37.3142 19.109 36.3094 19.557 36.2134H19.7426C20.2738 36.3414 21.2914 37.3462 21.3618 37.9094C21.3746 37.935 21.3746 37.967 21.3746 37.9798C21.3746 39.6182 20.741 39.9574 19.6978 39.9766V39.9702Z" fill="#FC986C"/>
<path d="M19.1679 6.35874C18.9119 8.12514 19.7247 8.82274 20.9343 9.63554C23.1487 10.5955 21.6511 14.0835 19.4623 12.5091C18.3551 11.7539 17.2799 10.4931 16.7423 9.02754C14.0607 2.33314 22.1503 -3.12606 27.1167 2.05794C29.3759 4.59234 27.9999 7.40834 24.8703 4.62434C23.1743 3.04994 19.9679 3.63874 19.2639 6.01314L19.1743 6.36514L19.1679 6.35874Z" fill="#FC986C"/>
</svg>
