<svg width="198" height="198" viewBox="0 0 198 198" fill="none" xmlns="http://www.w3.org/2000/svg">
<g clip-path="url(#clip0_357_5449)">
<path d="M81.2758 122.243C81.2758 122.243 57.001 132.777 55.1596 134.46C53.3182 136.143 75.0388 138.697 75.0388 138.697L105.709 123.53L106.085 115.273C106.085 115.273 85.8892 119.57 81.2758 122.243Z" fill="#7C5646"/>
<path d="M80.1071 91.0589C80.1665 91.3955 80.3249 91.7519 80.2853 92.0885C79.4933 97.3949 78.9983 102.701 79.1369 108.067C79.1369 108.582 78.8399 109.116 78.6815 109.631C73.6919 112.146 68.7419 114.72 63.7127 117.135C62.2673 117.828 61.6139 118.719 61.5545 120.244C61.4951 121.65 61.4753 123.056 61.2773 124.442C61.2179 124.917 60.6437 125.313 60.3071 125.748C59.9111 125.392 59.2973 125.115 59.1785 124.679C58.8221 123.412 58.6637 122.085 58.4459 120.798C58.3865 120.383 58.3667 119.947 58.3271 119.531C58.1885 119.432 58.0499 119.353 57.9113 119.254C57.5945 119.69 57.3173 120.185 56.9411 120.541C55.8917 121.531 54.8423 122.541 53.6741 123.372C53.2187 123.709 52.4267 123.59 51.8129 123.689C51.7931 122.976 51.4763 122.085 51.7931 121.59C52.5257 120.422 53.5553 119.432 54.5057 118.403C54.8819 118.007 55.3571 117.69 55.9511 117.195C54.7829 116.621 53.7533 116.165 52.7435 115.631C52.1099 115.294 51.4565 114.938 50.9417 114.443C50.6249 114.126 50.5457 113.571 50.3477 113.116C50.8031 112.938 51.2585 112.562 51.6941 112.581C53.3771 112.68 55.0601 112.839 56.7233 113.136C59.5745 113.611 61.9703 112.898 64.1285 110.918C68.0885 107.275 71.3753 103.077 74.5433 98.7809C76.4243 96.2267 78.2459 93.6131 80.0873 91.0391L80.1071 91.0589Z" fill="#C28C70"/>
<path d="M106.522 186.337C106.443 187.941 106.344 189.545 106.284 191.129C106.205 192.964 105.281 193.98 103.512 194.178C103.037 194.237 102.562 194.317 102.067 194.317C93.8894 194.317 85.6922 194.317 77.5148 194.277C74.624 194.257 74.624 194.158 75.7328 191.485C77.8712 188.456 81.0392 187.05 84.4646 186.179C86.7812 185.585 89.177 185.327 91.5332 184.912C94.0478 184.753 96.5624 184.615 99.077 184.456C99.077 184.159 99.1958 183.823 99.077 183.585C98.7998 182.971 98.4236 182.397 98.087 181.803C97.691 181.15 97.295 180.516 96.8792 179.863C94.82 176.516 92.7014 173.21 90.7016 169.824C87.6722 164.716 84.6824 159.587 81.6926 154.459C77.9306 147.985 76.2674 141.114 77.8118 133.669C78.1484 132.065 78.8018 130.541 79.3166 128.977C79.5938 129.412 79.9502 129.808 80.1086 130.264C83.4944 139.867 89.177 147.747 97.5128 153.647C99.6908 155.192 102.067 156.499 104.344 157.904C104.997 158.32 105.651 158.736 106.304 159.152C106.403 162.082 106.542 164.993 106.561 167.923C106.561 174.061 106.522 180.179 106.502 186.317L106.522 186.337Z" fill="#AD7963"/>
<path d="M89.3156 38.2329C90.2264 37.8963 90.9986 37.2231 91.4936 36.3519C93.038 33.5799 96.503 27.6597 96.8198 26.8677C99.8294 19.1655 99.0176 12.0573 95.3744 5.48374C93.7508 2.55334 92.8796 2.55334 90.4442 5.20654C81.851 14.5917 78.5642 25.0857 81.6134 36.8667C81.6728 37.0845 83.5538 37.9755 84.8408 38.6685C85.6922 39.1239 86.7416 39.2031 87.7118 38.8269L89.3354 38.2329H89.3156Z" fill="#8E6451"/>
<path d="M133.45 164.199C131.331 161.169 129.212 158.16 127.094 155.13C124.48 151.428 121.946 147.666 119.253 144.023C116.362 140.122 116.006 136.004 117.649 131.529C119.372 126.856 120.976 122.163 122.639 117.471C122.817 116.956 122.896 116.382 123.015 115.847C122.579 116.065 122.381 116.362 122.243 116.679C120.203 121.609 118.164 126.539 116.184 131.489C114.422 135.885 114.699 140.142 117.471 144.082C119.906 147.527 122.401 150.913 124.896 154.299C125.371 154.972 125.926 155.586 126.46 156.219C126.619 156.457 126.777 156.695 126.935 156.952C127.034 157.011 127.173 157.051 127.232 157.15C128.698 159.051 130.143 160.991 131.628 162.872C132.321 163.743 133.113 164.555 133.846 165.407C133.846 164.892 133.687 164.535 133.469 164.219L133.45 164.199ZM89.4144 39.0628C88.3254 39.0628 87.2364 39.6766 87.0186 40.3894C88.7082 39.9538 90.147 40.0594 91.335 40.7062C90.8994 39.538 90.3054 39.043 89.4144 39.043V39.0628ZM88.2264 42.8248C87.8106 42.8644 87.2958 43.8148 87.1968 44.4088C87.078 45.1216 87.2958 46.1116 88.266 46.0324C88.7412 45.9928 89.1174 45.1414 89.553 44.6662C89.2164 43.696 89.1966 42.7258 88.2264 42.8248ZM71.6934 61.2784C73.9704 61.1398 75.99 59.4568 75.9108 57.9916C74.5644 59.041 73.1586 60.13 71.6934 61.2784Z" fill="#8F8F8F"/>
<path d="M71.6934 61.2817C73.1586 60.1333 74.5644 59.0443 75.9108 57.9949C75.99 59.4601 73.9704 61.1431 71.6934 61.2817ZM88.2858 46.0159C87.3156 46.0951 87.0978 45.1051 87.2166 44.3923C87.3156 43.7983 87.8304 42.8479 88.2462 42.8083C89.2164 42.7093 89.256 43.6795 89.5728 44.6497C89.1372 45.1249 88.761 45.9763 88.2858 46.0159ZM86.9988 40.4125C87.2166 39.6799 88.3254 39.0859 89.3946 39.0859C90.2658 39.0859 90.8796 39.5611 91.3152 40.7491C90.1272 40.1023 88.6884 39.9967 86.9988 40.4323V40.4125ZM131.628 162.856C130.143 160.975 128.698 159.034 127.232 157.134C127.173 157.035 127.034 156.995 126.935 156.936C126.777 156.698 126.619 156.46 126.46 156.203C125.945 155.569 125.391 154.956 124.896 154.282C122.421 150.877 119.906 147.511 117.471 144.066C114.699 140.125 114.422 135.868 116.184 131.473C118.164 126.523 120.223 121.593 122.243 116.662C122.381 116.346 122.579 116.049 123.015 115.831C122.896 116.365 122.817 116.94 122.639 117.454C120.995 122.147 119.372 126.859 117.649 131.512C115.986 135.987 116.362 140.106 119.253 144.006C121.946 147.649 124.48 151.411 127.094 155.114C129.212 158.143 131.331 161.153 133.45 164.182C133.667 164.499 133.846 164.856 133.826 165.37C133.073 164.519 132.301 163.727 131.608 162.836L131.628 162.856Z" fill="#C28C70"/>
<path d="M131.292 167.309C121.768 168.16 115.768 166.359 107.908 163.923C107.611 163.824 107.274 163.884 106.938 163.884C106.898 163.884 106.839 163.884 106.799 163.844C106.245 163.488 105.69 163.131 105.136 162.775C105.017 162.696 104.977 162.517 105.076 162.418C105.294 162.181 105.532 161.943 105.532 161.706C105.532 160.339 105.492 158.973 105.255 157.627C104.383 152.697 103.413 147.786 102.502 142.876C102.106 141.411 101.71 139.965 101.295 138.52C100.008 133.966 98.7403 129.392 97.4533 124.838C97.4533 124.798 97.4533 124.759 97.4533 124.699L94.9585 115.096C94.8793 114.76 94.8001 114.403 94.7605 114.067C94.2853 109.968 93.4735 105.889 93.3943 101.771C93.2755 95.1578 93.6913 88.5446 93.7903 81.9314C93.8299 78.902 93.2359 75.9518 92.2063 73.0808C91.5727 71.279 91.0183 69.4574 90.4441 67.6358V67.5764L89.7313 66.4082C89.0779 64.943 88.4443 63.5174 87.7909 62.072C87.7909 62.0324 87.7711 61.9928 87.7909 61.9334C87.8107 61.7354 87.8503 61.5374 87.8899 61.2602C87.9097 61.082 87.7315 60.9236 87.5533 61.0028C87.1573 61.1612 86.8405 61.28 86.5237 61.4186C83.1973 62.9036 79.8709 64.4282 76.5247 65.8736C75.5347 66.3092 74.4853 66.6062 73.4359 66.8636C71.4757 67.3388 70.4263 66.9824 69.2581 65.3984C69.1789 65.2994 69.0601 65.2796 68.9611 65.3192C63.7537 67.913 58.6651 67.1408 53.6557 64.6064C53.4973 64.5272 53.4775 64.3094 53.6161 64.2104C55.3585 62.765 57.1405 61.3592 58.8235 59.8346C59.6749 59.0624 60.5065 57.9932 59.8135 56.7656C59.1601 55.5974 57.8929 55.8152 56.7841 55.9538C55.9723 56.0528 55.1803 56.1914 54.3883 56.3498C54.1507 56.3894 54.0121 56.1122 54.1705 55.934C56.2495 53.9144 58.2493 51.776 60.5065 49.9742C64.0903 47.0834 67.8919 44.4896 71.5945 41.7572H71.6341C74.7625 40.0346 77.9107 38.3516 81.0391 36.6488H81.0787L82.7815 36.1142C83.1973 35.9756 83.6725 35.837 84.0883 35.6984C84.3457 35.6192 84.8209 35.5004 84.8803 35.4806C85.1971 35.3816 85.5337 35.2232 85.8703 35.1836C85.9693 35.1836 86.0485 35.1836 86.1475 35.1836C88.0681 35.2232 89.9887 35.243 91.8895 35.2826C92.8003 35.7578 93.6913 36.2132 94.6021 36.6686C95.0575 36.9062 95.5129 37.124 95.9683 37.3616C96.3643 37.5596 96.7999 37.718 97.0573 38.0942C97.3345 38.51 97.5721 38.9654 97.8295 39.401C98.1067 39.896 98.3641 40.391 98.5225 40.9454C99.6907 45.1232 100.819 49.301 101.79 53.5184C102.978 58.706 104.106 63.953 107.235 68.3684C109.611 71.6948 112.343 74.7836 114.917 77.9714C115.63 78.8426 116.343 79.7138 117.055 80.585C117.689 81.3374 118.303 82.07 118.936 82.8224C125.53 90.485 131.252 98.7218 135.271 108.008C137.291 112.681 138.736 117.591 140.578 122.343C141.152 123.828 142.023 125.214 142.934 126.521C149.349 135.688 158.2 140.401 169.347 140.737C171.783 140.817 174.258 140.678 176.673 140.46C182.633 139.926 186.989 136.857 190.117 131.808C192.157 128.501 194.315 125.234 196.711 122.185C199.78 118.284 204.017 115.69 208.135 113.017C210.789 111.295 213.402 109.453 216.253 108.087C218.827 106.86 221.698 106.206 224.431 105.315C224.649 105.236 224.926 105.236 225.144 105.295C225.54 105.414 225.936 105.573 226.332 105.731C226.45 105.771 226.53 105.909 226.47 106.048C226.312 106.444 226.213 106.879 225.936 107.157C223.164 109.968 220.312 112.681 217.6 115.512C215.739 117.453 213.976 119.492 212.274 121.571C209.482 124.996 207.68 128.857 206.967 133.273C206.155 138.163 204.73 142.896 202.255 147.252C198.81 153.33 193.721 157.567 187.227 160.042C177.921 163.587 168.357 164.557 158.596 162.22C154.537 161.25 150.775 159.567 147.211 157.389C146.835 157.152 146.458 156.934 146.082 156.716C146.023 156.696 145.963 156.676 145.864 156.657C145.706 156.657 145.587 156.756 145.587 156.914C145.587 156.914 145.587 156.914 145.587 156.934C145.686 158.775 144.973 160.537 143.627 161.785C141.35 163.903 137.232 166.774 131.331 167.309H131.292Z" fill="#C28C70"/>
<path d="M59.0612 59.856C57.299 61.4598 55.418 62.9448 53.5766 64.4694C51.1808 63.4002 50.4878 61.8558 51.359 59.4006C51.557 59.0838 51.7748 58.7868 51.9728 58.47C52.5866 57.8166 53.2202 57.1632 53.834 56.5296C54.9032 56.3514 55.9526 56.1138 57.0218 55.995C58.1306 55.8564 59.3978 55.6386 60.0512 56.8068C60.7244 58.0344 59.8928 59.1036 59.0612 59.8758V59.856Z" fill="#202020"/>
<path d="M94.9581 112.481C94.9581 112.481 94.9581 112.442 94.9581 112.422C94.4829 108.343 93.671 104.264 93.6116 100.166C93.4928 93.5527 94.4432 92.8597 94.5422 86.2465C94.5819 83.2171 94.5422 76.1881 92.978 70.4065C91.7504 65.9515 89.4536 62.4271 88.4438 61.0411C88.2062 60.7243 87.7112 60.7639 87.5726 61.1401C84.1472 70.0303 81.8504 74.3863 78.3062 88.6027C74.762 102.819 75.2966 121.312 79.316 132.103C83.3354 142.894 89.9685 150.874 98.2845 156.774C100.363 158.239 102.581 159.487 104.759 160.793C104.957 160.912 105.234 160.873 105.393 160.695C105.571 160.497 105.749 160.279 105.749 160.081C105.749 158.714 105.709 157.348 105.472 156.002C104.601 151.072 103.63 146.161 102.72 141.251C102.72 141.251 102.72 141.231 102.72 141.211C102.324 139.766 101.928 138.32 101.532 136.875C100.245 132.301 98.9576 127.708 97.6706 123.134L95.0174 112.462L94.9581 112.481Z" fill="#F9F0E4"/>
<path d="M83.1776 46.5897C82.841 46.8273 82.8608 47.8965 83.0588 48.4707C83.2964 49.1439 83.9894 49.9161 84.7814 49.3617C85.1774 49.1043 85.514 48.3717 85.2368 47.5401C84.9596 46.7085 83.9696 46.0155 83.1776 46.5897Z" fill="black"/>
<path d="M68.8027 65.3805C71.0797 65.2419 73.0993 63.559 73.0201 62.0938C71.6737 63.1431 70.2679 64.2321 68.8027 65.3805Z" fill="black"/>
<path d="M84.8406 43.2614C83.4942 43.2614 82.1874 43.8686 80.9202 45.083C80.7618 44.3504 81.4152 43.2812 82.3656 42.7466C83.1378 42.311 83.8902 42.4496 84.8406 43.2614Z" fill="#707070"/>
<path d="M81.3759 189.367C79.8711 190.694 78.5841 191.803 77.2773 192.951C77.3763 191.486 79.3167 189.724 81.3759 189.367Z" fill="#1B1B1B"/>
<path d="M82.9596 190.853C81.93 191.487 80.9004 192.12 79.752 192.833C80.0292 191.487 81.336 190.655 82.9596 190.853Z" fill="#1E1E1E"/>
<path d="M135.311 183.445C135.469 185.049 135.588 186.633 135.766 188.237C135.951 190.058 135.179 191.193 133.45 191.642C132.975 191.761 132.519 191.9 132.044 191.979C123.946 193.127 115.828 194.295 107.73 195.384C104.859 195.761 104.839 195.662 105.571 192.87C107.254 189.563 110.205 187.742 113.472 186.395C115.669 185.484 118.006 184.871 120.283 184.138C122.758 183.623 125.213 183.128 127.688 182.633C127.668 182.336 127.728 182 127.589 181.762C127.233 181.188 126.777 180.673 126.361 180.138C125.866 179.564 125.391 178.97 124.896 178.396C122.382 175.386 119.827 172.397 117.352 169.347C113.63 164.734 109.947 160.061 106.264 155.408C101.631 149.528 99.0176 142.954 99.4928 135.371C99.5918 133.747 100.047 132.143 100.324 130.52C100.661 130.916 101.077 131.252 101.295 131.688C105.987 140.717 112.739 147.726 121.827 152.379C124.203 153.606 126.738 154.557 129.193 155.626C129.906 155.943 130.599 156.26 131.311 156.596C131.806 159.487 132.381 162.358 132.796 165.249C133.687 171.308 134.479 177.406 135.331 183.465L135.311 183.445Z" fill="#C28C70"/>
<path d="M110.859 190C109.552 191.525 108.443 192.812 107.315 194.118C107.216 192.653 108.879 190.634 110.859 190Z" fill="#1B1B1B"/>
<path d="M112.621 191.227C111.691 191.999 110.76 192.771 109.73 193.622C109.81 192.256 110.978 191.246 112.621 191.227Z" fill="#1E1E1E"/>
<path d="M98.0668 40.5515C99.0172 40.7099 100.027 40.4921 100.878 39.9773C103.591 38.3141 109.511 34.8491 110.165 34.3145C116.56 29.0675 119.352 22.4741 119.372 14.9699C119.372 11.6237 118.619 11.1881 115.214 12.3167C103.136 16.2965 95.1166 23.8205 92.008 35.6015C91.9486 35.8193 93.1564 37.5221 93.9286 38.7497C94.4434 39.5813 95.3146 40.1357 96.3442 40.2941L98.047 40.5713L98.0668 40.5515Z" fill="#C28C70"/>
<path d="M99.1943 37.3609C99.6893 37.3213 100.085 37.0837 100.521 36.7669C101.907 35.7571 104.917 33.5989 105.253 33.3019C108.52 30.3121 109.926 27.1243 109.926 23.7979C109.926 22.3129 109.55 22.2139 107.788 23.0653C101.63 26.0749 95.3729 29.8171 95.9669 35.7571C96.0263 36.3907 96.3431 36.6679 96.7391 37.1233C96.9965 37.4401 97.7688 37.4599 98.2836 37.4203L99.1745 37.3609H99.1943Z" fill="#FFFFFD"/>
<path d="M132.063 161.785C131.707 160.934 130.737 159.568 130.123 158.657C126.935 154.143 123.787 149.589 120.599 145.054C118.164 141.589 115.392 138.025 115.115 133.749C114.897 130.996 115.649 128.284 116.52 125.69C117.669 122.364 118.877 119.097 120.005 115.79C120.381 114.681 120.896 112.959 120.797 112.563C120.401 112.266 118.837 116.265 118.441 117.176C117.194 120.225 115.887 123.255 114.758 126.343C113.55 129.61 112.818 133.234 113.867 136.639C115.233 141.075 118.599 144.837 121.253 148.638C124.539 152.994 127.806 157.37 131.351 161.488C131.964 162.122 132.242 162.261 132.083 161.825L132.063 161.785Z" fill="#737373"/>
<path d="M72.0298 121.195C72.1684 121.195 72.307 121.234 72.406 121.195C74.2672 120.521 76.1482 119.947 78.0886 119.611C78.2866 119.571 78.445 119.432 78.6232 119.333C79.1578 117.353 79.732 115.373 80.227 113.374C80.3656 112.799 80.6428 112.502 81.1972 112.364C81.6922 112.245 82.207 112.126 82.702 111.948C82.8604 111.889 82.9792 111.651 83.098 111.493C82.9396 111.374 82.801 111.176 82.6228 111.156C82.1476 111.116 81.6526 111.156 81.1576 111.176C80.9992 111.176 80.8408 111.215 80.6824 111.235C80.6428 111.196 80.6032 111.156 80.5636 111.116C80.7022 110.978 80.8606 110.839 80.9596 110.661C81.2368 110.206 81.5338 109.75 81.7318 109.275C81.811 109.077 81.7318 108.82 81.712 108.582C81.4546 108.622 81.118 108.582 80.9596 108.721C80.5834 109.077 80.3062 109.513 80.0092 109.928C79.8904 110.087 79.8112 110.285 79.6726 110.542C79.3756 110.166 79.138 109.829 78.8806 109.493C78.7222 109.295 78.544 109.077 78.3262 108.919C78.1876 108.82 77.9698 108.839 77.7916 108.8C77.752 108.978 77.653 109.176 77.6926 109.334C77.851 109.928 78.0292 110.522 78.2668 111.116C78.643 112.106 78.5638 113.037 78.0094 113.968C76.9798 115.67 75.7126 117.155 74.386 118.621C73.6138 119.492 72.802 120.343 71.9902 121.195H72.0298Z" fill="#D3A272"/>
<path d="M92.0681 150.045C92.4641 150.481 92.8799 150.896 93.2759 151.332C93.7379 151.834 94.2395 151.9 94.7807 151.53C94.9193 151.431 95.0777 151.332 95.2163 151.233C97.5131 149.273 99.8297 147.332 102.107 145.352C102.918 144.659 102.899 144.62 101.948 144.145C100.622 143.808 99.3941 144.164 98.2259 144.739C97.4339 145.135 96.7013 145.63 95.9291 146.065C95.1767 146.62 94.4441 147.174 93.7115 147.748C93.6323 147.669 93.5333 147.61 93.4937 147.511C93.4145 147.273 93.3947 147.016 93.3353 146.778C93.2957 146.501 93.2561 146.224 93.2165 145.946C92.9987 144.521 92.8007 143.075 92.5631 141.65C92.2067 139.492 91.8107 137.333 91.4345 135.175C90.9395 132.463 89.7713 130.126 87.5537 128.404C87.0785 128.027 86.5241 127.77 86.0093 127.453C86.0291 127.631 86.0093 127.829 86.0885 128.008C87.4349 131.512 87.7121 135.096 86.7815 138.739C86.5439 139.69 86.1875 140.62 85.8707 141.571C85.7915 141.848 85.7123 142.125 85.6133 142.382C86.2865 143.234 86.9399 144.085 87.6329 144.897C89.0981 146.62 90.5633 148.342 92.0483 150.045H92.0681Z" fill="#D3A272"/>
<path d="M61.5348 104.306C61.1982 104.425 60.822 104.425 60.4656 104.306C59.3766 103.89 56.9808 103.058 56.7036 102.9C54.0108 101.455 52.5456 99.2569 52.011 96.5443C51.7734 95.3365 52.011 95.1187 53.3376 95.2969C57.9906 95.8909 61.416 98.0491 63.3762 102.088C63.4158 102.167 63.099 102.86 62.901 103.355C62.7624 103.692 62.4852 103.949 62.1288 104.088L61.5348 104.306Z" fill="#AA895E"/>
<path d="M79.2761 146.797C79.2761 146.797 79.3157 146.698 79.3157 146.678C79.3157 146.56 79.2761 146.461 79.2761 146.342C79.2761 146.025 79.2761 145.728 79.2365 145.451C79.1177 144.045 79.0583 142.679 78.8999 141.273C78.8999 141.115 78.8999 140.936 78.8603 140.778C78.8207 140.323 78.7415 139.927 78.5831 139.55C78.5831 139.511 78.5831 139.491 78.5435 139.451C78.3059 138.798 77.9297 138.224 77.3753 137.788C77.3753 137.749 77.3357 137.729 77.3159 137.689C76.9991 137.372 76.6427 137.135 76.2071 136.917C74.4845 135.986 72.7421 135.115 70.9799 134.224C70.8611 134.165 70.7423 134.125 70.5443 134.165C70.7225 134.284 70.8809 134.442 71.0393 134.541C72.6431 135.472 74.2073 136.422 75.7913 137.313C76.8407 137.887 77.6129 138.659 77.9693 139.669V139.709C78.1871 140.164 78.3059 140.659 78.3455 141.214C78.4049 141.887 78.4643 142.54 78.5237 143.213C78.6227 144.203 78.7019 145.213 78.8009 146.183C78.8999 147.233 78.9791 148.243 79.0781 149.252C79.1177 149.589 79.1375 149.926 79.1771 150.262C79.1771 150.381 79.2167 150.539 79.3553 150.698C79.3553 150.262 79.3949 149.866 79.3553 149.431C79.3157 148.54 79.2563 147.688 79.2365 146.797H79.2761ZM61.7135 104.564C61.4759 104.782 61.3967 105.059 61.5551 105.494C61.7399 105.019 62.1161 104.65 62.6837 104.386C62.4461 104.227 62.0105 104.326 61.6937 104.564H61.7135ZM63.5747 105.554C63.4559 105.435 63.1985 105.316 63.0203 105.316H62.9807C62.9807 105.316 62.9411 105.316 62.9213 105.356C62.7629 105.455 62.7431 105.574 62.8025 105.732C62.8025 105.791 62.8025 105.831 62.8421 105.89C62.9015 105.989 62.9411 106.108 63.0005 106.207C63.2183 106.267 63.5549 106.385 63.6737 106.306C63.9905 106.088 63.7925 105.752 63.5747 105.593V105.554ZM69.9899 106.663C70.3265 107.098 71.3165 107.098 71.9897 106.564C71.2769 106.603 70.6433 106.623 69.9899 106.663Z" fill="#8F8F8F"/>
<path d="M69.9899 106.663C70.3265 107.098 71.3165 107.098 71.9897 106.564C71.2769 106.603 70.6433 106.623 69.9899 106.663ZM63.5747 105.554C63.4559 105.435 63.1985 105.316 63.0203 105.316H62.9807C62.9807 105.316 62.9411 105.316 62.9213 105.356C62.7629 105.455 62.7431 105.574 62.8025 105.732C62.8025 105.791 62.8025 105.831 62.8421 105.89C62.9015 105.989 62.9411 106.108 63.0005 106.207C63.2183 106.267 63.5549 106.385 63.6737 106.306C63.9905 106.088 63.7925 105.752 63.5747 105.593V105.554ZM61.7135 104.564C61.4759 104.782 61.3967 105.059 61.5551 105.494C61.7399 105.019 62.1161 104.65 62.6837 104.386C62.4461 104.227 62.0105 104.326 61.6937 104.564H61.7135ZM79.2761 146.797C79.2761 146.797 79.3157 146.698 79.3157 146.678C79.3157 146.56 79.2761 146.461 79.2761 146.342C79.2761 146.025 79.2761 145.728 79.2365 145.451C79.1177 144.045 79.0583 142.679 78.8999 141.273C78.8999 141.115 78.8999 140.936 78.8603 140.778C78.8207 140.323 78.7415 139.927 78.5831 139.55C78.5831 139.511 78.5831 139.491 78.5435 139.451C78.3059 138.798 77.9297 138.224 77.3753 137.788C77.3753 137.749 77.3357 137.729 77.3159 137.689C76.9991 137.372 76.6427 137.135 76.2071 136.917C74.4845 135.986 72.7421 135.115 70.9799 134.224C70.8611 134.165 70.7423 134.125 70.5443 134.165C70.7225 134.284 70.8809 134.442 71.0393 134.541C72.6431 135.472 74.2073 136.422 75.7913 137.313C76.8407 137.887 77.6129 138.659 77.9693 139.669V139.709C78.1871 140.164 78.3059 140.659 78.3455 141.214C78.4049 141.887 78.4643 142.54 78.5237 143.213C78.6227 144.203 78.7019 145.213 78.8009 146.183C78.8999 147.233 78.9791 148.243 79.0781 149.252C79.1177 149.589 79.1375 149.926 79.1771 150.262C79.1771 150.381 79.2167 150.539 79.3553 150.698C79.3553 150.262 79.3949 149.866 79.3553 149.431C79.3157 148.54 79.2563 147.688 79.2365 146.797H79.2761Z" fill="#D3A272"/>
<path d="M78.1082 151.726C78.9002 151.548 79.7318 151.172 80.5634 150.598C81.5534 149.885 82.3454 149.212 83.0186 148.538C84.3452 147.192 85.2362 145.766 86.3252 144.083C86.3846 143.965 86.4836 143.905 86.5628 143.846C86.5628 143.846 86.576 143.826 86.6024 143.786C86.6024 143.786 86.642 143.687 86.642 143.668V143.628C86.7014 143.45 86.7608 143.252 86.8202 143.113C86.8598 143.054 86.8202 142.994 86.7608 142.994C86.642 142.955 86.5232 142.955 86.444 142.895L86.1668 142.519C86.0084 142.341 85.85 142.143 85.7312 141.945L85.553 141.668C84.6224 140.104 83.7116 138.48 82.781 136.876C82.5632 136.361 82.3256 135.866 82.0682 135.371C81.3554 133.768 80.6228 132.184 79.8902 130.58L79.8506 130.54L78.92 128.659L78.2468 127.253C78.1874 127.135 78.128 127.016 78.0686 126.917C77.9102 126.679 77.7518 126.461 77.6132 126.204C77.5736 126.164 77.5538 126.105 77.5142 126.085C77.5142 126.085 77.501 126.065 77.4746 126.026C76.9598 125.194 76.4648 124.363 75.8708 123.59L75.8114 123.531C75.8114 123.531 75.7718 123.472 75.752 123.432C75.653 123.333 75.5936 123.214 75.5144 123.115C74.861 122.323 74.168 121.511 73.4948 120.759C73.3166 120.541 73.0988 120.323 72.9404 120.145C72.1682 119.314 71.396 118.482 70.6634 117.631C69.9308 116.799 69.3962 115.829 69.0002 114.779C68.7626 114.126 68.4458 113.492 68.1686 112.839V112.799L68.0696 112.304V112.265L67.6142 110.602L67.5746 110.562L67.3964 110.384C67.3964 110.384 67.337 110.324 67.3964 110.285L67.3568 110.245C67.3568 110.245 67.3964 110.245 67.4162 110.206C67.535 110.166 67.6538 110.107 67.7924 110.087C69.0794 109.711 70.406 109.354 71.693 108.958C72.0692 108.839 72.4256 108.681 72.8018 108.503C73.4552 108.186 73.6532 107.83 73.5938 107.097C73.5938 107.057 73.6334 107.038 73.6532 107.038L73.6928 106.998H73.7324C75.752 106.483 77.0192 105.058 77.8112 103.157C77.8508 103.117 77.8112 103.058 77.7716 103.097C77.7716 103.097 77.7518 103.078 77.7122 103.038C76.8806 103.038 76.049 103.078 75.2174 103.038C74.7818 103.038 74.2868 102.919 74.2076 102.424C74.1482 102.147 74.267 101.969 74.4254 101.771C74.5244 101.672 74.663 101.593 74.8016 101.533C75.0392 101.355 75.356 101.197 75.6332 101.018C75.7322 100.959 75.6926 100.84 75.5936 100.84C74.5244 100.781 73.475 100.662 72.4058 100.682C70.7228 100.721 69.02 100.9 67.3172 101.018L63.4562 101.85L63.278 101.909L62.8424 102.088C62.684 102.147 62.5256 102.246 62.387 102.305C62.288 102.345 62.1494 102.404 62.1098 102.424C61.991 102.464 61.8722 102.523 61.7732 102.583C61.7336 102.583 61.7138 102.622 61.6742 102.642C61.1594 103.097 60.605 103.573 60.0704 104.028C60.0704 104.068 60.0308 104.087 60.0308 104.127C59.8724 104.464 59.7932 104.78 59.6348 105.077C59.5754 105.256 59.4764 105.454 59.417 105.592C59.3576 105.731 59.2586 105.909 59.2982 106.048C59.2982 106.226 59.3576 106.424 59.3972 106.602C59.4368 106.76 59.4566 106.919 59.516 107.057C59.516 107.117 59.516 107.156 59.5556 107.216C60.2288 108.661 60.902 110.107 61.6346 111.512C62.5652 113.255 63.476 115.017 63.6542 116.977C63.773 118.482 63.7532 120.026 63.773 121.531C63.8126 121.927 63.8126 122.363 63.8126 122.759V123.868C63.773 127.115 64.0502 130.382 64.8818 133.55L65.258 134.837C65.7728 136.639 66.545 138.361 67.1984 140.143C67.3766 140.698 67.4756 141.272 67.5152 141.866C67.6142 142.876 67.6142 143.826 67.4756 144.757C70.4852 146.875 73.7918 149.053 77.2172 151.172L78.0686 151.687L78.1082 151.726Z" fill="#D3A272"/>
<path d="M75.1985 103.158C76.0697 103.198 76.9607 103.158 77.8517 103.158C78.2675 102.287 78.0893 101.693 77.2577 101.198C77.1191 101.159 77.0003 101.119 76.8617 101.079C76.5251 101.04 76.2083 101.02 75.8717 100.98C75.5351 101.178 75.1787 101.376 74.8421 101.594C74.5055 101.812 74.0897 102.069 74.1887 102.545C74.2877 103.059 74.7827 103.158 75.1985 103.178V103.158Z" fill="#202020"/>
<path d="M77.6732 126.522C76.8416 125.255 76.0892 123.928 75.119 122.76C73.5746 120.879 73.139 120.899 71.5352 119.077C70.8026 118.246 69.1196 116.246 68.189 114.246C67.4762 112.702 67.2782 111.157 67.2188 110.543C67.2188 110.405 67.3574 110.286 67.4762 110.365C70.565 112.048 72.248 112.721 76.6436 115.87C81.0392 119.018 85.2962 124.344 86.7416 128.344C88.187 132.343 88.2266 136.165 87.296 139.808C87.0584 140.719 86.7416 141.59 86.4446 142.481C86.4248 142.56 86.3258 142.619 86.2466 142.6C86.1476 142.6 86.0486 142.58 85.9892 142.52C85.6724 142.124 85.3358 141.748 85.0982 141.313C84.1676 139.729 83.2568 138.105 82.346 136.501C82.1084 136.006 81.8906 135.491 81.653 134.996C80.9204 133.393 80.1878 131.809 79.4552 130.205L77.6534 126.562L77.6732 126.522Z" fill="#F9EAD9"/>
<path d="M74.9196 128.74L71.0586 125.473L73.9692 124.384L76.3848 123.295L77.7114 122.543L79.0578 121.632L79.5726 120.939L79.8894 119.929L80.1468 117.85L80.3844 117.395L80.523 117.355L80.8002 117.553L81.0774 118.187L81.3942 119.533L81.5328 119.573L82.1466 119.157L83.2554 118.623L83.79 118.524L84.087 118.682L84.0672 119.058L83.8296 119.415L82.8792 120.127L81.9486 120.603L82.5228 120.84L83.79 121.454L84.0276 121.81L83.8692 122.147L83.3346 122.206L81.5526 121.87L81.0576 122.008L80.5626 122.622L79.4142 123.988L76.3848 127.434L74.9196 128.74Z" fill="#D3A272"/>
<path d="M74.9592 128.858C74.9592 128.858 74.9988 128.858 75.0186 128.838C76.563 127.531 77.8896 126.006 79.1964 124.462C79.6122 123.967 80.0082 123.452 80.4042 122.937C80.523 122.799 80.6616 122.7 80.7408 122.541C81.018 122.027 81.414 121.888 81.9684 122.007C82.4238 122.106 82.899 122.205 83.3544 122.284C83.5524 122.304 83.7702 122.304 83.9484 122.225C84.2652 122.086 84.3444 121.749 84.0672 121.551C83.6712 121.274 83.196 121.076 82.7604 120.858C82.6416 120.799 82.4832 120.759 82.305 120.7C82.2258 120.68 82.2258 120.581 82.305 120.542C82.701 120.324 83.0376 120.146 83.3742 119.967C83.5722 119.789 83.79 119.631 83.9484 119.433C84.087 119.235 84.2454 118.958 84.2058 118.74C84.1266 118.423 83.7702 118.383 83.493 118.482C82.9584 118.7 82.4436 118.958 81.9288 119.195C81.8298 119.235 81.7506 119.314 81.6318 119.393C81.5724 119.433 81.513 119.393 81.4932 119.334C81.4338 119.037 81.3744 118.779 81.2952 118.542C81.1962 118.225 81.117 117.869 80.9586 117.591C80.8794 117.453 80.7012 117.354 80.5428 117.255C80.5032 117.235 80.4636 117.255 80.424 117.255C80.3052 117.393 80.1468 117.532 80.1072 117.69C79.9884 118.284 79.929 118.898 79.8498 119.492C79.8498 119.631 79.7904 119.75 79.7706 119.888C79.6914 121.056 78.9192 121.749 78.0084 122.284C75.9096 123.531 73.6722 124.442 71.3754 125.234C71.2566 125.274 71.118 125.333 70.9992 125.393C70.9002 125.452 70.9596 125.591 71.0784 125.551C73.2168 124.818 75.3354 123.987 77.3154 122.878C77.949 122.541 78.5232 122.086 79.0974 121.65C79.6122 121.274 79.83 120.7 79.929 120.086C80.028 119.334 80.127 118.581 80.2458 117.849C80.2656 117.73 80.3448 117.611 80.424 117.492C80.4438 117.453 80.5032 117.433 80.5626 117.473C80.6814 117.572 80.8398 117.651 80.8794 117.77C81.0378 118.265 81.1566 118.799 81.2754 119.314C81.2952 119.433 81.315 119.552 81.3348 119.71C81.3348 119.769 81.4338 119.809 81.4734 119.769C81.7902 119.512 82.0674 119.274 82.3644 119.116C82.7604 118.918 83.1762 118.779 83.592 118.641C83.7108 118.601 83.9484 118.68 84.0078 118.779C84.0672 118.878 84.0078 119.116 83.9088 119.215C83.6118 119.492 83.295 119.73 82.9584 119.948C82.602 120.165 82.2456 120.363 81.8298 120.601C81.7704 120.641 81.7704 120.74 81.8298 120.759C82.3446 120.938 82.7802 121.096 83.2356 121.274C83.4336 121.353 83.6316 121.472 83.79 121.611C83.8692 121.69 83.9286 121.868 83.9088 121.987C83.9088 122.046 83.691 122.106 83.5722 122.106C83.196 122.066 82.8396 121.987 82.4832 121.928C82.2456 121.888 82.008 121.848 81.7902 121.809C81.2952 121.749 80.8794 121.868 80.6418 122.363C80.5626 122.541 80.4042 122.7 80.2854 122.878C79.6122 123.67 78.9588 124.462 78.2658 125.234C77.1966 126.442 76.167 127.689 74.88 128.679C74.8008 128.739 74.8404 128.858 74.9394 128.858H74.9592Z" fill="#737373"/>
<path d="M62.9812 106.187C63.2188 106.226 63.5356 106.365 63.6742 106.266C63.9712 106.068 63.793 105.731 63.595 105.553C63.4168 105.415 63.0604 105.276 62.9218 105.355C62.6248 105.553 62.8426 105.85 62.9812 106.187Z" fill="#202020"/>
<path d="M61.5552 105.494C61.7268 105.032 62.103 104.656 62.6838 104.365C62.4462 104.207 61.9908 104.306 61.6938 104.563C61.4562 104.781 61.3968 105.058 61.5552 105.494Z" fill="black"/>
<path d="M63.1007 106.304C63.4175 106.562 63.7937 106.522 63.9719 106.403C64.3481 106.146 64.1105 105.73 63.8531 105.512C63.6353 105.334 63.1799 105.156 63.0215 105.255C62.6453 105.512 62.7839 106.047 63.1007 106.304Z" fill="black"/>
<path d="M71.8125 107.118C72.1293 107.554 73.1193 107.534 73.7925 107.039C73.0995 107.059 72.4461 107.098 71.8125 107.118Z" fill="black"/>
<path d="M61.5552 105.494C61.7268 105.032 62.103 104.656 62.6838 104.365C62.4462 104.207 61.9908 104.306 61.6938 104.563C61.4562 104.781 61.3968 105.058 61.5552 105.494Z" fill="#707070"/>
<path d="M99.8496 144.897C100.582 144.897 101.216 144.897 101.849 144.916C101.473 144.52 100.503 144.501 99.8496 144.897Z" fill="#1B1B1B"/>
<path d="M99.7695 145.69C100.205 145.631 100.641 145.552 101.136 145.473C100.74 145.156 100.166 145.235 99.7695 145.69Z" fill="#1E1E1E"/>
<path d="M78.1078 151.726C79.771 152.716 81.454 153.686 83.1172 154.617V153.825C83.0776 152.379 83.0776 150.934 83.0578 149.469C83.0578 149.152 83.0182 148.855 83.0182 148.538C82.9588 146.657 82.9192 144.796 82.84 142.915C82.741 140.143 81.9094 137.668 79.9492 135.668C79.5532 135.213 79.0186 134.876 78.5632 134.5C78.5632 134.678 78.5236 134.876 78.5632 135.054C79.0186 137.133 79.177 139.232 78.8998 141.252C78.8998 141.43 78.8602 141.588 78.8008 141.767V141.826C78.7612 142.281 78.682 142.757 78.5632 143.172C78.5236 143.351 78.5038 143.509 78.4444 143.667V143.727C78.2662 144.44 78.0088 145.073 77.7316 145.746C77.3554 146.677 76.8802 147.528 76.4446 148.419C76.3258 148.657 76.207 148.934 76.0684 149.192C76.4644 149.865 76.8406 150.538 77.2366 151.191L78.088 151.706L78.1078 151.726Z" fill="#D3A272"/>
<path d="M91.9882 154.498C90.6418 155.349 89.2558 156.221 87.9094 157.112C86.6818 156.537 85.4542 155.884 84.2266 155.211C84.7414 154.894 85.276 154.637 85.771 154.359C86.6026 154.023 87.3946 153.627 88.2262 153.35C89.4934 152.954 90.7408 152.775 92.008 153.29C92.8594 153.904 92.899 153.944 92.008 154.518L91.9882 154.498Z" fill="#D3A272"/>
<path d="M89.8086 153.725C90.5412 153.844 91.155 153.943 91.7886 154.042C91.4718 153.606 90.5214 153.428 89.8086 153.725Z" fill="#1B1B1B"/>
<path d="M89.6113 154.497C90.0469 154.497 90.5023 154.497 90.9973 154.497C90.6409 154.141 90.0865 154.121 89.6113 154.497Z" fill="#1E1E1E"/>
<path d="M59.615 107.057C59.3774 107.334 59.0408 107.512 58.6844 107.571C57.5162 107.75 55.0412 108.185 54.7244 108.205C51.6752 108.264 49.319 107.076 47.5172 104.958C46.7054 104.027 46.8242 103.71 48.0518 103.215C52.388 101.453 56.447 101.651 60.1298 104.225C60.1892 104.265 60.2684 105.037 60.3476 105.572C60.407 105.928 60.2882 106.304 60.0308 106.581L59.615 107.057Z" fill="#D3A272"/>
<path d="M58.5466 106.424C58.408 106.523 58.2298 106.563 58.0318 106.583C57.3982 106.622 56.032 106.741 55.8736 106.741C54.25 106.682 53.0818 106.127 52.2898 105.197C51.9334 104.781 52.0126 104.662 52.7056 104.484C55.1608 103.85 57.814 103.415 59.0614 105.217C59.2 105.415 59.1802 105.553 59.1802 105.791C59.1802 105.949 58.9624 106.127 58.8238 106.246L58.5664 106.444L58.5466 106.424Z" fill="#FFFFFD"/>
<path d="M79.0193 149.252C79.0787 149.41 79.1182 149.311 79.1381 148.974C79.1381 146.975 79.0193 144.955 78.9005 142.955C78.7421 141.252 78.7816 139.391 78.1084 137.827C77.5936 136.619 76.5245 135.768 75.3959 135.154C74.3267 134.56 73.2376 134.025 72.1684 133.451C71.8516 133.293 70.4459 132.54 70.4062 132.719C70.4657 132.857 71.0201 133.214 71.3963 133.431C72.5051 134.085 73.6337 134.718 74.7425 135.392C75.6137 135.906 76.4651 136.5 77.0591 137.312C78.0095 138.579 78.0689 140.243 78.2273 141.807C78.4055 143.846 78.6233 145.886 78.8014 147.905C78.8411 148.301 78.9005 148.915 78.9995 149.252H79.0193Z" fill="#737373"/>
<path d="M107.65 161.231C107.749 161.687 107.412 162.122 106.937 162.182C101.749 162.736 94.9382 160.518 87.8894 157.113C86.6618 156.539 85.4342 155.885 84.2066 155.212C83.8304 155.034 83.474 154.836 83.0978 154.638C81.4346 153.707 79.7516 152.737 78.0884 151.747C77.8112 151.569 77.5142 151.371 77.237 151.232C73.8314 149.114 70.505 146.936 67.4954 144.817C62.2088 141.134 57.8132 137.748 55.2194 135.689C54.5462 135.174 55.0016 134.145 55.8332 134.244C58.625 134.561 61.7336 134.283 64.9214 133.59C69.4754 132.6 74.2472 130.818 78.7616 128.739C78.821 128.739 78.8804 128.7 78.9398 128.68C81.1574 127.67 83.3354 126.561 85.355 125.453C92.1464 121.829 97.6706 118.107 99.8882 116.582C100.383 116.246 101.056 116.543 101.155 117.156L107.63 161.211L107.65 161.231Z" fill="#C28C70"/>
<path d="M111.788 101.416L100.76 93.2188L99.7104 101.574L98.364 108.643L97.1562 112.643L95.592 116.761L94.0674 118.503L91.6122 119.969L86.2662 121.968L85.2168 122.84V123.255L85.9098 123.869L87.7512 124.206H91.5132L91.6914 124.542L90.9588 126.423L90.246 129.71L90.345 131.136L90.9192 131.849L91.929 131.532L92.721 130.72L94.008 127.77L94.701 124.998L95.6712 126.364L98.067 129.334L99.1362 129.77L99.9282 129.136L99.7698 127.691L97.7898 123.196L97.8492 121.77L99.1362 120.107L102.047 116.226L109.254 106.089L111.788 101.416Z" fill="#C28C70"/>
<path d="M112.105 101.416C112.105 101.416 112.105 101.535 112.086 101.594C109.571 106.465 106.423 110.92 103.136 115.316C102.087 116.721 100.958 118.068 99.869 119.454C99.5918 119.85 99.3938 120.305 99.0374 120.602C97.8494 121.632 97.7108 122.8 98.3642 124.166C98.9186 125.315 99.473 126.463 99.9482 127.651C100.146 128.146 100.265 128.74 100.186 129.255C100.027 130.185 99.1958 130.581 98.5028 129.968C97.5128 129.077 96.701 127.988 95.8298 126.938C95.5922 126.641 95.3942 126.305 95.117 125.829C95.018 125.651 94.721 125.691 94.6814 125.889C94.3646 127.057 94.0874 128.047 93.83 129.057C93.83 129.057 93.83 129.096 93.8102 129.116C93.4538 129.73 93.1964 130.443 92.741 130.958C92.3054 131.453 91.652 132.047 91.0976 132.047C90.2066 132.047 89.87 131.136 89.9888 130.344C90.2264 128.819 90.5828 127.295 90.9194 125.79C90.9788 125.493 91.1174 125.216 91.2758 124.859C91.355 124.701 91.2362 124.523 91.058 124.523C90.2462 124.523 89.5334 124.542 88.8206 124.523C87.9098 124.483 86.9594 124.463 86.0882 124.245C85.6526 124.127 85.2962 123.691 84.92 123.354C84.821 123.275 84.821 123.137 84.8804 123.038C85.1774 122.622 85.4348 122.127 85.8308 121.949C87.3356 121.275 88.8998 120.741 90.4244 120.167C90.761 120.048 91.0778 119.87 91.3946 119.731C91.3946 119.731 91.3946 119.731 91.4144 119.731C94.4438 118.781 95.7902 116.365 96.6614 113.593C98.681 107.297 99.671 100.782 100.344 94.2285C100.384 93.8721 100.443 93.5157 100.522 93.1593C100.602 92.8821 101.017 92.9415 100.998 93.2385C100.384 99.3765 99.4928 105.435 97.8494 111.375C97.3346 113.256 96.503 115.058 95.7308 116.86C95.0378 118.464 93.6716 119.394 92.1074 120.008C90.2066 120.761 88.2662 121.454 86.3852 122.206C86.0684 122.345 85.811 122.622 85.5338 122.879C85.4348 122.978 85.4348 123.137 85.5338 123.236C85.8506 123.513 86.1476 123.849 86.4842 123.869C87.9098 123.988 89.3552 123.948 90.8006 123.968C91.1174 123.968 91.454 123.929 91.8698 123.889C92.048 123.889 92.1866 124.067 92.1074 124.226C91.652 125.235 91.1768 126.067 90.9392 126.978C90.6422 128.126 90.5432 129.334 90.464 130.522C90.464 130.878 90.7808 131.472 91.058 131.532C91.355 131.611 91.9688 131.314 92.1272 131.017C92.6618 130.086 93.1172 129.096 93.4736 128.087C93.8498 127.017 94.127 125.928 94.4834 124.681C94.5428 124.483 94.8002 124.443 94.919 124.622C95.711 125.849 96.404 126.938 97.1564 128.007C97.493 128.483 97.9286 128.938 98.4038 129.275C98.681 129.453 99.176 129.473 99.473 129.354C99.6116 129.294 99.671 128.681 99.572 128.403C99.2354 127.453 98.7998 126.562 98.4038 125.631C98.1464 125.037 97.9088 124.443 97.6712 123.849C97.196 122.582 97.2356 121.434 98.4236 120.483C98.8592 120.147 99.176 119.672 99.5522 119.256C101.215 116.999 102.898 114.761 104.522 112.484C107.056 108.92 109.71 105.416 111.531 101.416C111.63 101.178 111.987 101.218 112.046 101.475L112.105 101.416Z" fill="#737373"/>
</g>
<defs>
<clipPath id="clip0_357_5449">
<rect width="198" height="198" fill="white"/>
</clipPath>
</defs>
</svg>
