<svg width="100" height="100" viewBox="0 0 100 100" fill="none" xmlns="http://www.w3.org/2000/svg">
<g clip-path="url(#clip0_139_8721)">
<mask id="mask0_139_8721" style="mask-type:luminance" maskUnits="userSpaceOnUse" x="0" y="0" width="100" height="100">
<path d="M100 0H0V100H100V0Z" fill="white"/>
</mask>
<g mask="url(#mask0_139_8721)">
<path d="M100 0H0V100H100V0Z" fill="#FFD6BB"/>
<path d="M38.73 83.0402C38.73 83.0402 17.13 85.9402 15.29 86.8502C13.45 87.7602 30.09 94.6702 30.09 94.6702L57.81 89.5502L59.97 83.0902C59.97 83.0902 43 81.9502 38.74 83.0402H38.73Z" fill="#7C5646"/>
<path d="M44.8101 58.05C44.7801 58.34 44.8301 58.66 44.7201 58.9C42.9101 62.92 41.3101 67.02 40.2201 71.31C40.1101 71.72 39.7501 72.07 39.5101 72.45C35.0001 73.32 30.4901 74.25 25.9601 75.03C24.6601 75.25 23.9301 75.82 23.5501 77.01C23.1901 78.11 22.8601 79.23 22.3901 80.28C22.2301 80.64 21.6901 80.83 21.3201 81.1C21.0901 80.73 20.6601 80.37 20.6701 80C20.6701 78.92 20.8401 77.83 20.9701 76.75C21.0101 76.4 21.1001 76.06 21.1601 75.72C21.0701 75.62 20.9801 75.52 20.9001 75.42C20.5501 75.69 20.2301 76.03 19.8401 76.23C18.7801 76.77 17.7301 77.34 16.6101 77.73C16.1701 77.89 15.5801 77.63 15.0601 77.56C15.2001 76.99 15.1501 76.22 15.5101 75.9C16.3601 75.14 17.3901 74.58 18.3701 73.98C18.7601 73.74 19.2101 73.6 19.7901 73.35C18.9901 72.64 18.2801 72.04 17.6001 71.39C17.1701 70.98 16.7301 70.55 16.4401 70.05C16.2501 69.73 16.3201 69.26 16.2701 68.86C16.6701 68.81 17.1201 68.62 17.4601 68.74C18.7701 69.2 20.0701 69.71 21.3201 70.3C23.4801 71.33 25.5401 71.3 27.6901 70.21C31.6501 68.22 35.1901 65.62 38.6801 62.93C40.7501 61.33 42.7701 59.67 44.8101 58.04V58.05Z" fill="#C28C70"/>
<path d="M44.3297 139.51C43.9097 140.76 43.4797 142.01 43.0697 143.26C42.5964 144.694 41.6364 145.29 40.1897 145.05C39.7997 144.98 39.3997 144.94 39.0197 144.83C32.5297 142.99 26.0397 141.17 19.5697 139.28C17.2797 138.61 17.2997 138.53 18.7797 136.67C21.1597 134.75 23.9897 134.35 26.8897 134.44C28.8597 134.5 30.8097 134.81 32.7697 135.02C34.7997 135.46 36.8197 135.91 38.8397 136.36C38.9197 136.13 39.0797 135.89 39.0497 135.67C38.9697 135.12 38.7997 134.58 38.6697 134.04C38.4997 133.44 38.3297 132.84 38.1597 132.24C37.2697 129.13 36.3497 126.03 35.5097 122.9C34.2497 118.18 33.0297 113.44 31.8197 108.7C30.2897 102.73 30.5197 96.9002 33.4097 91.3402C34.0297 90.1502 34.8997 89.0902 35.6597 87.9702C35.7797 88.3702 35.9797 88.7702 35.9997 89.1702C36.5197 97.5402 39.2597 105.07 44.5397 111.61C45.9297 113.33 47.5097 114.89 48.9997 116.52C49.4197 117 49.8497 117.48 50.2697 117.95C49.6797 120.29 49.1497 122.64 48.4997 124.96C47.1397 129.82 45.7097 134.67 44.3097 139.53L44.3297 139.51Z" fill="#AD7963"/>
<path d="M63.9702 18.26C64.7702 18.2 65.5302 17.84 66.1102 17.26C67.9602 15.41 72.0402 11.49 72.4602 10.93C76.5702 5.50001 77.5402 -0.319986 76.1202 -6.33999C75.4902 -9.01999 74.8002 -9.21999 72.2702 -7.65999C63.3502 -2.14999 58.3902 5.42001 58.1602 15.46C58.1602 15.64 59.4502 16.77 60.3102 17.61C60.8902 18.17 61.6902 18.45 62.5502 18.38L63.9702 18.27V18.26Z" fill="#8E6451"/>
<path d="M70.6601 128.01C69.6601 125.14 68.6601 122.27 67.6601 119.4C66.4301 115.88 65.2601 112.33 63.9501 108.83C62.5401 105.09 63.1701 101.74 65.4901 98.5601C67.9001 95.2501 70.2401 91.8801 72.6001 88.5301C72.8601 88.1601 73.0501 87.7301 73.2701 87.3301C72.8701 87.4101 72.6501 87.5901 72.4701 87.8101C69.7501 91.2601 67.0201 94.7101 64.3401 98.1901C61.9501 101.29 61.2201 104.72 62.5401 108.46C63.6901 111.73 64.9201 114.97 66.1201 118.22C66.3501 118.86 66.6501 119.47 66.9201 120.09C66.9901 120.32 67.0601 120.54 67.1401 120.77C67.2001 120.84 67.3001 120.91 67.3301 120.99C68.0601 122.83 68.7701 124.68 69.5201 126.51C69.8701 127.36 70.3101 128.18 70.7101 129.01C70.8401 128.61 70.7801 128.29 70.6701 127.99L70.6601 128.01ZM63.8601 18.9401C63.0001 18.7001 61.9901 18.9401 61.6501 19.4601C63.0901 19.5001 64.2067 19.9101 65.0001 20.6901C64.9201 19.6601 64.5501 19.1401 63.8501 18.9501L63.8601 18.9401ZM62.0901 21.6501C61.7601 21.5901 61.1301 22.2201 60.9201 22.6701C60.6701 23.2001 60.6201 24.0501 61.4001 24.2001C61.7801 24.2701 62.2801 23.6901 62.7301 23.4101C62.6901 22.5701 62.8901 21.7901 62.0901 21.6501ZM44.8301 32.5601C46.6601 32.9601 48.6501 32.0801 48.9101 30.9001C47.6101 31.4301 46.2501 31.9801 44.8301 32.5601Z" fill="#8F8F8F"/>
<path d="M44.8301 32.5602C46.2501 31.9802 47.6101 31.4302 48.9101 30.9002C48.6501 32.0802 46.6601 32.9602 44.8301 32.5602ZM61.4001 24.2002C60.6201 24.0502 60.6701 23.2102 60.9201 22.6702C61.1301 22.2202 61.7501 21.5902 62.0901 21.6502C62.8901 21.7902 62.6901 22.5702 62.7301 23.4102C62.2801 23.6902 61.7801 24.2802 61.4001 24.2002ZM61.6601 19.4602C62.0001 18.9302 63.0001 18.7002 63.8701 18.9402C64.5701 19.1402 64.9301 19.6602 65.0201 20.6802C64.2267 19.9002 63.1101 19.4902 61.6701 19.4502L61.6601 19.4602ZM69.5001 126.53C68.7501 124.7 68.0401 122.85 67.3101 121.01C67.2801 120.92 67.1801 120.86 67.1201 120.79C67.0501 120.56 66.9801 120.34 66.9001 120.11C66.6301 119.49 66.3301 118.87 66.1001 118.24C64.8901 114.99 63.6701 111.75 62.5201 108.48C61.2001 104.74 61.9401 101.3 64.3201 98.2102C67.0001 94.7302 69.7401 91.2902 72.4501 87.8302C72.6201 87.6102 72.8501 87.4202 73.2501 87.3502C73.0301 87.7502 72.8501 88.1802 72.5801 88.5502C70.2201 91.9002 67.8801 95.2702 65.4701 98.5802C63.1501 101.76 62.5201 105.1 63.9301 108.85C65.2401 112.34 66.4101 115.89 67.6401 119.42C68.6401 122.29 69.6501 125.16 70.6401 128.03C70.7401 128.33 70.8101 128.65 70.6801 129.05C70.2801 128.22 69.8401 127.4 69.4901 126.55L69.5001 126.53Z" fill="#C28C70"/>
<path d="M68.2301 129.98C60.4901 128.51 56.1501 125.74 50.4601 122.05C50.2501 121.91 49.9601 121.88 49.7001 121.81C49.6601 121.8 49.6301 121.78 49.6001 121.75C49.2401 121.34 48.8801 120.94 48.5101 120.53C48.4301 120.44 48.4501 120.3 48.5501 120.23C48.7701 120.09 49.0201 119.95 49.0701 119.76C49.3601 118.68 49.6601 117.58 49.7701 116.47C50.1801 112.37 50.5301 108.26 50.9001 104.15V104.13C50.9001 102.89 50.9201 101.66 50.9301 100.42C50.9301 96.5198 50.9501 92.6098 50.9601 88.7098C50.9601 88.6698 50.9601 88.6398 50.9901 88.6098L51.1701 80.4298C51.1901 80.1398 51.2001 79.8498 51.2501 79.5698C51.7901 76.2198 52.0701 72.7898 52.9401 69.5198C54.3301 64.2598 56.1501 59.0998 57.7101 53.8798C58.4201 51.4898 58.6101 49.0198 58.4401 46.5198C58.3301 44.9498 58.3201 43.3798 58.2601 41.8098V41.7598L57.9601 40.6698V40.6498C57.7701 39.3598 57.5801 38.0798 57.3901 36.7998C57.3901 36.7598 57.3901 36.7198 57.4101 36.6898C57.4801 36.5398 57.5501 36.3898 57.6401 36.1798C57.7001 36.0398 57.5901 35.8798 57.4401 35.8998C57.0901 35.9398 56.8101 35.9598 56.5301 35.9998C53.5601 36.4298 50.5901 36.8898 47.6101 37.2898C46.7301 37.4098 45.8301 37.4198 44.9401 37.3898C43.2901 37.3298 42.5401 36.8098 41.9501 35.2798C41.9101 35.1898 41.8201 35.1398 41.7201 35.1498C37.0101 36.0298 33.1401 34.2798 29.7501 31.1498C29.6401 31.0498 29.6701 30.8798 29.8001 30.8198C31.5101 30.0598 33.2401 29.3498 34.9101 28.5098C35.7501 28.0898 36.6501 27.4298 36.3901 26.2998C36.1401 25.2298 35.0701 25.1198 34.1601 24.9798C33.5001 24.8798 32.8401 24.8198 32.1701 24.7498C31.9701 24.7298 31.9201 24.4698 32.0901 24.3798C34.1901 23.2398 36.2601 22.0098 38.4501 21.0798C41.9301 19.5998 45.5301 18.3898 49.0801 17.0598H49.1201C51.9801 16.4098 54.8501 15.7798 57.7201 15.1398H57.7601L59.2201 15.0998C59.5801 15.0898 59.9801 15.0698 60.3501 15.0598C60.5701 15.0598 60.9701 15.0598 61.0301 15.0598C61.3001 15.0598 61.6101 15.0098 61.8801 15.0598C61.9501 15.0698 62.0301 15.0898 62.1001 15.1198C63.6101 15.5798 65.1201 16.0298 66.6401 16.4798C67.2501 17.0498 67.8601 17.6198 68.4801 18.1898C68.7901 18.4698 69.0901 18.7598 69.4001 19.0398C69.6801 19.2898 69.9801 19.4998 70.1001 19.8698C70.2301 20.2698 70.3201 20.6698 70.4201 21.0798C70.5301 21.5298 70.6201 21.9898 70.6201 22.4498C70.6201 26.0198 70.5701 29.5898 70.3901 33.1498C70.1701 37.5298 69.8801 41.9298 71.3701 46.1398C72.5001 49.3098 73.9701 52.3698 75.3001 55.4698C75.6601 56.3198 76.0401 57.1698 76.4101 58.0198C76.7401 58.7498 77.0701 59.4798 77.4001 60.2098C80.9001 67.7598 83.5801 75.5798 84.6901 83.8398C85.2501 87.9898 85.2901 92.2198 85.6701 96.3998C85.7901 97.6998 86.1701 98.9998 86.6001 100.24C89.6201 108.95 95.5701 114.67 104.35 117.44C106.27 118.04 108.25 118.5 110.23 118.87C115.08 119.79 119.21 118.34 122.83 115.03C125.19 112.87 127.63 110.76 130.22 108.89C133.53 106.49 137.47 105.39 141.33 104.2C143.82 103.43 146.31 102.56 148.87 102.12C151.19 101.72 153.6 101.85 155.97 101.77C156.16 101.77 156.38 101.81 156.54 101.91C156.83 102.09 157.11 102.31 157.38 102.52C157.47 102.59 157.49 102.71 157.42 102.8C157.21 103.08 157.02 103.4 156.74 103.56C153.92 105.16 151.05 106.67 148.25 108.31C146.34 109.43 144.48 110.65 142.67 111.92C139.69 114.01 137.4 116.66 135.83 120C134.09 123.7 131.9 127.13 128.96 130.03C124.86 134.08 119.87 136.29 114.18 136.79C106 137.51 98.2101 136.13 90.9901 132.08C87.9901 130.4 85.3801 128.22 83.0601 125.69C82.8101 125.42 82.5701 125.15 82.3101 124.9C82.2701 124.87 82.2301 124.84 82.1501 124.81C82.0301 124.76 81.9001 124.83 81.8701 124.95C81.8701 124.95 81.8701 124.96 81.8701 124.97C81.5401 126.45 80.5701 127.69 79.2201 128.38C76.9301 129.54 73.0201 130.9 68.2401 129.99L68.2301 129.98Z" fill="#C28C70"/>
<path d="M35.14 28.6C33.38 29.48 31.55 30.23 29.75 31.03C28.09 29.65 27.9 28.26 29.13 26.51C29.36 26.31 29.59 26.11 29.83 25.91C30.47 25.54 31.11 25.16 31.74 24.79C32.62 24.88 33.51 24.94 34.39 25.08C35.3 25.22 36.36 25.33 36.62 26.4C36.89 27.53 35.99 28.18 35.14 28.61V28.6Z" fill="#202020"/>
<path d="M51.7601 78.3701C51.7601 78.3701 51.7601 78.3401 51.7601 78.3201C52.3001 74.9701 52.5801 71.5601 53.4401 68.3001C54.8301 63.0401 55.7501 62.7001 57.3001 57.4701C58.0101 55.0801 59.5701 49.5001 59.6201 44.5601C59.6501 40.7601 58.6101 37.4501 58.1301 36.1301C58.0201 35.8301 57.6101 35.7501 57.4201 36.0101C52.7101 42.2901 49.9101 45.2201 43.9001 55.6901C37.8901 66.1701 34.1601 80.9401 34.9201 90.3901C35.6801 99.8401 39.1401 107.67 44.4201 114.21C45.7301 115.84 47.2201 117.32 48.6401 118.85C48.7801 119 49.0001 119.03 49.1701 118.92C49.3601 118.8 49.5501 118.67 49.5901 118.51C49.8801 117.43 50.1801 116.33 50.2901 115.22C50.7001 111.12 51.0501 107.01 51.4201 102.91C51.4201 102.9 51.4201 102.89 51.4201 102.88C51.4201 101.65 51.4401 100.42 51.4401 99.1801C51.4401 95.2601 51.4601 91.3401 51.4701 87.4101L51.7601 78.3501V78.3701Z" fill="#F9F0E4"/>
<path d="M57.2199 23.5001C56.8999 23.6101 56.6699 24.4701 56.6999 24.9601C56.7399 25.5501 57.1099 26.3101 57.8699 26.0601C58.2399 25.9401 58.6799 25.4401 58.6399 24.7201C58.5999 24.0001 57.9799 23.2301 57.2199 23.5001Z" fill="black"/>
<path d="M41.6201 35.16C43.4501 35.56 45.4401 34.68 45.7001 33.5C44.4001 34.03 43.0401 34.58 41.6201 35.16Z" fill="black"/>
<path d="M59.2998 21.23C58.2265 20.9367 57.0531 21.1267 55.7798 21.8C55.8198 21.18 56.5798 20.48 57.4498 20.27C58.1498 20.1 58.7298 20.38 59.2998 21.23Z" fill="#707070"/>
<path d="M67.8 143.68C67.56 144.98 67.31 146.27 67.08 147.57C66.82 149.057 65.9534 149.783 64.48 149.75C64.08 149.75 63.68 149.75 63.29 149.7C56.61 148.79 49.92 147.9 43.25 146.94C40.89 146.6 40.9 146.52 42.1 144.47C44.18 142.23 46.93 141.44 49.82 141.11C51.77 140.89 53.75 140.93 55.73 140.85C57.8 141 59.86 141.16 61.93 141.32C61.97 141.08 62.1 140.82 62.04 140.61C61.88 140.08 61.64 139.57 61.43 139.05C61.17 138.48 60.92 137.91 60.67 137.34C59.35 134.38 58 131.44 56.73 128.47C54.81 123.97 52.95 119.45 51.08 114.93C48.73 109.23 48.13 103.43 50.21 97.5199C50.66 96.2499 51.37 95.0799 51.96 93.8599C52.13 94.2399 52.39 94.5999 52.47 94.9999C54.16 103.21 57.94 110.28 64.09 116.01C65.7 117.52 67.49 118.84 69.2 120.24C69.69 120.65 70.17 121.07 70.66 121.48C70.41 123.88 70.21 126.28 69.89 128.66C69.23 133.67 68.5 138.67 67.8 143.67V143.68Z" fill="#C28C70"/>
<path d="M70.3899 22.0499C71.1099 22.3799 71.9599 22.4499 72.7499 22.2199C75.2699 21.5099 80.7399 20.0899 81.3899 19.8099C87.6399 17.0899 91.3199 12.4899 93.0399 6.53991C93.7999 3.88991 93.2999 3.37991 90.3299 3.49991C79.8599 3.93991 71.8199 8.10991 66.6999 16.7399C66.6099 16.8899 67.1799 18.5199 67.5199 19.6699C67.7499 20.4399 68.3099 21.0799 69.0899 21.4399L70.3799 22.0399L70.3899 22.0499Z" fill="#C28C70"/>
<path d="M71.9899 19.7799C72.3799 19.8599 72.7599 19.7699 73.1799 19.6099C74.4999 19.1199 77.3799 18.0899 77.7099 17.9299C80.9599 16.2999 82.7999 14.0799 83.5499 11.4499C83.8799 10.2799 83.5999 10.0999 82.0299 10.3899C76.4699 11.3899 70.6699 12.9499 69.8099 17.7899C69.7199 18.3099 69.8999 18.5899 70.1099 19.0399C70.2499 19.3499 70.8499 19.5299 71.2699 19.6199L71.9799 19.7799H71.9899Z" fill="#FFFFFD"/>
<path d="M70.09 125.79C70 125.03 69.54 123.73 69.26 122.88C67.75 118.59 66.27 114.26 64.76 109.96C63.6 106.66 62.21 103.22 62.96 99.7701C63.41 97.5401 64.62 95.5501 65.89 93.6901C67.54 91.3201 69.23 89.0001 70.87 86.6201C71.42 85.8201 72.22 84.5801 72.22 84.2401C71.98 83.9201 69.83 86.7401 69.32 87.3701C67.65 89.5101 65.94 91.6101 64.33 93.8101C62.63 96.1301 61.25 98.8301 61.31 101.76C61.39 105.58 63.23 109.32 64.47 112.93C66.09 117.12 67.7 121.32 69.58 125.38C69.92 126.02 70.11 126.19 70.08 125.81L70.09 125.79Z" fill="#737373"/>
<path d="M31.6401 80.1201C31.7401 80.1501 31.8501 80.2001 31.9501 80.2001C33.5701 80.0801 35.2001 80.0501 36.8201 80.2201C36.9801 80.2401 37.1401 80.1601 37.3101 80.1201C38.1901 78.6701 39.0801 77.2301 39.9201 75.7601C40.1601 75.3401 40.4501 75.1601 40.9101 75.1801C41.3401 75.2001 41.7701 75.2201 42.1901 75.1901C42.3401 75.1901 42.4701 75.0201 42.6101 74.9201C42.5101 74.7901 42.4401 74.6001 42.3101 74.5501C41.9301 74.4101 41.5401 74.3401 41.1501 74.2401C41.0301 74.2101 40.9001 74.2001 40.7701 74.1801C40.7501 74.1401 40.7201 74.0901 40.7001 74.0501C40.8401 73.9601 41.0001 73.8901 41.1101 73.7801C41.4301 73.4801 41.7601 73.1901 42.0401 72.8501C42.1501 72.7201 42.1401 72.4801 42.1801 72.2901C41.9701 72.2701 41.7001 72.1501 41.5501 72.2301C41.1801 72.4301 40.8601 72.7101 40.5201 72.9801C40.3901 73.0801 40.2801 73.2201 40.1201 73.3901C39.9801 73.0201 39.8601 72.7001 39.7201 72.3801C39.6301 72.1801 39.5401 71.9701 39.4001 71.8101C39.3101 71.7001 39.1401 71.6701 39.0101 71.6001C38.9401 71.7301 38.8201 71.8601 38.8201 72.0001C38.8201 72.5101 38.8201 73.0301 38.8701 73.5401C38.9501 74.4201 38.6801 75.1301 38.0301 75.7301C36.8401 76.8501 35.4901 77.7401 34.1101 78.6101C33.2901 79.1201 32.4601 79.6101 31.6401 80.1101V80.1201Z" fill="#D3A272"/>
<path d="M41.0297 107.49C41.2497 107.92 41.4797 108.35 41.6997 108.79C41.953 109.29 42.3363 109.454 42.8497 109.28C42.9897 109.23 43.1297 109.2 43.2597 109.14C45.5197 108.11 47.7897 107.08 50.0397 106.03C50.8397 105.66 50.8197 105.63 50.1797 105.03C49.2097 104.46 48.1497 104.48 47.0997 104.67C46.3897 104.8 45.6897 105.03 44.9897 105.21C44.2797 105.49 43.5597 105.76 42.8497 106.04C42.8097 105.96 42.7397 105.88 42.7397 105.8C42.7397 105.59 42.7697 105.39 42.7897 105.18C42.8197 104.95 42.8497 104.72 42.8797 104.49C43.0297 103.31 43.1897 102.12 43.3197 100.94C43.5197 99.1502 43.6897 97.3502 43.8697 95.5602C44.0897 93.3002 43.6897 91.1902 42.3197 89.3202C42.0297 88.9202 41.6497 88.5802 41.3097 88.2202C41.2897 88.3702 41.2397 88.5302 41.2497 88.6802C41.5297 91.7602 40.9497 94.6602 39.3897 97.3402C38.9797 98.0402 38.4897 98.7002 38.0397 99.3802C37.9097 99.5802 37.7797 99.7802 37.6597 99.9702C37.9997 100.79 38.3297 101.62 38.6997 102.42C39.4697 104.12 40.2597 105.81 41.0397 107.5L41.0297 107.49Z" fill="#D3A272"/>
<path d="M27.0997 64.3801C26.8097 64.4001 26.5097 64.3101 26.2597 64.1301C25.4797 63.5601 23.7797 62.3601 23.5897 62.1801C21.7897 60.4301 21.1097 58.3601 21.2897 56.0901C21.3697 55.0801 21.6097 54.9601 22.6197 55.3901C26.1797 56.9001 28.4097 59.3801 29.0597 63.0301C29.0697 63.0901 28.6597 63.5801 28.3997 63.9301C28.2197 64.1701 27.9397 64.3101 27.6297 64.3401L27.1097 64.3801H27.0997Z" fill="#AA895E"/>
<path d="M31.6197 102.04C31.6197 102.04 31.6697 101.97 31.6697 101.95C31.6997 101.85 31.6897 101.77 31.7197 101.68C31.7897 101.44 31.8597 101.19 31.8997 100.97C32.1197 99.8199 32.3697 98.7399 32.5697 97.5799C32.5997 97.4599 32.6497 97.3099 32.6597 97.1799C32.7397 96.8099 32.7597 96.4699 32.7197 96.1399C32.7197 96.1199 32.7297 96.0899 32.7197 96.0599C32.6697 95.4899 32.5097 94.9499 32.1697 94.4799C32.1697 94.4599 32.1597 94.4199 32.1397 94.3899C31.9697 94.0799 31.7297 93.7999 31.4397 93.5299C30.2797 92.4099 29.0997 91.3099 27.9097 90.2199C27.8297 90.1399 27.7397 90.0899 27.5797 90.0699C27.6997 90.2099 27.7897 90.3599 27.8897 90.4699C28.9497 91.5599 29.9797 92.6699 31.0397 93.7299C31.7397 94.4299 32.1697 95.2099 32.2397 96.0899V96.1099C32.2997 96.5199 32.2897 96.9399 32.1897 97.3899C32.0897 97.9399 31.9897 98.4599 31.8897 99.0099C31.7397 99.8099 31.5897 100.63 31.4397 101.43C31.2797 102.28 31.1197 103.1 30.9697 103.93C30.9197 104.2 30.8697 104.48 30.8197 104.75C30.7897 104.85 30.7797 104.98 30.8697 105.13C30.9697 104.79 31.0797 104.48 31.1497 104.13C31.3297 103.42 31.4697 102.72 31.6497 102.01L31.6197 102.04ZM27.1897 64.6299C26.9497 64.7499 26.8397 64.9499 26.8597 65.3299C27.1131 64.9965 27.4964 64.7899 28.0097 64.7099C27.8497 64.5299 27.4897 64.5099 27.1897 64.6399V64.6299ZM28.4497 65.8299C28.3797 65.6999 28.2097 65.5499 28.0697 65.5099H28.0497C28.0497 65.5099 28.0297 65.4999 27.9897 65.5099C27.8497 65.5499 27.7997 65.6399 27.8097 65.7699C27.7997 65.8199 27.7897 65.8399 27.7997 65.8999C27.8297 65.9899 27.8197 66.0899 27.8497 66.1799C28.0097 66.2799 28.2497 66.4499 28.3597 66.3999C28.6497 66.2999 28.5797 65.9899 28.4497 65.8199V65.8299ZM33.2897 68.1499C33.4597 68.5699 34.2397 68.7899 34.8897 68.5299C34.3197 68.3999 33.8097 68.2799 33.2897 68.1499Z" fill="#8F8F8F"/>
<path d="M33.2897 68.1499C33.4597 68.5699 34.2397 68.7899 34.8897 68.5299C34.3197 68.3999 33.8097 68.2799 33.2897 68.1499ZM28.4497 65.8299C28.3797 65.6999 28.2097 65.5499 28.0697 65.5099H28.0497C28.0497 65.5099 28.0297 65.4999 27.9897 65.5099C27.8497 65.5499 27.7997 65.6399 27.8097 65.7699C27.7997 65.8199 27.7897 65.8399 27.7997 65.8999C27.8297 65.9899 27.8197 66.0899 27.8497 66.1799C28.0097 66.2799 28.2497 66.4499 28.3597 66.3999C28.6497 66.2999 28.5797 65.9899 28.4497 65.8199V65.8299ZM27.1897 64.6299C26.9497 64.7499 26.8397 64.9499 26.8597 65.3299C27.1131 64.9965 27.4964 64.7899 28.0097 64.7099C27.8497 64.5299 27.4897 64.5099 27.1897 64.6399V64.6299ZM31.6197 102.04C31.6197 102.04 31.6697 101.97 31.6697 101.95C31.6997 101.85 31.6897 101.77 31.7197 101.68C31.7897 101.44 31.8597 101.19 31.8997 100.97C32.1197 99.8199 32.3697 98.7399 32.5697 97.5799C32.5997 97.4599 32.6497 97.3099 32.6597 97.1799C32.7397 96.8099 32.7597 96.4699 32.7197 96.1399C32.7197 96.1199 32.7297 96.0899 32.7197 96.0599C32.6697 95.4899 32.5097 94.9499 32.1697 94.4799C32.1697 94.4599 32.1597 94.4199 32.1397 94.3899C31.9697 94.0799 31.7297 93.7999 31.4397 93.5299C30.2797 92.4099 29.0997 91.3099 27.9097 90.2199C27.8297 90.1399 27.7397 90.0899 27.5797 90.0699C27.6997 90.2099 27.7897 90.3599 27.8897 90.4699C28.9497 91.5599 29.9797 92.6699 31.0397 93.7299C31.7397 94.4299 32.1697 95.2099 32.2397 96.0899V96.1099C32.2997 96.5199 32.2897 96.9399 32.1897 97.3899C32.0897 97.9399 31.9897 98.4599 31.8897 99.0099C31.7397 99.8099 31.5897 100.63 31.4397 101.43C31.2797 102.28 31.1197 103.1 30.9697 103.93C30.9197 104.2 30.8697 104.48 30.8197 104.75C30.7897 104.85 30.7797 104.98 30.8697 105.13C30.9697 104.79 31.0797 104.48 31.1497 104.13C31.3297 103.42 31.4697 102.72 31.6497 102.01L31.6197 102.04Z" fill="#D3A272"/>
<path d="M29.5898 105.69C30.2598 105.72 30.9998 105.62 31.7898 105.34C32.7298 105 33.5098 104.65 34.1998 104.26C35.5498 103.49 36.5698 102.57 37.8298 101.48C37.9098 101.4 37.9898 101.37 38.0798 101.34C38.0798 101.34 38.0931 101.327 38.1198 101.3C38.1198 101.3 38.1698 101.23 38.1698 101.21V101.19C38.2698 101.06 38.3598 100.93 38.4398 100.82C38.4798 100.78 38.4698 100.72 38.4198 100.71C38.3298 100.66 38.2298 100.63 38.1998 100.57L38.0598 100.22C37.9798 100.04 37.8998 99.8602 37.8498 99.6602L37.7698 99.4002C37.3898 97.9502 37.0298 96.4502 36.6598 94.9802C36.6098 94.5202 36.5198 94.0702 36.4398 93.6302C36.2398 92.2102 36.0098 90.7702 35.7898 89.3402L35.7698 89.3102L35.4598 87.6202L35.2398 86.3502C35.2198 86.2402 35.1998 86.1302 35.1698 86.0402C35.0998 85.8102 35.0298 85.6102 34.9598 85.3802C34.9398 85.3502 34.9298 85.2902 34.9098 85.2602C34.9098 85.2602 34.9064 85.2402 34.8998 85.2002C34.6698 84.4302 34.4698 83.6602 34.1798 82.9202L34.1498 82.8602C34.1498 82.8602 34.1398 82.8002 34.1198 82.7702C34.0698 82.6802 34.0498 82.5702 33.9898 82.4702C33.6598 81.6902 33.2798 80.9002 32.9198 80.1402C32.8198 79.9302 32.6998 79.7102 32.6198 79.5302C32.1998 78.7002 31.7798 77.8702 31.3798 77.0202C30.9798 76.2002 30.7898 75.3002 30.7098 74.3802C30.6598 73.8102 30.5598 73.2302 30.4898 72.6602V72.6402L30.5298 72.2302V72.2102C30.5298 71.7402 30.5398 71.2602 30.5398 70.7902L30.5198 70.7602L30.4198 70.5702C30.4198 70.5702 30.3898 70.5102 30.4398 70.5002L30.4198 70.4702C30.4198 70.4702 30.4398 70.4702 30.4798 70.4602C30.5798 70.4602 30.6998 70.4402 30.7998 70.4502C31.8998 70.4502 33.0298 70.4502 34.1498 70.4302C34.4698 70.4202 34.7998 70.3802 35.1298 70.3102C35.7098 70.2102 35.9598 69.9702 36.0798 69.3702C36.0798 69.3502 36.1198 69.3302 36.1398 69.3402L36.1698 69.3202H36.1898C37.9098 69.3702 39.2298 68.5302 40.2898 67.2002C40.3198 67.1802 40.3098 67.1302 40.2798 67.1402C40.2731 67.1002 40.2631 67.0802 40.2498 67.0802C39.5898 66.8902 38.9298 66.7302 38.2798 66.5202C37.9398 66.4202 37.5798 66.2202 37.6098 65.8102C37.6198 65.5802 37.7598 65.4602 37.9298 65.3502C38.0198 65.3002 38.1698 65.2602 38.2798 65.2402C38.5198 65.1502 38.7898 65.1002 39.0498 65.0102C39.1398 64.9802 39.1398 64.8802 39.0698 64.8602C38.2298 64.5702 37.4298 64.2402 36.5698 64.0202C35.2198 63.6602 33.8398 63.4302 32.4498 63.1402C31.3698 63.0702 30.2798 63.0002 29.1998 62.9302H29.0398L28.6598 62.9902C28.5198 63.0002 28.3798 63.0402 28.2498 63.0602C28.1698 63.0602 28.0298 63.0802 27.9998 63.1002C27.8998 63.1002 27.7798 63.1202 27.6998 63.1502C27.6798 63.1502 27.6398 63.1602 27.6098 63.1802C27.0898 63.4302 26.5498 63.6702 26.0298 63.9202C26.0298 63.9402 25.9898 63.9602 25.9798 63.9902C25.7798 64.2202 25.6398 64.4502 25.4498 64.6502C25.3598 64.7802 25.2498 64.9102 25.1598 65.0202C25.0698 65.1302 24.9698 65.2302 24.9598 65.3602C24.9198 65.5102 24.9298 65.6702 24.9098 65.8202C24.8998 65.9502 24.8898 66.0802 24.9098 66.2102C24.8998 66.2602 24.8898 66.2802 24.8998 66.3402C25.1098 67.6402 25.3198 68.9302 25.5898 70.2202C25.9298 71.8102 26.2598 73.4102 25.9698 75.0102C25.7298 76.2302 25.3598 77.4402 25.0498 78.6402C24.9798 78.9602 24.8898 79.3002 24.7998 79.6202L24.5498 80.5002C23.7898 83.0702 23.2798 85.7102 23.2298 88.4102V89.5102C23.2298 91.0602 23.4598 92.6002 23.5698 94.1502C23.5898 94.6302 23.5298 95.1102 23.4298 95.5802C23.2798 96.4002 23.0598 97.1602 22.7598 97.8602C24.6698 100.22 26.8098 102.69 29.0298 105.13L29.5898 105.74V105.69Z" fill="#D3A272"/>
<path d="M38.1898 66.5502C38.8798 66.7702 39.5898 66.9402 40.2898 67.1302C40.8198 66.5302 40.8098 66.0202 40.2598 65.4502C40.1598 65.3902 40.0698 65.3302 39.9698 65.2702C39.7198 65.1702 39.4598 65.0702 39.2098 64.9702C38.8898 65.0502 38.5698 65.1202 38.2598 65.2202C37.9398 65.3202 37.5598 65.4202 37.5198 65.8302C37.4898 66.2602 37.8498 66.4502 38.1798 66.5502H38.1898Z" fill="#202020"/>
<path d="M34.9097 85.6199C34.9097 85.6199 34.9097 85.6099 34.9097 85.5999C34.5297 84.4099 34.2297 83.1799 33.7397 82.0399C32.9397 80.1999 32.5897 80.1299 31.7297 78.3099C31.3397 77.4799 30.4597 75.5299 30.1697 73.7299C29.9497 72.3499 30.1397 71.0799 30.2397 70.5699C30.2597 70.4499 30.4097 70.3999 30.4897 70.4899C32.5597 72.5099 33.7397 73.4299 36.5197 76.9099C39.2897 80.3899 41.4797 85.5699 41.7297 89.0599C41.9797 92.5499 41.1597 95.5899 39.5997 98.2699C39.2097 98.9399 38.7497 99.5599 38.3197 100.2C38.2797 100.26 38.1997 100.28 38.1297 100.25C38.0497 100.22 37.9797 100.18 37.9497 100.12C37.7797 99.7399 37.6097 99.3599 37.5097 98.9599C37.1297 97.4899 36.7797 96.0099 36.4097 94.5299C36.4097 94.5299 36.4097 94.5299 36.4097 94.5199C36.3397 94.0699 36.2697 93.6199 36.1897 93.1699C35.9697 91.7399 35.7497 90.3099 35.5197 88.8799L34.9097 85.5899V85.6199Z" fill="#F9EAD9"/>
<path d="M32.2299 86.75L29.8999 83.29L32.4499 83.08L34.6099 82.77L35.8399 82.46L37.1099 82.05L37.6599 81.61L38.1399 80.89L38.8199 79.29L39.0999 78.98L39.2299 78.99L39.4099 79.21L39.4799 79.77L39.4299 80.91L39.5299 80.97L40.1099 80.77L41.1199 80.61L41.5499 80.65L41.7599 80.84L41.6499 81.14L41.3899 81.37L40.4799 81.72L39.6299 81.89L40.0299 82.2L40.8999 82.97L41.0099 83.3L40.8099 83.53L40.3699 83.46L39.0299 82.8H38.5999L38.0799 83.17L36.8699 84L33.6899 86.04L32.2299 86.75Z" fill="#D3A272"/>
<path d="M32.2298 86.8499C32.2298 86.8499 32.2698 86.8499 32.2798 86.8499C33.7898 86.1499 35.1898 85.2599 36.5698 84.3199C37.0098 84.0199 37.4398 83.6999 37.8698 83.3799C37.9898 83.2999 38.1398 83.2499 38.2298 83.1499C38.5598 82.7999 38.9198 82.7799 39.3198 82.9999C39.6598 83.1799 39.9998 83.3699 40.3598 83.5299C40.5098 83.5999 40.6898 83.6399 40.8398 83.6199C41.1298 83.5899 41.2598 83.3399 41.0798 83.1199C40.8198 82.7999 40.4998 82.5399 40.1998 82.2699C40.1098 82.1899 40.0098 82.1299 39.8698 82.0399C39.8198 81.9999 39.8298 81.9199 39.8898 81.9099C40.2498 81.8299 40.5598 81.7599 40.8598 81.6899C40.8598 81.6899 40.8698 81.6899 40.8798 81.6899C41.0698 81.5899 41.2898 81.5199 41.4498 81.3899C41.5998 81.2599 41.7998 81.0699 41.7998 80.8999C41.8098 80.6299 41.5398 80.5199 41.2998 80.5399C40.8298 80.5899 40.3698 80.6799 39.8998 80.7599C39.8098 80.7799 39.7298 80.8099 39.6098 80.8599C39.5598 80.8799 39.5098 80.8399 39.5098 80.7899C39.5198 80.5399 39.5398 80.3299 39.5398 80.1099C39.5398 79.8299 39.5398 79.5399 39.4898 79.2699C39.4598 79.1399 39.3398 79.0199 39.2398 78.8999C39.2198 78.8699 39.1798 78.8699 39.1398 78.8899C39.0098 78.9699 38.8598 79.0399 38.7998 79.1599C38.5698 79.5999 38.3898 80.0699 38.1898 80.5299C38.1498 80.6299 38.0898 80.7199 38.0398 80.8199C37.7098 81.7199 36.9598 82.0999 36.1098 82.3299C34.1698 82.8499 32.1798 83.0699 30.1798 83.1799C30.0698 83.1799 29.9598 83.1999 29.8498 83.2199C29.7598 83.2399 29.7798 83.3699 29.8698 83.3699C31.7398 83.2699 33.5898 83.0799 35.4098 82.6599C35.9898 82.5299 36.5498 82.2999 37.0998 82.0899C37.5998 81.8999 37.8998 81.4999 38.0998 81.0299C38.3498 80.4599 38.5898 79.8899 38.8498 79.3199C38.8898 79.2199 38.9798 79.1499 39.0698 79.0699C39.0998 79.0399 39.1498 79.0399 39.1798 79.0699C39.2598 79.1699 39.3598 79.2699 39.3598 79.3699C39.3798 79.8099 39.3498 80.2399 39.3298 80.6799C39.3298 80.7799 39.3098 80.8799 39.2898 80.9999C39.2898 81.0599 39.3398 81.0999 39.3898 81.0799C39.6998 80.9499 39.9598 80.8299 40.2398 80.7699C40.5898 80.6899 40.9598 80.6799 41.3198 80.6799C41.4298 80.6799 41.5998 80.7899 41.6198 80.8799C41.6398 80.9699 41.5398 81.1499 41.4498 81.1999C41.1598 81.3499 40.8498 81.4799 40.5398 81.5699C40.2098 81.6699 39.8798 81.7399 39.4898 81.8299C39.4298 81.8399 39.4098 81.9199 39.4598 81.9599C39.8198 82.2199 40.1398 82.4399 40.4598 82.6799C40.5998 82.7899 40.7298 82.9299 40.8298 83.0799C40.8798 83.1599 40.8798 83.3199 40.8298 83.4099C40.8098 83.4499 40.6198 83.4599 40.5398 83.4299C40.2598 83.3099 39.9898 83.1699 39.7098 83.0399C39.5298 82.9599 39.3598 82.8699 39.1798 82.7899C38.7998 82.6299 38.4498 82.6299 38.1498 82.9699C38.0398 83.0999 37.8898 83.1899 37.7598 83.2999C37.0498 83.7699 36.3498 84.2599 35.6298 84.7199C34.5098 85.4399 33.4198 86.1899 32.1798 86.6999C32.1098 86.7299 32.1098 86.8399 32.1898 86.8499H32.2298Z" fill="#737373"/>
<path d="M27.84 66.1903C28.02 66.2703 28.23 66.4503 28.37 66.4103C28.65 66.3103 28.58 66.0103 28.46 65.8303C28.36 65.6803 28.1 65.4803 27.98 65.5203C27.7 65.6203 27.81 65.8903 27.84 66.2003V66.1903Z" fill="#202020"/>
<path d="M26.8598 65.3299C27.1065 65.0033 27.4898 64.7933 28.0098 64.6999C27.8598 64.5299 27.4798 64.4999 27.1798 64.6299C26.9398 64.7399 26.8298 64.9499 26.8598 65.3299Z" fill="black"/>
<path d="M27.9001 66.3199C28.0901 66.5899 28.3901 66.6498 28.5601 66.5898C28.9101 66.4698 28.8201 66.0799 28.6701 65.8599C28.5401 65.6699 28.2101 65.4199 28.0701 65.4699C27.7201 65.5899 27.7101 66.0499 27.9001 66.3199Z" fill="black"/>
<path d="M34.6201 68.9199C34.7801 69.3299 35.5601 69.5499 36.2001 69.2999C35.6501 69.1699 35.1201 69.0399 34.6201 68.9199Z" fill="black"/>
<path d="M26.8598 65.3299C27.1065 65.0033 27.4898 64.7933 28.0098 64.6999C27.8598 64.5299 27.4798 64.4999 27.1798 64.6299C26.9398 64.7399 26.8298 64.9499 26.8598 65.3299Z" fill="#707070"/>
<path d="M29.5901 105.69C30.6801 106.84 31.8001 108 32.9101 109.1L33.0901 108.47C33.3901 107.32 33.7101 106.18 34.0201 105C34.0901 104.76 34.1301 104.51 34.2001 104.26C34.5701 102.76 34.9701 101.27 35.3201 99.7599C35.8701 97.5499 35.7701 95.3899 34.6601 93.3699C34.4501 92.9199 34.1101 92.5299 33.8301 92.1299C33.7901 92.2799 33.7201 92.4199 33.7101 92.5699C33.6101 94.3299 33.2601 96.0199 32.5801 97.5599C32.5401 97.7099 32.4801 97.8199 32.3901 97.9499V97.9999C32.2501 98.3599 32.0701 98.6999 31.8801 99.0199C31.8101 99.1599 31.7601 99.2699 31.6701 99.3799V99.4299C31.3501 99.9499 31.0101 100.4 30.6401 100.88C30.1401 101.53 29.5601 102.1 29.0201 102.71C28.8701 102.88 28.7101 103.07 28.5601 103.24C28.7201 103.87 28.8601 104.48 29.0401 105.08L29.6001 105.69H29.5901Z" fill="#D3A272"/>
<path d="M24.9799 66.1302C24.7299 66.2902 24.4299 66.3602 24.1299 66.3302C23.1699 66.2102 21.0999 66.0002 20.8499 65.9302C18.4199 65.2902 16.8199 63.8202 15.8599 61.7402C15.4299 60.8202 15.5899 60.6002 16.6799 60.4802C20.5199 60.0502 23.6899 61.1302 26.0299 63.9902C26.0699 64.0402 25.9499 64.6602 25.8899 65.1002C25.8499 65.3902 25.6799 65.6602 25.4199 65.8302L24.9799 66.1202V66.1302Z" fill="#D3A272"/>
<path d="M24.26 65.3901C24.12 65.4401 23.98 65.4301 23.82 65.3901C23.31 65.2801 22.21 65.0701 22.07 65.0301C20.79 64.6201 20 63.9101 19.58 63.0001C19.39 62.5901 19.49 62.5101 20.08 62.5301C22.16 62.5801 24.36 62.8302 24.95 64.5502C25.01 64.7402 24.96 64.8501 24.91 65.0201C24.88 65.1401 24.67 65.2402 24.52 65.3002L24.27 65.4001L24.26 65.3901Z" fill="#FFFFFD"/>
<path d="M30.8698 103.93C30.8698 104.07 30.9398 104 31.0298 103.75C31.4898 102.17 31.8398 100.54 32.1998 98.9299C32.4498 97.5399 32.9098 96.0799 32.7298 94.6799C32.5898 93.6099 31.9298 92.6999 31.1898 91.9499C30.4798 91.2399 29.7398 90.5699 29.0098 89.8799C28.7898 89.6799 27.8498 88.7699 27.7798 88.8999C27.7998 89.0299 28.1598 89.4299 28.4098 89.6899C29.1398 90.4599 29.8898 91.2199 30.6198 91.9899C31.1898 92.5999 31.7398 93.2499 32.0298 94.0399C32.4898 95.2599 32.1798 96.5899 31.9398 97.8599C31.6298 99.5099 31.3298 101.17 31.0198 102.82C30.9598 103.15 30.8698 103.65 30.8798 103.93H30.8698Z" fill="#737373"/>
<path d="M50.8699 119.85C50.8399 120.24 50.4799 120.5 50.0999 120.45C45.8599 119.72 40.9599 116.44 36.1499 112.16C35.3099 111.42 34.4799 110.63 33.6599 109.82C33.4099 109.59 33.1599 109.36 32.9099 109.11C31.7999 108.01 30.6899 106.85 29.5899 105.7C29.4099 105.49 29.2099 105.28 29.0299 105.09C26.7999 102.64 24.6699 100.17 22.7599 97.8198C19.3999 93.7098 16.6799 90.0498 15.0699 87.8298C14.6499 87.2598 15.2399 86.5598 15.8799 86.8198C18.0299 87.6898 20.5499 88.1698 23.2299 88.3498C27.0499 88.5898 31.2499 88.2598 35.2999 87.6198C35.3499 87.6298 35.3999 87.6198 35.4599 87.6198C37.4399 87.3098 39.4199 86.9298 41.2699 86.5098C47.4599 85.1598 52.6799 83.4598 54.7799 82.7398C55.2499 82.5798 55.7099 82.9798 55.6499 83.4898L50.8799 119.87L50.8699 119.85Z" fill="#C28C70"/>
<path d="M67.5801 73.3797L60.7001 64.4097L57.9701 70.7997L55.3201 76.0897L53.4701 78.9897L51.3101 81.8997L49.7101 82.9497L47.4401 83.5597L42.7501 83.9297L41.7101 84.3997L41.6201 84.7097L42.0401 85.3697L43.4101 86.0497L46.4001 86.8997L46.4601 87.1897L45.4601 88.5197L44.1701 90.9597L43.9101 92.1097L44.2101 92.8097L45.0801 92.7897L45.9001 92.3297L47.5801 90.2797L48.7401 88.2297L49.2001 89.5297L50.4401 92.4297L51.1901 93.0097L51.9601 92.6897L52.1501 91.4997L51.6001 87.4897L51.9701 86.3797L53.3601 85.3597L56.5401 82.9397L64.5301 76.5097L67.5801 73.3797Z" fill="#C28C70"/>
<path d="M67.84 73.4498C67.84 73.4998 67.81 73.5498 67.78 73.5898C64.69 76.8798 61.19 79.7098 57.61 82.4498C56.46 83.3298 55.26 84.1498 54.09 84.9898C54.09 84.9898 54.09 84.9898 54.08 84.9998C53.78 85.2498 53.51 85.5698 53.17 85.7298C51.99 86.2798 51.63 87.1798 51.84 88.3998C52.02 89.4398 52.21 90.4798 52.32 91.5198C52.37 91.9598 52.32 92.4598 52.15 92.8398C51.82 93.5498 51.07 93.6698 50.65 93.0298C50.06 92.0998 49.66 91.0498 49.22 90.0298C49.09 89.7398 49.02 89.4198 48.91 88.9898C48.87 88.8198 48.64 88.7898 48.54 88.9398C48.03 89.7898 47.59 90.5298 47.15 91.2598C47.15 91.2698 47.13 91.2898 47.12 91.2998C46.7 91.7198 46.34 92.2098 45.86 92.5098C45.4 92.7998 44.75 93.1298 44.31 93.0098C43.6 92.8098 43.55 92.0098 43.82 91.4098C44.35 90.2498 44.98 89.1298 45.59 88.0098C45.71 87.7898 45.88 87.6098 46.08 87.3598C46.17 87.2498 46.12 87.0798 45.98 87.0398C45.33 86.8598 44.76 86.7198 44.21 86.5298C43.49 86.2898 42.75 86.0698 42.1 85.6898C41.78 85.4998 41.59 85.0798 41.37 84.7198C41.32 84.6398 41.34 84.5198 41.42 84.4598C41.74 84.1998 42.06 83.8598 42.41 83.8098C43.75 83.6098 45.11 83.5498 46.46 83.4298C46.75 83.3998 47.04 83.3398 47.33 83.2998H47.35C49.96 83.2298 51.57 81.6098 52.89 79.6198C55.9 75.0798 58.15 70.1498 60.16 65.0998C60.27 64.8298 60.39 64.5598 60.54 64.2998C60.66 64.0898 60.99 64.2498 60.9 64.4698C59.04 69.1898 56.96 73.7998 54.33 78.1398C53.49 79.5098 52.43 80.7598 51.41 82.0098C50.5 83.1298 49.22 83.5498 47.83 83.6898C46.15 83.8498 44.47 83.9698 42.8 84.1498C42.52 84.1798 42.25 84.3498 41.97 84.4898C41.87 84.5498 41.83 84.6798 41.9 84.7798C42.09 85.0698 42.26 85.3998 42.52 85.4998C43.63 85.9098 44.78 86.2098 45.92 86.5398C46.18 86.6098 46.44 86.6598 46.79 86.7198C46.94 86.7498 47 86.9298 46.9 87.0498C46.31 87.7398 45.75 88.2998 45.36 88.9698C44.86 89.8098 44.51 90.7498 44.19 91.6798C44.1 91.9498 44.23 92.4998 44.44 92.6198C44.66 92.7498 45.21 92.6498 45.41 92.4498C46.04 91.8298 46.63 91.1498 47.14 90.4298C47.68 89.6698 48.14 88.8698 48.7 87.9598C48.79 87.8098 49.01 87.8398 49.06 87.9998C49.41 89.1498 49.72 90.1798 50.07 91.1898C50.23 91.6498 50.47 92.0998 50.78 92.4698C50.95 92.6798 51.34 92.7998 51.62 92.7698C51.75 92.7598 51.93 92.2798 51.91 92.0298C51.85 91.2098 51.71 90.3898 51.61 89.5698C51.55 89.0498 51.48 88.5198 51.43 87.9898C51.34 86.8698 51.63 85.9698 52.78 85.4998C53.2 85.3298 53.56 85.0198 53.95 84.7798C53.95 84.7798 53.95 84.7798 53.96 84.7798C55.78 83.3598 57.63 81.9698 59.43 80.5198C62.23 78.2598 65.12 76.0898 67.47 73.3298C67.61 73.1698 67.87 73.2798 67.86 73.4898L67.84 73.4498Z" fill="#737373"/>
</g>
</g>
<defs>
<clipPath id="clip0_139_8721">
<rect width="100" height="100" rx="12" fill="white"/>
</clipPath>
</defs>
</svg>
