<svg width="149" height="12" viewBox="0 0 149 12" fill="none" xmlns="http://www.w3.org/2000/svg">
<path d="M9.98438 6.46094V7.38672H5.69531V10.9961H4.60547V7.38672H0.375V6.46094H9.98438ZM1.41797 3.22656C1.42383 1.79688 2.93555 0.894531 5.15625 0.894531C7.37695 0.894531 8.90039 1.79688 8.89453 3.22656C8.90039 4.63867 7.37695 5.53516 5.15625 5.53516C2.93555 5.53516 1.42383 4.63867 1.41797 3.22656ZM2.56641 3.22656C2.56055 4.09961 3.59766 4.64453 5.15625 4.64453C6.7207 4.64453 7.75195 4.09961 7.75781 3.22656C7.75195 2.3418 6.7207 1.79102 5.15625 1.78516C3.59766 1.79102 2.56055 2.3418 2.56641 3.22656ZM19.1766 0.496094V11.0195H18.0633V0.496094H19.1766ZM11.0437 2.34766V1.44531H15.9656V5.27734H12.1922V7.57422C13.8973 7.56836 15.3797 7.48633 17.1375 7.19922L17.243 8.11328C15.3855 8.42383 13.8035 8.49414 11.9461 8.5H11.0555V4.38672H14.8289V2.34766H11.0437ZM25.9711 1.28125C27.5414 1.28711 28.6605 2.7168 28.6664 4.96094C28.6605 7.22852 27.5414 8.6582 25.9711 8.65234C24.4008 8.6582 23.2816 7.22852 23.2875 4.96094C23.2816 2.7168 24.4008 1.28711 25.9711 1.28125ZM24.3539 4.96094C24.348 6.63086 25.016 7.65625 25.9711 7.65625C26.9438 7.65625 27.6 6.63086 27.6 4.96094C27.6 3.31445 26.9438 2.2832 25.9711 2.27734C25.016 2.2832 24.348 3.31445 24.3539 4.96094ZM30.225 10.9961V0.496094H31.3383V4.60938H33.0258V5.54688H31.3383V10.9961H30.225ZM41.925 0.496094V11.0195H40.8117V0.496094H41.925ZM33.593 4.96094C33.593 2.7168 34.7238 1.28711 36.3117 1.28125C37.8703 1.28711 39.0187 2.7168 39.0187 4.96094C39.0187 7.22852 37.8703 8.6582 36.3117 8.65234C34.7238 8.6582 33.593 7.22852 33.593 4.96094ZM34.6711 4.96094C34.6652 6.63086 35.3332 7.65625 36.3117 7.65625C37.2727 7.65625 37.9406 6.63086 37.9406 4.96094C37.9406 3.31445 37.2727 2.2832 36.3117 2.27734C35.3332 2.2832 34.6652 3.31445 34.6711 4.96094ZM46.7227 1.24609C48.3809 1.24023 49.5762 2.26562 49.582 3.74219C49.5762 5.21875 48.3809 6.24414 46.7227 6.25C45.0703 6.24414 43.8574 5.21875 43.8633 3.74219C43.8574 2.26562 45.0703 1.24023 46.7227 1.24609ZM43.3594 7.83203C45.2695 7.83203 47.918 7.81445 50.2148 7.48047L50.2969 8.28906C47.9238 8.74609 45.375 8.75781 43.5 8.75781L43.3594 7.83203ZM44.9648 3.74219C44.9531 4.67383 45.7031 5.27734 46.7227 5.27734C47.7422 5.27734 48.4922 4.67383 48.4922 3.74219C48.4922 2.82227 47.7422 2.20703 46.7227 2.20703C45.7031 2.20703 44.9531 2.82227 44.9648 3.74219ZM50.8711 11.0195V0.496094H51.9844V11.0195H50.8711ZM64.2516 0.484375V3.625H65.775V4.5625H64.2516V8.20703H63.1383V0.484375H64.2516ZM56.1656 3.82422C56.1539 2.29492 57.3727 1.2168 58.9547 1.21094C60.5426 1.2168 61.7438 2.29492 61.7555 3.82422C61.7438 5.35352 60.5426 6.44336 58.9547 6.4375C57.3727 6.44336 56.1539 5.35352 56.1656 3.82422ZM57.2555 3.82422C57.2438 4.80273 57.9938 5.46484 58.9547 5.46484C59.9273 5.46484 60.6598 4.80273 60.6656 3.82422C60.6598 2.8457 59.9273 2.18359 58.9547 2.18359C57.9938 2.18359 57.2438 2.8457 57.2555 3.82422ZM57.5953 10.7734V7.39844H58.7086V9.87109H64.6969V10.7734H57.5953ZM74.7797 0.507812V6.44922H73.6664V0.507812H74.7797ZM66.1195 5.33594C67.7602 4.78516 68.7504 3.39062 68.7562 1.92578V0.90625H69.893V1.92578C69.8871 3.34375 70.9008 4.62109 72.4945 5.16016L71.9437 6.01562C70.725 5.61133 69.8051 4.78516 69.3305 3.70703C68.8617 4.86133 67.9301 5.77539 66.6703 6.21484L66.1195 5.33594ZM67.8773 10.8672V7.01172H74.7797V10.8672H67.8773ZM68.9789 9.96484H73.6898V7.90234H68.9789V9.96484ZM80.7844 1.71484C80.7844 2.71094 80.6789 3.67773 80.4094 4.58594H81.8977V0.765625H82.9523V10.4805H81.8977V5.48828H80.0695C79.4836 6.77148 78.4758 7.91406 76.8117 8.83984L76.1789 8.06641C77.7023 7.2168 78.6223 6.19141 79.1438 5.02539L76.3313 5.3125L76.1789 4.35156L79.4543 4.15234C79.5832 3.66602 79.6652 3.15625 79.7004 2.62891H76.6945V1.71484H80.7844ZM84.1125 10.9961V0.496094H85.1672V10.9961H84.1125ZM89.0625 1.28125C90.4922 1.28711 91.5293 2.49414 91.6992 4.43359H93.8672V0.496094H94.9688V11.0195H93.8672V5.33594H91.7109C91.5879 7.38672 90.5273 8.6582 89.0625 8.65234C87.498 8.6582 86.3906 7.22852 86.4023 4.96094C86.3906 2.7168 87.498 1.28711 89.0625 1.28125ZM87.457 4.96094C87.4629 6.63086 88.1133 7.65625 89.0625 7.65625C90.0117 7.65625 90.6621 6.63086 90.668 4.96094C90.6621 3.31445 90.0117 2.2832 89.0625 2.27734C88.1133 2.2832 87.4629 3.31445 87.457 4.96094ZM105.884 5.3125V6.16797H96.2742V5.3125H105.884ZM97.4109 7.70312V6.90625H104.7V9.21484H98.5359V10.082H105.028V10.8672H97.4227V8.47656H103.598V7.70312H97.4109ZM97.4812 1.55078V0.765625H104.677V3.03906H98.6062V3.83594H104.852V4.62109H97.5047V2.30078H103.563V1.55078H97.4812ZM118.725 2.03125V2.94531H117.237V4.28125H118.725V5.21875H117.237V6.71875H116.123V0.496094H117.237V2.03125H118.725ZM109.151 3.61328C109.139 2.14258 110.334 1.10547 111.94 1.10547C113.551 1.10547 114.729 2.14258 114.741 3.61328C114.729 5.0957 113.551 6.12109 111.94 6.12109C110.334 6.12109 109.139 5.0957 109.151 3.61328ZM110.241 3.61328C110.229 4.55664 110.955 5.18359 111.94 5.17188C112.924 5.18359 113.645 4.55664 113.651 3.61328C113.645 2.67578 112.924 2.06055 111.94 2.05469C110.955 2.06055 110.229 2.67578 110.241 3.61328ZM110.299 8.08984V7.1875H117.237V10.9961H116.123V8.08984H110.299ZM128.655 5.71094V6.625H119.058V5.71094H123.288V4.17578H124.39V5.71094H128.655ZM119.609 3.87109C121.618 3.61328 123.271 2.42969 123.277 1.10547V0.660156H124.402V1.10547C124.396 2.44727 126.042 3.61328 128.07 3.87109L127.636 4.75C125.972 4.48047 124.501 3.67188 123.833 2.51172C123.165 3.67188 121.695 4.48047 120.019 4.75L119.609 3.87109ZM120.124 8.42969V7.55078H127.46V10.9961H126.335V8.42969H120.124ZM137.309 0.496094V4.75H138.996V5.67578H137.309V10.9961H136.207V0.496094H137.309ZM129.07 3.05078V2.13672H131.66V0.636719H132.773V2.13672H135.293V3.05078H129.07ZM129.609 6.26172C129.609 4.83203 130.711 3.82422 132.223 3.82422C133.729 3.82422 134.83 4.83203 134.836 6.26172C134.83 7.70312 133.729 8.70508 132.223 8.71094C130.711 8.70508 129.609 7.70312 129.609 6.26172ZM130.676 6.26172C130.67 7.17578 131.326 7.78516 132.223 7.77344C133.113 7.78516 133.764 7.17578 133.77 6.26172C133.764 5.36523 133.113 4.74414 132.223 4.73828C131.326 4.74414 130.67 5.36523 130.676 6.26172ZM147.696 3.56641V4.45703H140.466V0.871094H141.567V3.56641H147.696ZM139.188 6.67188V5.78125H148.798V6.67188H139.188ZM140.384 10.75V7.66797H141.497V9.83594H147.766V10.75H140.384Z" fill="#B45A5A"/>
</svg>
