<svg width="64" height="64" viewBox="0 0 64 64" fill="none" xmlns="http://www.w3.org/2000/svg">
<rect width="64" height="64" rx="32" fill="#FC986C"/>
<path d="M24.529 16.25C22.549 16.25 20.7017 17.7822 20.7557 19.9513C20.812 22.2395 21.2957 23.981 22.0292 25.367C22.7627 26.7485 23.7122 27.707 24.5942 28.472C24.9002 28.7375 25.2152 28.9895 25.501 29.2212L25.8317 29.4913C26.212 29.8018 26.5225 30.0717 26.7767 30.344C27.2582 30.8525 27.499 31.325 27.499 32C27.499 32.675 27.2583 33.1475 26.7812 33.656C26.527 33.926 26.2165 34.1982 25.8362 34.511L25.5032 34.7787C25.1977 35.0228 24.8962 35.2719 24.5987 35.5258C23.7145 36.2908 22.765 37.2515 22.0337 38.6307C21.2957 40.0167 20.812 41.7582 20.7512 44.0442C20.695 46.2155 22.5467 47.75 24.529 47.75H39.4645C41.4467 47.75 43.2985 46.2155 43.2422 44.0442C43.1815 41.7582 42.6978 40.0168 41.9643 38.633C41.2307 37.2493 40.2812 36.293 39.3993 35.528C39.0932 35.2625 38.7805 35.0105 38.4948 34.7787L38.164 34.5087C37.8293 34.2472 37.5135 33.9622 37.219 33.656C36.7397 33.1475 36.499 32.675 36.499 32C36.499 31.325 36.742 30.8525 37.219 30.344C37.4755 30.0717 37.786 29.8017 38.164 29.489L38.497 29.2212C38.7827 28.9917 39.0978 28.7375 39.4038 28.472C40.288 27.707 41.2375 26.7485 41.9688 25.367C42.7045 23.981 43.1882 22.2395 43.2445 19.9513C43.294 17.7822 41.4445 16.25 39.4668 16.25H24.529ZM23.0035 19.895C22.9855 19.175 23.62 18.5 24.5312 18.5H39.4668C40.3758 18.5 41.0103 19.175 40.9922 19.895C40.9427 21.884 40.5287 23.2745 39.9797 24.3118C39.4307 25.349 38.704 26.1005 37.93 26.771C37.6532 27.0095 37.3877 27.2255 37.1132 27.446L36.7375 27.7498C36.3263 28.0748 35.9384 28.4281 35.5765 28.8073C34.8228 29.6082 34.249 30.605 34.249 32C34.249 33.3905 34.8205 34.3895 35.5742 35.195C35.9342 35.5775 36.3415 35.9263 36.7352 36.2502L37.111 36.554C37.3833 36.7745 37.651 36.9905 37.9255 37.229C38.6995 37.8995 39.4217 38.6465 39.973 39.6882C40.5243 40.7232 40.9405 42.1137 40.99 44.1027C41.008 44.8228 40.3735 45.5 39.4623 45.5H24.529C23.6177 45.5 22.9832 44.8228 23.0012 44.1027C23.053 42.1137 23.4692 40.7232 24.0182 39.6882C24.5717 38.6488 25.294 37.8995 26.0702 37.229C26.347 36.9905 26.6125 36.7768 26.8847 36.554L27.2627 36.2502C27.6565 35.9263 28.0637 35.5798 28.4237 35.1927C29.1775 34.3895 29.7513 33.3927 29.7513 31.9978C29.7513 30.6073 29.1752 29.6105 28.4237 28.805C28.0611 28.4266 27.6724 28.074 27.2605 27.7498L26.8847 27.446C26.6125 27.2255 26.3447 27.0095 26.068 26.771C25.294 26.1005 24.5695 25.3513 24.0205 24.3118C23.4692 23.2768 23.0552 21.884 23.008 19.895M26.0072 23.2565L25.879 23H38.119C38.0785 23.09 38.0365 23.1755 37.993 23.2565C37.624 23.954 37.1267 24.494 36.4607 25.0677C36.2132 25.2815 35.9882 25.4615 35.734 25.6685L35.3132 26.0082C34.8257 26.396 34.3656 26.817 33.9363 27.2682C32.9035 28.3663 31.999 29.8895 31.999 32C31.999 29.8895 31.0922 28.3663 30.064 27.2682C29.6332 26.8168 29.1716 26.3958 28.6825 26.0082L28.264 25.6707C28.0075 25.4615 27.7847 25.2815 27.5373 25.0677C26.8713 24.4918 26.374 23.954 26.0027 23.2565M38.6838 43.25H25.3052C25.4267 42.0823 25.7102 41.2992 26.0027 40.7435C26.374 40.046 26.8712 39.506 27.5395 38.9323C27.787 38.7185 28.0075 38.5385 28.264 38.3315L28.6847 37.9895C29.092 37.6565 29.596 37.2313 30.064 36.7295C31.0922 35.6338 31.999 34.1127 31.999 32C31.999 34.1082 32.9012 35.6315 33.9295 36.7295C34.3975 37.2313 34.8993 37.6565 35.3065 37.9895L35.7272 38.3293C35.9837 38.5362 36.2043 38.7162 36.4517 38.93C37.1178 39.506 37.615 40.0437 37.9862 40.7435C38.2788 41.297 38.5623 42.0823 38.6838 43.25Z" fill="white"/>
</svg>
